<svg width="1440" height="470" viewBox="0 0 1440 470" fill="none" xmlns="http://www.w3.org/2000/svg">
<g clip-path="url(#clip0_4_12)">
<rect width="1440" height="471" fill="url(#paint0_linear_4_12)"/>
<rect x="791.245" y="190.964" width="605.22" height="869.998" rx="245.322" transform="rotate(-46.5539 791.245 190.964)" fill="url(#paint1_linear_4_12)"/>
<path d="M607.782 666.949C612.235 634.013 630.366 605.746 651.243 578.256C671.35 551.798 692.807 525.266 702.008 494.268C720.982 430.359 691.621 365.791 653.826 314.675C611.574 257.554 555.259 207.272 528.465 141.66C515.327 109.477 511.082 73.0575 526.422 39.5816C539.137 11.8475 564.377 -6.91345 594.644 -18.7551C611.843 -25.4801 629.724 -30.2242 647.684 -34.7538L646.199 -42.0556C641.11 -40.7745 636.02 -39.4933 630.983 -38.1304C601.67 -30.2773 571.554 -20.4479 548.37 -1.46019C522.043 20.1182 508.922 51.5295 508.065 82.1202C507.006 119.45 522.45 154.804 542.251 186.215C561.329 216.483 585.139 243.975 608.483 271.578C653.049 324.265 699.395 383.289 699.42 453.533C699.424 469.969 696.65 486.495 690.527 502.288C684.488 517.895 675.341 532.399 665.28 546.366C645.597 573.705 622.187 599.575 609.313 630.045C595.986 661.56 594.419 696.566 604.841 727.857C604.85 727.902 604.876 727.942 604.888 728.001L613.399 726.27C606.999 707.356 605.067 687.118 607.782 666.949Z" fill="url(#paint2_linear_4_12)" fill-opacity="0.2"/>
<path d="M685.13 575.876C700.773 499.203 656.624 427.259 616.829 380.406C596.345 356.293 573.236 333.451 550.875 311.363C521.926 282.765 491.994 253.2 467.592 220.651C443.77 188.891 392.462 106.421 430.334 27.038C452.129 -18.6271 501.594 -57.3559 577.359 -88.0705C584.48 -90.9634 591.732 -93.7292 598.991 -96.4655L598.684 -97.9702C591.312 -95.1952 583.948 -92.3759 576.712 -89.4443C500.509 -58.5638 450.733 -19.5567 428.773 26.4954C390.57 106.576 442.193 189.565 466.162 221.526C490.632 254.153 520.593 283.774 549.584 312.409C571.926 334.485 595.012 357.301 615.45 381.363C655.06 427.992 699.007 499.547 683.449 575.696C677.917 602.814 665.007 629.159 652.535 654.647C647.337 665.275 642.092 676.019 637.33 686.897L639.294 686.497C643.946 675.934 649.046 665.511 654.096 655.189C666.624 629.629 679.552 603.203 685.13 575.876Z" fill="url(#paint3_linear_4_12)" fill-opacity="0.2"/>
<path d="M266.607 471.944L236.034 462.677L205.462 471.944L174.889 462.677L144.317 471.944L113.744 462.677L83.1717 471.944L52.5992 462.677L22.0267 471.944L-8.5595 462.677L-39.132 471.944L-69.7045 462.677L-100.291 471.944L-131 462.637L-130.74 462.169L-100.291 471.407L-69.7045 462.129L-39.132 471.407L-8.5595 462.129L22.0267 471.407L52.5992 462.129L83.1717 471.407L113.744 462.129L144.317 471.407L174.889 462.129L205.462 471.407L236.034 462.129L266.607 471.407L297.179 462.129L327.889 471.446L327.629 471.904L297.179 462.677L266.607 471.944Z" fill="#287E74" fill-opacity="0.25"/>
<path d="M266.607 463.105L236.034 453.827L205.462 463.105L174.889 453.827L144.317 463.105L113.744 453.827L83.1717 463.105L52.5992 453.827L22.0267 463.105L-8.5595 453.827L-39.132 463.105L-69.7045 453.827L-100.291 463.105L-131 453.788L-130.74 453.33L-100.291 462.567L-69.7045 453.29L-39.132 462.567L-8.5595 453.29L22.0267 462.567L52.5992 453.29L83.1717 462.567L113.744 453.29L144.317 462.567L174.889 453.29L205.462 462.567L236.034 453.29L266.607 462.567L297.179 453.29L327.889 462.607L327.629 463.065L297.179 453.827L266.607 463.105Z" fill="#287E74" fill-opacity="0.25"/>
<path d="M266.607 454.265L236.034 444.988L205.462 454.265L174.889 444.988L144.317 454.265L113.744 444.988L83.1717 454.265L52.5992 444.988L22.0267 454.265L-8.5595 444.988L-39.132 454.265L-69.7045 444.988L-100.291 454.265L-131 444.948L-130.74 444.49L-100.291 453.718L-69.7045 444.45L-39.132 453.718L-8.5595 444.45L22.0267 453.718L52.5992 444.45L83.1717 453.718L113.744 444.45L144.317 453.718L174.889 444.45L205.462 453.718L236.034 444.45L266.607 453.718L297.179 444.45L327.889 453.758L327.629 454.226L297.179 444.988L266.607 454.265Z" fill="#287E74" fill-opacity="0.25"/>
<path d="M266.607 445.416L236.034 436.149L205.462 445.416L174.889 436.149L144.317 445.416L113.744 436.149L83.1717 445.416L52.5992 436.149L22.0267 445.416L-8.5595 436.149L-39.132 445.416L-69.7045 436.149L-100.291 445.416L-131 436.109L-130.74 435.651L-100.291 444.879L-69.7045 435.611L-39.132 444.879L-8.5595 435.611L22.0267 444.879L52.5992 435.611L83.1717 444.879L113.744 435.611L144.317 444.879L174.889 435.611L205.462 444.879L236.034 435.611L266.607 444.879L297.179 435.611L327.889 444.918L327.629 445.376L297.179 436.149L266.607 445.416Z" fill="#287E74" fill-opacity="0.25"/>
<path d="M266.607 436.577L236.034 427.309L205.462 436.577L174.889 427.309L144.317 436.577L113.744 427.309L83.1717 436.577L52.5992 427.309L22.0267 436.577L-8.5595 427.309L-39.132 436.577L-69.7045 427.309L-100.291 436.577L-131 427.269L-130.74 426.812L-100.291 436.039L-69.7045 426.772L-39.132 436.039L-8.5595 426.772L22.0267 436.039L52.5992 426.772L83.1717 436.039L113.744 426.772L144.317 436.039L174.889 426.772L205.462 436.039L236.034 426.772L266.607 436.039L297.179 426.772L327.889 436.079L327.629 436.537L297.179 427.309L266.607 436.577Z" fill="#287E74" fill-opacity="0.25"/>
<path d="M266.607 427.737L236.034 418.47L205.462 427.737L174.889 418.47L144.317 427.737L113.744 418.47L83.1717 427.737L52.5992 418.47L22.0267 427.737L-8.5595 418.47L-39.132 427.737L-69.7045 418.47L-100.291 427.737L-131 418.43L-130.74 417.972L-100.291 427.2L-69.7045 417.932L-39.132 427.2L-8.5595 417.932L22.0267 427.2L52.5992 417.932L83.1717 427.2L113.744 417.932L144.317 427.2L174.889 417.932L205.462 427.2L236.034 417.932L266.607 427.2L297.179 417.932L327.889 427.239L327.629 427.697L297.179 418.47L266.607 427.737Z" fill="#287E74" fill-opacity="0.25"/>
<path d="M266.607 418.898L236.034 409.63L205.462 418.898L174.889 409.63L144.317 418.898L113.744 409.63L83.1717 418.898L52.5992 409.63L22.0267 418.898L-8.5595 409.63L-39.132 418.898L-69.7045 409.63L-100.291 418.898L-131 409.59L-130.74 409.133L-100.291 418.36L-69.7045 409.093L-39.132 418.36L-8.5595 409.093L22.0267 418.36L52.5992 409.093L83.1717 418.36L113.744 409.093L144.317 418.36L174.889 409.093L205.462 418.36L236.034 409.093L266.607 418.36L297.179 409.093L327.889 418.4L327.629 418.858L297.179 409.63L266.607 418.898Z" fill="#287E74" fill-opacity="0.25"/>
<path d="M266.607 410.058L236.034 400.791L205.462 410.058L174.889 400.791L144.317 410.058L113.744 400.791L83.1717 410.058L52.5992 400.791L22.0267 410.058L-8.5595 400.791L-39.132 410.058L-69.7045 400.791L-100.291 410.058L-131 400.751L-130.74 400.283L-100.291 409.521L-69.7045 400.243L-39.132 409.521L-8.5595 400.243L22.0267 409.521L52.5992 400.243L83.1717 409.521L113.744 400.243L144.317 409.521L174.889 400.243L205.462 409.521L236.034 400.243L266.607 409.521L297.179 400.243L327.889 409.561L327.629 410.019L297.179 400.791L266.607 410.058Z" fill="#287E74" fill-opacity="0.25"/>
<path d="M266.607 401.219L236.034 391.952L205.462 401.219L174.889 391.952L144.317 401.219L113.744 391.952L83.1717 401.219L52.5992 391.952L22.0267 401.219L-8.5595 391.952L-39.132 401.219L-69.7045 391.952L-100.291 401.219L-131 391.912L-130.74 391.444L-100.291 400.681L-69.7045 391.404L-39.132 400.681L-8.5595 391.404L22.0267 400.681L52.5992 391.404L83.1717 400.681L113.744 391.404L144.317 400.681L174.889 391.404L205.462 400.681L236.034 391.404L266.607 400.681L297.179 391.404L327.889 400.721L327.629 401.179L297.179 391.952L266.607 401.219Z" fill="#287E74" fill-opacity="0.25"/>
<path d="M266.607 392.38L236.034 383.102L205.462 392.38L174.889 383.102L144.317 392.38L113.744 383.102L83.1717 392.38L52.5992 383.102L22.0267 392.38L-8.5595 383.102L-39.132 392.38L-69.7045 383.102L-100.291 392.38L-131 383.062L-130.74 382.605L-100.291 391.842L-69.7045 382.565L-39.132 391.842L-8.5595 382.565L22.0267 391.842L52.5992 382.565L83.1717 391.842L113.744 382.565L144.317 391.842L174.889 382.565L205.462 391.842L236.034 382.565L266.607 391.842L297.179 382.565L327.889 391.882L327.629 392.34L297.179 383.102L266.607 392.38Z" fill="#287E74" fill-opacity="0.25"/>
<path d="M266.607 383.54L236.034 374.263L205.462 383.54L174.889 374.263L144.317 383.54L113.744 374.263L83.1717 383.54L52.5992 374.263L22.0267 383.54L-8.5595 374.263L-39.132 383.54L-69.7045 374.263L-100.291 383.54L-131 374.223L-130.74 373.765L-100.291 382.993L-69.7045 373.725L-39.132 382.993L-8.5595 373.725L22.0267 382.993L52.5992 373.725L83.1717 382.993L113.744 373.725L144.317 382.993L174.889 373.725L205.462 382.993L236.034 373.725L266.607 382.993L297.179 373.725L327.889 383.033L327.629 383.5L297.179 374.263L266.607 383.54Z" fill="#287E74" fill-opacity="0.25"/>
<path d="M266.607 374.691L236.034 365.424L205.462 374.691L174.889 365.424L144.317 374.691L113.744 365.424L83.172 374.691L52.5994 365.424L22.0269 374.691L-8.55925 365.424L-39.1318 374.691L-69.7043 365.424L-100.29 374.691L-131 365.384L-130.74 364.926L-100.29 374.153L-69.7043 364.886L-39.1318 374.153L-8.55925 364.886L22.0269 374.153L52.5994 364.886L83.172 374.153L113.744 364.886L144.317 374.153L174.889 364.886L205.462 374.153L236.034 364.886L266.607 374.153L297.179 364.886L327.889 374.193L327.629 374.651L297.179 365.424L266.607 374.691Z" fill="#287E74" fill-opacity="0.25"/>
<path d="M266.607 365.851L236.034 356.584L205.462 365.851L174.889 356.584L144.317 365.851L113.744 356.584L83.1717 365.851L52.5992 356.584L22.0267 365.851L-8.5595 356.584L-39.132 365.851L-69.7045 356.584L-100.291 365.851L-131 356.544L-130.74 356.086L-100.291 365.314L-69.7045 356.046L-39.132 365.314L-8.5595 356.046L22.0267 365.314L52.5992 356.046L83.1717 365.314L113.744 356.046L144.317 365.314L174.889 356.046L205.462 365.314L236.034 356.046L266.607 365.314L297.179 356.046L327.889 365.354L327.629 365.812L297.179 356.584L266.607 365.851Z" fill="#287E74" fill-opacity="0.25"/>
<path d="M266.607 357.012L236.034 347.745L205.462 357.012L174.889 347.745L144.317 357.012L113.744 347.745L83.1717 357.012L52.5992 347.745L22.0267 357.012L-8.5595 347.745L-39.132 357.012L-69.7045 347.745L-100.291 357.012L-131 347.705L-130.74 347.247L-100.291 356.474L-69.7045 347.207L-39.132 356.474L-8.5595 347.207L22.0267 356.474L52.5992 347.207L83.1717 356.474L113.744 347.207L144.317 356.474L174.889 347.207L205.462 356.474L236.034 347.207L266.607 356.474L297.179 347.207L327.889 356.514L327.629 356.972L297.179 347.745L266.607 357.012Z" fill="#287E74" fill-opacity="0.25"/>
<path d="M266.607 348.173L236.034 338.905L205.462 348.173L174.889 338.905L144.317 348.173L113.744 338.905L83.1717 348.173L52.5992 338.905L22.0267 348.173L-8.5595 338.905L-39.132 348.173L-69.7045 338.905L-100.291 348.173L-131 338.865L-130.74 338.397L-100.291 347.635L-69.7045 338.358L-39.132 347.635L-8.5595 338.358L22.0267 347.635L52.5992 338.358L83.1717 347.635L113.744 338.358L144.317 347.635L174.889 338.358L205.462 347.635L236.034 338.358L266.607 347.635L297.179 338.358L327.889 347.675L327.629 348.133L297.179 338.905L266.607 348.173Z" fill="#287E74" fill-opacity="0.25"/>
<path d="M266.607 339.333L236.034 330.066L205.462 339.333L174.889 330.066L144.317 339.333L113.744 330.066L83.1717 339.333L52.5992 330.066L22.0267 339.333L-8.5595 330.066L-39.132 339.333L-69.7045 330.066L-100.291 339.333L-131 330.026L-130.74 329.558L-100.291 338.796L-69.7045 329.518L-39.132 338.796L-8.5595 329.518L22.0267 338.796L52.5992 329.518L83.1717 338.796L113.744 329.518L144.317 338.796L174.889 329.518L205.462 338.796L236.034 329.518L266.607 338.796L297.179 329.518L327.889 338.836L327.629 339.293L297.179 330.066L266.607 339.333Z" fill="#287E74" fill-opacity="0.25"/>
<path d="M266.607 330.494L236.034 321.216L205.462 330.494L174.889 321.216L144.317 330.494L113.744 321.216L83.1717 330.494L52.5992 321.216L22.0267 330.494L-8.5595 321.216L-39.132 330.494L-69.7045 321.216L-100.291 330.494L-131 321.177L-130.74 320.719L-100.291 329.956L-69.7045 320.679L-39.132 329.956L-8.5595 320.679L22.0267 329.956L52.5992 320.679L83.1717 329.956L113.744 320.679L144.317 329.956L174.889 320.679L205.462 329.956L236.034 320.679L266.607 329.956L297.179 320.679L327.889 329.996L327.629 330.454L297.179 321.216L266.607 330.494Z" fill="#287E74" fill-opacity="0.25"/>
<path d="M266.607 321.654L236.034 312.377L205.462 321.654L174.889 312.377L144.317 321.654L113.744 312.377L83.1717 321.654L52.5992 312.377L22.0267 321.654L-8.5595 312.377L-39.132 321.654L-69.7045 312.377L-100.291 321.654L-131 312.337L-130.74 311.879L-100.291 321.107L-69.7045 311.839L-39.132 321.107L-8.5595 311.839L22.0267 321.107L52.5992 311.839L83.1717 321.107L113.744 311.839L144.317 321.107L174.889 311.839L205.462 321.107L236.034 311.839L266.607 321.107L297.179 311.839L327.889 321.147L327.629 321.614L297.179 312.377L266.607 321.654Z" fill="#287E74" fill-opacity="0.25"/>
<path d="M266.607 312.815L236.034 303.538L205.462 312.815L174.889 303.538L144.317 312.815L113.744 303.538L83.1717 312.815L52.5992 303.538L22.0267 312.815L-8.5595 303.538L-39.132 312.815L-69.7045 303.538L-100.291 312.815L-131 303.498L-130.74 303.04L-100.291 312.267L-69.7045 303L-39.132 312.267L-8.5595 303L22.0267 312.267L52.5992 303L83.1717 312.267L113.744 303L144.317 312.267L174.889 303L205.462 312.267L236.034 303L266.607 312.267L297.179 303L327.889 312.307L327.629 312.775L297.179 303.538L266.607 312.815Z" fill="#287E74" fill-opacity="0.25"/>
<path d="M1234.06 4.1026C1235.19 4.1026 1236.11 3.1824 1236.11 2.04727C1236.11 0.912147 1235.19 -0.00805664 1234.06 -0.00805664C1232.92 -0.00805664 1232 0.912147 1232 2.04727C1232 3.1824 1232.92 4.1026 1234.06 4.1026Z" fill="black" fill-opacity="0.21"/>
<path d="M1263.81 4.1026C1264.94 4.1026 1265.86 3.1824 1265.86 2.04727C1265.86 0.912147 1264.94 -0.00805664 1263.81 -0.00805664C1262.67 -0.00805664 1261.75 0.912147 1261.75 2.04727C1261.75 3.1824 1262.67 4.1026 1263.81 4.1026Z" fill="black" fill-opacity="0.21"/>
<path d="M1293.56 4.1026C1294.69 4.1026 1295.61 3.1824 1295.61 2.04727C1295.61 0.912147 1294.69 -0.00805664 1293.56 -0.00805664C1292.42 -0.00805664 1291.5 0.912147 1291.5 2.04727C1291.5 3.1824 1292.42 4.1026 1293.56 4.1026Z" fill="black" fill-opacity="0.21"/>
<path d="M1323.31 4.1026C1324.45 4.1026 1325.37 3.1824 1325.37 2.04727C1325.37 0.912147 1324.45 -0.00805664 1323.31 -0.00805664C1322.18 -0.00805664 1321.26 0.912147 1321.26 2.04727C1321.26 3.1824 1322.18 4.1026 1323.31 4.1026Z" fill="black" fill-opacity="0.21"/>
<path d="M1353.06 4.1026C1354.2 4.1026 1355.12 3.1824 1355.12 2.04727C1355.12 0.912147 1354.2 -0.00805664 1353.06 -0.00805664C1351.93 -0.00805664 1351.01 0.912147 1351.01 2.04727C1351.01 3.1824 1351.93 4.1026 1353.06 4.1026Z" fill="black" fill-opacity="0.21"/>
<path d="M1382.81 4.1026C1383.95 4.1026 1384.87 3.1824 1384.87 2.04727C1384.87 0.912147 1383.95 -0.00805664 1382.81 -0.00805664C1381.68 -0.00805664 1380.76 0.912147 1380.76 2.04727C1380.76 3.1824 1381.68 4.1026 1382.81 4.1026Z" fill="black" fill-opacity="0.21"/>
<path d="M1414.62 2.04727C1414.62 3.17602 1413.69 4.1026 1412.57 4.1026C1411.44 4.1026 1410.51 3.17602 1410.51 2.04727C1410.51 0.918527 1411.44 -0.00805664 1412.57 -0.00805664C1413.71 -0.00805664 1414.62 0.918527 1414.62 2.04727Z" fill="black" fill-opacity="0.21"/>
<path d="M1234.06 24.0999C1235.19 24.0999 1236.11 23.1797 1236.11 22.0446C1236.11 20.9095 1235.19 19.9893 1234.06 19.9893C1232.92 19.9893 1232 20.9095 1232 22.0446C1232 23.1797 1232.92 24.0999 1234.06 24.0999Z" fill="black" fill-opacity="0.21"/>
<path d="M1263.81 24.0999C1264.94 24.0999 1265.86 23.1797 1265.86 22.0446C1265.86 20.9095 1264.94 19.9893 1263.81 19.9893C1262.67 19.9893 1261.75 20.9095 1261.75 22.0446C1261.75 23.1797 1262.67 24.0999 1263.81 24.0999Z" fill="black" fill-opacity="0.21"/>
<path d="M1293.56 24.0999C1294.69 24.0999 1295.61 23.1797 1295.61 22.0446C1295.61 20.9095 1294.69 19.9893 1293.56 19.9893C1292.42 19.9893 1291.5 20.9095 1291.5 22.0446C1291.5 23.1797 1292.42 24.0999 1293.56 24.0999Z" fill="black" fill-opacity="0.21"/>
<path d="M1323.31 24.0999C1324.45 24.0999 1325.37 23.1797 1325.37 22.0446C1325.37 20.9095 1324.45 19.9893 1323.31 19.9893C1322.18 19.9893 1321.26 20.9095 1321.26 22.0446C1321.26 23.1797 1322.18 24.0999 1323.31 24.0999Z" fill="black" fill-opacity="0.21"/>
<path d="M1353.06 24.0999C1354.2 24.0999 1355.12 23.1797 1355.12 22.0446C1355.12 20.9095 1354.2 19.9893 1353.06 19.9893C1351.93 19.9893 1351.01 20.9095 1351.01 22.0446C1351.01 23.1797 1351.93 24.0999 1353.06 24.0999Z" fill="black" fill-opacity="0.21"/>
<path d="M1382.81 24.0999C1383.95 24.0999 1384.87 23.1797 1384.87 22.0446C1384.87 20.9095 1383.95 19.9893 1382.81 19.9893C1381.68 19.9893 1380.76 20.9095 1380.76 22.0446C1380.76 23.1797 1381.68 24.0999 1382.81 24.0999Z" fill="black" fill-opacity="0.21"/>
<path d="M1414.62 22.0446C1414.62 23.1733 1413.69 24.0999 1412.57 24.0999C1411.44 24.0999 1410.51 23.1733 1410.51 22.0446C1410.51 20.9158 1411.44 19.9893 1412.57 19.9893C1413.71 19.9893 1414.62 20.9158 1414.62 22.0446Z" fill="black" fill-opacity="0.21"/>
<path d="M140 379L1300 379" stroke="white" stroke-opacity="0.11"/>
</g>
<defs>
<linearGradient id="paint0_linear_4_12" x1="106.395" y1="64.0363" x2="1181.65" y2="647.609" gradientUnits="userSpaceOnUse">
<stop offset="0.0745676" stop-color="#363278"/>
<stop offset="0.384733" stop-color="#3C349B" stop-opacity="0.931936"/>
<stop offset="0.902145" stop-color="#211E9A" stop-opacity="0.8"/>
<stop offset="0.99737" stop-color="#363278"/>
</linearGradient>
<linearGradient id="paint1_linear_4_12" x1="913.563" y1="975.794" x2="1453.89" y2="468.303" gradientUnits="userSpaceOnUse">
<stop stop-color="#EA8B00"/>
<stop offset="1" stop-color="#EE6C00"/>
</linearGradient>
<linearGradient id="paint2_linear_4_12" x1="615.229" y1="667.002" x2="574.144" y2="6.293" gradientUnits="userSpaceOnUse">
<stop offset="0.0467524" stop-color="#F4F8FD"/>
<stop offset="0.473931" stop-color="#3EE8B5"/>
<stop offset="1" stop-color="#EFF1FD"/>
</linearGradient>
<linearGradient id="paint3_linear_4_12" x1="632.868" y1="652.55" x2="502.89" y2="18.4126" gradientUnits="userSpaceOnUse">
<stop stop-color="#263959"/>
<stop offset="1" stop-color="#F4F8FD"/>
</linearGradient>
<clipPath id="clip0_4_12">
<rect width="1440" height="470" fill="white"/>
</clipPath>
</defs>
</svg>
