<svg width="579" height="478" viewBox="0 0 579 478" fill="none" xmlns="http://www.w3.org/2000/svg">
<path d="M228.995 135.702L268.668 112.718V22.9834L228.995 45.9667V135.702Z" fill="#F5F4DA"/>
<path d="M228.995 135.702L189.321 112.718V22.9834L228.995 45.9667V135.702Z" fill="#F7F6E8"/>
<path d="M228.995 45.9665L189.321 22.9833L228.995 0L268.668 22.9833L228.995 45.9665Z" fill="#F9F8F6"/>
<path opacity="0.33" d="M495.323 389.706C514.45 352.955 531.992 318.068 550.888 299.109C608.807 240.994 577.483 127.57 454.614 138.709C325.824 150.383 332.175 119.105 245.515 90.6412C97.1033 41.8899 -25.758 135.672 4.6631 263.465C77.1186 567.765 444.252 487.832 495.323 389.706Z" fill="url(#paint0_linear_33255_285491)"/>
<g style="mix-blend-mode:multiply">
<path d="M439.189 429.323L450.291 453.39C450.45 453.735 450.679 454.042 450.963 454.293C451.247 454.544 451.58 454.733 451.941 454.847C452.301 454.962 452.682 455 453.058 454.959C453.434 454.917 453.798 454.798 454.125 454.608L484.546 436.986C485.034 436.703 485.422 436.276 485.657 435.763C485.892 435.25 485.963 434.676 485.86 434.121C485.757 433.566 485.485 433.056 485.081 432.662C484.678 432.269 484.162 432.01 483.606 431.922L442.038 425.469C441.554 425.401 441.06 425.465 440.608 425.655C440.157 425.844 439.765 426.153 439.473 426.547C439.181 426.941 439.001 427.407 438.951 427.896C438.901 428.384 438.983 428.877 439.189 429.323Z" fill="#E8ECF7"/>
</g>
<g style="mix-blend-mode:multiply">
<path d="M526.944 131.053C517.854 125.788 503.11 125.788 494.021 131.053C484.931 136.318 484.924 144.858 494.021 150.123C503.117 155.388 517.854 155.395 526.951 150.123C536.048 144.85 536.04 136.318 526.944 131.053ZM501.778 145.622C496.981 142.845 496.981 138.33 501.778 135.553C506.574 132.776 514.361 132.768 519.172 135.553C523.983 138.338 523.976 142.845 519.172 145.622C514.368 148.4 506.589 148.407 501.785 145.622H501.778Z" fill="#F7F2E8"/>
</g>
<path style="mix-blend-mode:multiply" d="M457.575 228.875H312.464L364.017 258.734L312.464 288.594H457.575V228.875Z" fill="url(#paint1_linear_33255_285491)"/>
<path d="M364.017 133.563L312.464 163.423V288.594L364.017 258.735V133.563Z" fill="#F8F4CE"/>
<path d="M364.017 133.563L312.464 103.703L260.911 133.563L312.464 163.423L364.017 133.563Z" fill="#FFA800"/>
<path d="M324.181 281.807V165.606L321.368 167.232V283.441L324.181 281.807Z" fill="#FFA800"/>
<path d="M334.491 275.836V159.635L331.679 161.262V277.463L334.491 275.836Z" fill="#FFA800"/>
<path d="M344.802 269.866V153.657L341.989 155.284V271.492L344.802 269.866Z" fill="#FFA800"/>
<path d="M355.113 263.895V147.687L352.3 149.313V265.522L355.113 263.895Z" fill="#FFA800"/>
<path d="M260.911 133.563L312.464 163.423V288.594L260.911 258.735V133.563Z" fill="#F9F9EA"/>
<path d="M300.747 281.807V165.606L303.56 167.232V283.441L300.747 281.807Z" fill="#FFA800"/>
<path d="M290.436 275.836V159.635L293.249 161.262V277.463L290.436 275.836Z" fill="#FFA800"/>
<path d="M280.126 269.866V153.657L282.938 155.284V271.492L280.126 269.866Z" fill="#FFA800"/>
<path d="M269.815 263.895L269.823 147.687L272.628 149.313V265.522L269.815 263.895Z" fill="#FFA800"/>
<path d="M353.129 97.8442L312.464 121.399V157.118L353.129 133.563V97.8442Z" fill="#F8F6CE"/>
<path d="M312.464 74.2891L353.129 97.8441L312.464 121.399L271.799 97.8441L312.464 74.2891Z" fill="#FFA800"/>
<path d="M324.033 150.412V123.159L321.228 124.785V152.039L324.033 150.412Z" fill="#FFA800"/>
<path d="M334.203 144.524V117.271L331.39 118.904V146.15L334.203 144.524Z" fill="#FFA800"/>
<path d="M344.365 138.635V111.382L341.56 113.016V140.261L344.365 138.635Z" fill="#FFA800"/>
<path d="M271.799 97.8442L312.464 121.399V157.118L271.799 133.563V97.8442Z" fill="#F9F4EA"/>
<path d="M300.895 150.412V123.159L303.7 124.785V152.039L300.895 150.412Z" fill="#FFA800"/>
<path d="M290.725 144.524V117.271L293.538 118.904V146.15L290.725 144.524Z" fill="#FFA800"/>
<path d="M280.562 138.635V111.382L283.368 113.016V140.261L280.562 138.635Z" fill="#FFA800"/>
<path d="M342.019 71.8906L312.464 89.0074V114.968L342.019 97.8443V71.8906Z" fill="#F7F8CE"/>
<path d="M312.464 54.7661L342.019 71.8903L312.464 89.0071L282.909 71.8903L312.464 54.7661Z" fill="#FFA800"/>
<path d="M320.872 110.097V90.292L318.829 91.4727V111.278L320.872 110.097Z" fill="#FFA800"/>
<path d="M328.267 105.812V86.0073L326.224 87.1955V107L328.267 105.812Z" fill="#FFA800"/>
<path d="M335.653 101.535V81.73L333.611 82.9107V102.716L335.653 101.535Z" fill="#FFA800"/>
<path d="M282.909 71.8906L312.464 89.0074V114.968L282.909 97.8443V71.8906Z" fill="#F9F8EA"/>
<path d="M304.055 110.097V90.292L306.098 91.4727V111.278L304.055 110.097Z" fill="#FFA800"/>
<path d="M296.669 105.812V86.0073L298.704 87.1955V107L296.669 105.812Z" fill="#FFA800"/>
<path d="M289.274 101.535V81.73L291.317 82.9107V102.716L289.274 101.535Z" fill="#FFA800"/>
<path style="mix-blend-mode:multiply" d="M329.288 64.5093H312.464L325.202 71.8907L312.464 79.2646H329.288L342.019 71.8907L329.288 64.5093Z" fill="url(#paint2_linear_33255_285491)"/>
<path d="M325.202 60.4771L312.464 67.851V79.2647L325.202 71.8907V60.4771Z" fill="#CED3F8"/>
<path d="M312.464 53.0952L299.726 60.4766L312.464 67.8506L325.202 60.4766L312.464 53.0952Z" fill="#FFA800"/>
<path d="M299.726 60.4771L312.464 67.851V79.2647L299.726 71.8907V60.4771Z" fill="#EAEEF9"/>
<path style="mix-blend-mode:multiply" d="M321.124 58.1079H312.464L316.616 60.5213L312.464 62.9199H320.968L325.202 60.4768L321.124 58.1079Z" fill="url(#paint3_linear_33255_285491)"/>
<path d="M316.616 53.8306L312.464 56.2366V62.9199L316.616 60.5213V53.8306Z" fill="#CED3F8"/>
<path d="M308.312 53.8306L312.464 56.2366V62.9199L308.312 60.5213V53.8306Z" fill="#EAEEF9"/>
<path d="M312.464 51.4248L316.616 53.8308L312.464 56.2368L308.312 53.8308L312.464 51.4248Z" fill="#FFA800"/>
<path style="mix-blend-mode:multiply" d="M315.602 53.2363H312.464L313.485 53.8304L312.464 54.417H315.602L316.616 53.8304L315.602 53.2363Z" fill="url(#paint4_linear_33255_285491)"/>
<path d="M313.485 31.7163L312.464 32.3104V54.4174L313.485 53.8307V31.7163Z" fill="#FFA800"/>
<path d="M311.442 31.7163L312.464 32.3104V54.4174L311.442 53.8307V31.7163Z" fill="#FFA800"/>
<path d="M312.464 31.1294L313.485 31.716L312.464 32.3101L311.442 31.716L312.464 31.1294Z" fill="#FFA800"/>
<path style="mix-blend-mode:multiply" d="M312.464 157.118H323.004L364.017 133.563L353.129 127.258V133.563L312.464 157.118Z" fill="url(#paint5_linear_33255_285491)"/>
<path style="mix-blend-mode:multiply" d="M312.464 114.968H323.574L353.129 97.8442L341.989 91.3911L342.019 97.8442L312.464 114.968Z" fill="url(#paint6_linear_33255_285491)"/>
<path d="M556.869 168.494C555.97 168.036 554.976 167.798 553.967 167.798C552.959 167.798 551.965 168.036 551.066 168.494C549.467 169.423 549.467 170.93 551.066 171.858C551.965 172.316 552.959 172.555 553.967 172.555C554.976 172.555 555.97 172.316 556.869 171.858C558.475 170.93 558.475 169.423 556.869 168.494Z" fill="white"/>
<path d="M542.672 176.722C541.773 176.265 540.779 176.026 539.771 176.026C538.763 176.026 537.769 176.265 536.869 176.722C535.263 177.651 535.263 179.158 536.869 180.086C537.769 180.544 538.763 180.783 539.771 180.783C540.779 180.783 541.773 180.544 542.672 180.086C544.271 179.158 544.271 177.651 542.672 176.722Z" fill="white"/>
<path d="M528.468 184.95C527.569 184.493 526.575 184.254 525.567 184.254C524.559 184.254 523.564 184.493 522.665 184.95C521.067 185.879 521.067 187.379 522.665 188.307C523.564 188.765 524.559 189.004 525.567 189.004C526.575 189.004 527.569 188.765 528.468 188.307C530.045 187.401 530.045 185.916 528.468 184.95Z" fill="white"/>
<path d="M514.272 193.171C513.373 192.713 512.379 192.474 511.371 192.474C510.362 192.474 509.368 192.713 508.469 193.171C506.863 194.099 506.863 195.606 508.469 196.535C509.368 196.993 510.362 197.231 511.371 197.231C512.379 197.231 513.373 196.993 514.272 196.535C515.871 195.606 515.871 194.084 514.272 193.171Z" fill="white"/>
<path d="M500.068 201.399C499.169 200.941 498.175 200.702 497.166 200.702C496.158 200.702 495.164 200.941 494.265 201.399C492.666 202.327 492.666 203.834 494.265 204.763C495.164 205.221 496.158 205.459 497.166 205.459C498.175 205.459 499.169 205.221 500.068 204.763C501.674 203.834 501.674 202.327 500.068 201.399Z" fill="white"/>
<path d="M222.451 238.046L262.732 214.713V123.627L222.451 146.959V238.046Z" fill="#F5F2DA"/>
<path d="M222.452 238.046L182.179 214.713V123.627L222.452 146.959V238.046Z" fill="#F7F6E8"/>
<path d="M222.452 146.959L182.179 123.627L222.452 100.302L262.732 123.627L222.452 146.959Z" fill="white"/>
<path style="mix-blend-mode:multiply" d="M485.583 234.57H466.138L504.309 256.677L466.138 278.792H485.583L523.753 256.677L485.583 234.57Z" fill="url(#paint7_linear_33255_285491)"/>
<path d="M466.138 264.17L427.975 242.063L466.146 219.956L504.309 242.063L466.138 264.17Z" fill="#FFA800"/>
<path d="M466.146 256.462L441.283 242.063L466.146 227.664L491.001 242.063L466.146 256.462Z" fill="#FFA800"/>
<path d="M466.138 278.792L427.975 256.685V242.063L466.138 264.17V278.792Z" fill="#FFA800"/>
<path d="M444.533 256.039L449.581 258.965V264.817L444.533 261.891V256.039Z" fill="#FFA800"/>
<path d="M434.111 250.001L439.167 252.927V258.779L434.111 255.853V250.001Z" fill="#FFA800"/>
<path d="M460.002 265.002L454.947 262.069V267.928L460.002 270.854V265.002Z" fill="#FFA800"/>
<path d="M466.138 278.792L504.309 256.685V242.063L466.138 264.17V278.792Z" fill="#FFA800"/>
<path d="M487.752 256.039L482.696 258.965V264.817L487.752 261.891V256.039Z" fill="#FFA800"/>
<path d="M498.173 250.001L493.118 252.927V258.779L498.173 255.853V250.001Z" fill="#FFA800"/>
<path d="M472.282 265.002L477.33 262.069V267.928L472.282 270.854V265.002Z" fill="#FFA800"/>
<path d="M215.716 338.34C212.614 340.137 212.614 343.078 215.716 344.875L228.95 352.539C232.059 354.336 232.059 357.276 228.95 359.073L188.47 382.517C185.369 384.314 185.369 387.255 188.47 389.052L211.171 402.203C212.92 403.09 214.852 403.551 216.811 403.551C218.771 403.551 220.702 403.09 222.451 402.203L314.692 348.737C317.793 346.939 317.793 343.999 314.692 342.202L267.469 314.852C265.72 313.966 263.788 313.504 261.829 313.504C259.869 313.504 257.937 313.966 256.188 314.852L215.716 338.34Z" fill="#FFA800"/>
<path d="M223.65 282.817L320.472 338.89C326.779 342.536 326.779 348.462 320.472 352.115L200.564 421.548L221.719 433.801L341.627 364.368C359.613 353.972 359.613 337.056 341.627 326.637L244.805 270.571L223.65 282.817Z" fill="url(#paint8_radial_33255_285491)"/>
<path d="M330.783 357.655L332.471 358.635C338.104 355.123 341.205 350.526 341.205 345.618C341.205 340.709 338.104 336.12 332.471 332.607L330.783 333.588C336.401 336.84 339.495 341.11 339.495 345.618C339.495 350.125 336.401 354.403 330.783 357.655Z" fill="white"/>
<path d="M320.435 325.635L328.022 330.031L326.327 331.004L318.74 326.615L320.435 325.635Z" fill="white"/>
<path d="M308.4 318.662L315.987 323.058L314.292 324.038L306.713 319.642L308.4 318.662Z" fill="white"/>
<path d="M296.365 311.689L303.952 316.085L302.264 317.065L294.677 312.669L296.365 311.689Z" fill="white"/>
<path d="M284.33 304.723L291.917 309.112L290.229 310.092L282.642 305.696L284.33 304.723Z" fill="white"/>
<path d="M272.302 297.75L279.882 302.139L278.194 303.119L270.607 298.723L272.302 297.75Z" fill="white"/>
<path d="M260.267 290.777L267.846 295.166L266.159 296.146L258.572 291.758L260.267 290.777Z" fill="white"/>
<path d="M248.232 283.804L255.819 288.2L254.124 289.181L246.544 284.784L248.232 283.804Z" fill="white"/>
<path d="M236.196 276.832L243.783 281.228L242.088 282.208L234.509 277.812L236.196 276.832Z" fill="white"/>
<path d="M320.435 365.608L328.022 361.212L326.327 360.239L318.74 364.628L320.435 365.608Z" fill="white"/>
<path d="M308.4 372.581L315.987 368.185L314.292 367.205L306.713 371.601L308.4 372.581Z" fill="white"/>
<path d="M296.365 379.555L303.952 375.158L302.257 374.178L294.677 378.574L296.365 379.555Z" fill="white"/>
<path d="M284.33 386.52L291.917 382.131L290.229 381.151L282.642 385.547L284.33 386.52Z" fill="white"/>
<path d="M272.295 393.493L279.882 389.104L278.194 388.124L270.607 392.513L272.295 393.493Z" fill="white"/>
<path d="M260.267 400.466L267.846 396.07L266.159 395.089L258.572 399.486L260.267 400.466Z" fill="white"/>
<path d="M248.232 407.439L255.811 403.043L254.123 402.062L246.537 406.459L248.232 407.439Z" fill="white"/>
<path d="M236.196 414.412L243.783 410.015L242.088 409.035L234.509 413.431L236.196 414.412Z" fill="white"/>
<path style="mix-blend-mode:multiply" d="M265.811 317.021H264.582L261.444 318.847H259.097V319.337H261.185L269.023 323.882H267.794V324.38H269.882L270.008 324.454H271.236L274.937 322.308L265.811 317.021Z" fill="url(#paint9_linear_33255_285491)"/>
<path d="M268.224 324.127L267.794 324.38V321.959L268.224 321.714V324.127Z" fill="#FFA800"/>
<path d="M267.365 324.127L267.795 324.38V321.959L267.365 321.714V324.127Z" fill="#FFA800"/>
<path d="M269.652 322.806L270.082 323.051V320.637L269.652 320.385V322.806Z" fill="#FFA800"/>
<path d="M270.082 323.051L270.511 322.806V320.385L270.082 320.637V323.051Z" fill="#FFA800"/>
<path d="M259.527 319.092L259.097 319.337V316.924L259.527 316.671V319.092Z" fill="#FFA800"/>
<path d="M258.668 319.092L259.098 319.337V316.924L258.668 316.671V319.092Z" fill="#FFA800"/>
<path d="M267.299 321.535L258.18 316.248L261.881 314.109L270.999 319.389L267.299 321.535Z" fill="#FFA800"/>
<path d="M270.999 318.996L261.88 313.716L262.48 310.278L271.606 315.565L270.999 318.996Z" fill="#FFA800"/>
<path d="M271.606 315.565L262.48 310.278L263.08 310.085L272.206 315.372L271.606 315.565Z" fill="#FFA800"/>
<path d="M267.299 322.248L258.18 316.961V316.248L267.299 321.535V322.248Z" fill="#FFA800"/>
<path d="M270.999 320.103L267.299 322.249V321.536L270.999 319.39V320.103Z" fill="#FFA800"/>
<path d="M272.206 315.372L271.599 318.81L271 318.996L271.606 315.565L272.206 315.372Z" fill="#FFA800"/>
<path style="mix-blend-mode:multiply" d="M278.867 324.588H277.646L274.5 326.407H272.154V326.905H274.241L282.08 331.442H280.851V331.94H282.938L283.064 332.014H284.293L287.994 329.875L278.867 324.588Z" fill="url(#paint10_linear_33255_285491)"/>
<path d="M281.28 331.694L280.851 331.939V329.526L281.28 329.281V331.694Z" fill="#FFA800"/>
<path d="M280.422 331.694L280.851 331.939V329.526L280.422 329.281V331.694Z" fill="#FFA800"/>
<path d="M282.716 330.365L283.138 330.618V328.197L282.716 327.952V330.365Z" fill="#FFA800"/>
<path d="M283.138 330.618L283.567 330.365V327.952L283.138 328.197V330.618Z" fill="#FFA800"/>
<path d="M272.583 326.652L272.154 326.905V324.484L272.583 324.239V326.652Z" fill="#FFA800"/>
<path d="M271.725 326.652L272.154 326.905V324.484L271.725 324.239V326.652Z" fill="#FFA800"/>
<path d="M280.363 329.103L271.236 323.816L274.937 321.669L284.064 326.957L280.363 329.103Z" fill="#FFA800"/>
<path d="M284.063 326.563L274.937 321.276L275.537 317.837L284.663 323.125L284.063 326.563Z" fill="#FFA800"/>
<path d="M284.663 323.125L275.537 317.838L276.136 317.652L285.262 322.939L284.663 323.125Z" fill="#FFA800"/>
<path d="M280.363 329.808L271.236 324.521V323.815L280.363 329.103V329.808Z" fill="#FFA800"/>
<path d="M284.063 327.669L280.363 329.808V329.103L284.063 326.957V327.669Z" fill="#FFA800"/>
<path d="M285.263 322.939L284.656 326.37L284.063 326.563L284.663 323.125L285.263 322.939Z" fill="#FFA800"/>
<path style="mix-blend-mode:multiply" d="M477.892 345.878L254.412 475.327V473.396L477.892 343.947V345.878Z" fill="url(#paint11_linear_33255_285491)"/>
<path d="M477.892 343.947L254.412 473.396L236.789 463.193L460.269 333.744L477.892 343.947Z" fill="url(#paint12_linear_33255_285491)"/>
<path d="M465.346 336.684L241.866 466.133L240.615 465.405L464.103 335.957L465.346 336.684Z" fill="url(#paint13_linear_33255_285491)"/>
<path d="M472.815 341.006L249.334 470.455L250.578 471.176L474.066 341.727L472.815 341.006Z" fill="url(#paint14_linear_33255_285491)"/>
<path style="mix-blend-mode:multiply" d="M222.703 265.804H154.992L153.948 265.195H133.105L174.54 289.195L133.105 313.196H153.948L154.992 312.595H222.703V265.804Z" fill="url(#paint15_linear_33255_285491)"/>
<path style="mix-blend-mode:multiply" d="M331.997 338.125V278.161H204.066L255.826 308.147L204.066 338.125H331.997Z" fill="url(#paint16_linear_33255_285491)"/>
<path d="M204.066 216.005L255.826 186.02V305.941L204.066 335.927V216.005Z" fill="#FFA800"/>
<path d="M204.066 216.005L152.305 186.02V305.941L204.066 335.927V216.005Z" fill="#FFA800"/>
<path d="M255.826 183.822L204.066 153.843L152.305 183.822L204.066 213.808L255.826 183.822Z" fill="#F6F6F1"/>
<path d="M204.066 216.006L152.305 186.02V183.822L204.066 213.808V216.006Z" fill="#F8EFCE"/>
<path d="M204.066 216.006L255.826 186.02V183.822L204.066 213.808V216.006Z" fill="#E6DABB"/>
<path d="M204.066 338.125L152.305 308.146V303.906L204.066 333.885V338.125Z" fill="#FFA800"/>
<path d="M204.066 338.125L255.826 308.146V303.906L204.066 333.885V338.125Z" fill="#FFA800"/>
<g style="mix-blend-mode:multiply">
<path d="M247.477 183.821L204.066 208.966H210.513L253.924 183.821H247.477Z" fill="url(#paint17_linear_33255_285491)"/>
<path d="M204.066 158.677L247.477 183.821H253.924L210.513 158.677H204.066Z" fill="url(#paint18_linear_33255_285491)"/>
</g>
<path d="M204.066 154.942L247.477 180.087L204.066 205.231L160.662 180.087L204.066 154.942Z" fill="white"/>
<path d="M247.477 180.086L204.066 205.231V208.966L247.477 183.822V180.086Z" fill="#E6E2BB"/>
<path d="M160.655 180.086L204.066 205.231V208.966L160.655 183.822V180.086Z" fill="#F8EFCE"/>
<path d="M153.475 207.971L204.066 237.274V234.593L153.475 205.29V207.971Z" fill="#FFA800"/>
<path d="M153.475 227.828L204.066 257.138V254.45L153.475 225.147V227.828Z" fill="#FFA800"/>
<path d="M153.475 247.685L204.066 276.995V274.314L153.475 245.004V247.685Z" fill="#FFA800"/>
<path d="M153.475 267.549L204.066 296.852V294.171L153.475 264.868V267.549Z" fill="#FFA800"/>
<path d="M153.475 287.406L204.066 316.709V314.028L153.475 284.725V287.406Z" fill="#FFA800"/>
<path d="M164.104 192.859L166.398 194.188V312.067L164.104 310.738V192.859Z" fill="#FFA800"/>
<path d="M177.042 200.352L179.337 201.681V319.56L177.042 318.238V200.352Z" fill="#FFA800"/>
<path d="M189.98 207.845L192.275 209.174V327.061L189.98 325.731V207.845Z" fill="#FFA800"/>
<path d="M254.664 207.971L204.066 237.274V234.593L254.664 205.29V207.971Z" fill="#FFA800"/>
<path d="M254.664 227.828L204.066 257.138V254.45L254.664 225.147V227.828Z" fill="#FFA800"/>
<path d="M254.664 247.685L204.066 276.995V274.314L254.664 245.004V247.685Z" fill="#FFA800"/>
<path d="M254.664 267.549L204.066 296.852V294.171L254.664 264.868V267.549Z" fill="#FFA800"/>
<path d="M254.664 287.406L204.066 316.709V314.028L254.664 284.725V287.406Z" fill="#FFA800"/>
<path d="M244.035 192.859L241.74 194.188V312.067L244.035 310.738V192.859Z" fill="#FFA800"/>
<path d="M231.097 200.352L228.802 201.681V319.56L231.097 318.238V200.352Z" fill="#FFA800"/>
<path d="M218.158 207.845L215.856 209.174V327.061L218.158 325.731V207.845Z" fill="#FFA800"/>
<path style="mix-blend-mode:multiply" d="M274.012 338.125H175.229L211.786 359.296L175.229 380.468H274.012L310.562 359.296L274.012 338.125Z" fill="url(#paint19_linear_33255_285491)"/>
<path d="M211.786 359.296L175.229 380.468V323.251L211.786 302.08V359.296Z" fill="#E6E2BB"/>
<path d="M202.94 312.112L206.686 309.944V316.88L202.94 319.048V312.112Z" fill="#FFA800"/>
<path d="M195.406 316.478L199.151 314.31V321.246L195.406 323.414V316.478Z" fill="#FFA800"/>
<path d="M187.863 320.845L191.609 318.677V325.613L187.863 327.781V320.845Z" fill="#FFA800"/>
<path d="M180.328 325.211L184.074 323.043V329.979L180.328 332.155V325.211Z" fill="#FFA800"/>
<path d="M202.94 324.469L206.686 322.293V329.236L202.94 331.405V324.469Z" fill="#F8F4CE"/>
<path d="M195.406 328.835L199.151 326.66V333.595L195.406 335.771V328.835Z" fill="#FFA800"/>
<path d="M187.863 333.202L191.609 331.026V337.969L187.863 340.138V333.202Z" fill="#FFA800"/>
<path d="M180.328 337.568L184.074 335.393V342.336L180.328 344.504V337.568Z" fill="#FFA800"/>
<path d="M202.94 336.818L206.686 334.65V341.586L202.94 343.754V336.818Z" fill="#FFA800"/>
<path d="M195.406 341.184L199.151 339.016V345.952L195.406 348.12V341.184Z" fill="#CED3F8"/>
<path d="M187.863 345.551L191.609 343.383V350.319L187.863 352.487V345.551Z" fill="#FFA800"/>
<path d="M180.328 349.917L184.074 347.749V354.685L180.328 356.853V349.917Z" fill="#FFA800"/>
<path d="M202.94 349.167L206.686 346.999V353.935L202.94 356.103V349.167Z" fill="#FFA800"/>
<path d="M195.406 353.534L199.151 351.366V358.302L195.406 360.47V353.534Z" fill="#FFA800"/>
<path d="M187.863 357.9L191.609 355.732V362.668L187.863 364.836V357.9Z" fill="#CED3F8"/>
<path d="M180.328 362.267L184.074 360.099V367.034L180.328 369.203V362.267Z" fill="#FFA800"/>
<path d="M213.592 302.079L175.229 324.298V313.129L213.592 290.903V302.079Z" fill="#E6DDBB"/>
<path d="M136.865 302.079L175.228 324.298V313.129L136.865 290.903V302.079Z" fill="#CED3F8"/>
<g style="mix-blend-mode:multiply">
<path d="M138.679 305.013L175.228 326.288V324.298L138.679 303.03V305.013Z" fill="#DAE0F5"/>
</g>
<g style="mix-blend-mode:multiply">
<path d="M211.786 305.013L175.229 326.288V324.298L211.786 303.03V305.013Z" fill="#F3EED1"/>
</g>
<path d="M213.592 290.903L175.228 268.685L136.865 290.903L175.228 313.129L213.592 290.903Z" fill="#FBFAF6"/>
<path d="M206.146 290.903L175.229 273L144.312 290.903L175.229 308.815L206.146 290.903Z" fill="#F6F6F1"/>
<path d="M146.073 291.921L175.229 275.034V273L144.312 290.903L146.073 291.921Z" fill="#BBC0E6"/>
<path d="M204.384 291.921L175.229 275.034V273L206.146 290.903L204.384 291.921Z" fill="#F8EFCE"/>
<path style="mix-blend-mode:multiply" d="M312.464 265.871L268.823 240.593V263.324L312.464 288.594V265.871Z" fill="url(#paint20_linear_33255_285491)"/>
<path style="mix-blend-mode:multiply" d="M312.257 157.177H322.841L364.017 133.526L353.085 127.191V133.526L312.257 157.177Z" fill="url(#paint21_linear_33255_285491)"/>
<path style="mix-blend-mode:multiply" d="M383.831 282.327H356.948L374.009 292.211L356.948 302.094H383.831L400.892 292.211L383.831 282.327Z" fill="url(#paint22_linear_33255_285491)"/>
<path d="M356.948 302.095L374.009 292.211V272.443L356.948 282.327V302.095Z" fill="#E6E2BB"/>
<path d="M356.948 302.095L339.887 292.211V272.443L356.948 282.327V302.095Z" fill="#F8F1CE"/>
<path d="M356.948 282.327L339.887 272.443L356.948 262.566L374.009 272.443L356.948 282.327Z" fill="#F6F6F1"/>
<path style="mix-blend-mode:multiply" d="M350.472 298.345V278.577L339.887 272.443V292.211L350.472 298.345Z" fill="url(#paint23_linear_33255_285491)"/>
<path style="mix-blend-mode:multiply" d="M491.852 294.52H414.001L412.535 293.666H402.195L445.14 318.543L402.195 343.42H412.535L414.001 342.573L491.852 342.566V294.52Z" fill="url(#paint24_linear_33255_285491)"/>
<path d="M445.14 312.558L402.195 337.434V343.42L445.14 318.543V312.558Z" fill="#E6E4BB"/>
<path d="M359.243 312.558L402.195 337.434V343.42L359.243 318.543V312.558Z" fill="#F8EFCE"/>
<path d="M402.195 287.681L445.14 312.558L402.195 337.434L359.243 312.558L402.195 287.681Z" fill="#F6F4F0"/>
<path d="M441.927 210.288L402.188 233.301V335.571L441.92 312.558L441.927 210.288Z" fill="#E6DFBB"/>
<path d="M436.835 224.122L407.28 241.239V244.506L436.835 227.389V224.122Z" fill="#FFA800"/>
<path d="M436.835 230.657L407.28 247.774V251.041L436.835 233.924V230.657Z" fill="#FFA800"/>
<path d="M436.828 237.192L407.28 254.309V257.576L436.835 240.459L436.828 237.192Z" fill="#FFA800"/>
<path d="M436.835 243.727L407.28 260.843V264.111L436.835 246.994V243.727Z" fill="#FFA800"/>
<path d="M436.835 250.261L407.28 267.378V270.645L436.835 253.521V250.261Z" fill="#FFA800"/>
<path d="M436.828 256.796L407.28 273.913V277.173L436.828 260.056V256.796Z" fill="#FFA800"/>
<path d="M436.835 263.324L407.28 280.441V283.708L436.835 266.591V263.324Z" fill="#FFA800"/>
<path d="M436.835 269.858L407.28 286.975V290.243L436.835 273.126V269.858Z" fill="#FFA800"/>
<path d="M436.835 276.394L407.28 293.51V296.778L436.828 279.661L436.835 276.394Z" fill="#FFA800"/>
<path d="M436.828 282.928L407.28 300.045V303.312L436.835 286.196L436.828 282.928Z" fill="#FFA800"/>
<path d="M436.835 289.463L407.28 306.58V309.847L436.835 292.73V289.463Z" fill="#FFA800"/>
<path d="M436.835 295.998L407.28 313.114V316.382L436.835 299.265V295.998Z" fill="#FFA800"/>
<path d="M436.835 302.525L407.28 319.642V322.917L436.828 305.8L436.835 302.525Z" fill="#FFA800"/>
<path d="M436.835 309.06L407.28 326.177V329.444L436.835 312.327V309.06Z" fill="#FFA800"/>
<path d="M362.455 210.288L402.188 233.301L402.195 335.571L362.455 312.558V210.288Z" fill="#F8F4CE"/>
<path d="M367.548 224.122L397.103 241.239V244.506L367.548 227.389V224.122Z" fill="#FFA800"/>
<path d="M367.548 230.657L397.103 247.774V251.041L367.548 233.924V230.657Z" fill="#FFA800"/>
<path d="M367.548 237.192L397.103 254.309V257.576L367.548 240.459V237.192Z" fill="#FFA800"/>
<path d="M367.548 243.727L397.103 260.843V264.111L367.548 246.994V243.727Z" fill="#FFA800"/>
<path d="M367.548 250.261L397.103 267.378V270.645L367.548 253.521V250.261Z" fill="#FFA800"/>
<path d="M367.548 256.796L397.103 273.913V277.173L367.548 260.056V256.796Z" fill="#FFA800"/>
<path d="M367.548 263.324L397.103 280.441V283.708L367.548 266.591V263.324Z" fill="#FFA800"/>
<path d="M367.548 269.858L397.103 286.975V290.243L367.548 273.126V269.858Z" fill="#FFA800"/>
<path d="M367.548 276.394L397.103 293.51V296.778L367.548 279.661V276.394Z" fill="#FFA800"/>
<path d="M367.548 282.928L397.103 300.045V303.312L367.548 286.196V282.928Z" fill="#FFA800"/>
<path d="M367.548 289.463L397.103 306.58V309.847L367.548 292.73V289.463Z" fill="#FFA800"/>
<path d="M367.548 295.998L397.103 313.114V316.382L367.548 299.265V295.998Z" fill="#FFA800"/>
<path d="M367.548 302.525L397.103 319.642V322.917L367.548 305.8V302.525Z" fill="#FFA800"/>
<path d="M367.548 309.06L397.103 326.177V329.444L367.548 312.327V309.06Z" fill="#FFA800"/>
<path d="M448.508 206.552L402.188 233.375V237.11L448.508 210.287V206.552Z" fill="#FFA800"/>
<path d="M355.875 206.552L402.188 233.375V237.11L355.875 210.287V206.552Z" fill="#FFA800"/>
<g style="mix-blend-mode:multiply">
<path d="M362.455 214.097L402.188 237.11V239.375L362.455 216.362V214.097Z" fill="#F5F1DA"/>
</g>
<g style="mix-blend-mode:multiply">
<path d="M441.928 214.097L402.195 237.11V239.375L441.928 216.362V214.097Z" fill="#F3F0D1"/>
</g>
<path d="M402.195 179.723L448.508 206.553L402.188 233.375L355.875 206.553L402.195 179.723Z" fill="#FBFBF6"/>
<path d="M402.195 183.532L441.927 206.553L402.188 229.566L362.455 206.553L402.195 183.532Z" fill="#F1F1F6"/>
<path d="M363.958 207.421L402.195 185.27V183.532L362.455 206.553L363.958 207.421Z" fill="#E6DABB"/>
<path style="mix-blend-mode:multiply" d="M365.453 208.29L403.69 186.138L402.195 185.27L363.958 207.421L365.453 208.29Z" fill="url(#paint25_linear_33255_285491)"/>
<path d="M440.425 207.421L402.195 185.27V183.532L441.928 206.553L440.425 207.421Z" fill="#F8EFCE"/>
<path d="M434.274 201.265L423.845 195.228L415.984 199.78L426.413 205.817L434.274 201.265Z" fill="white"/>
<path d="M426.413 205.817L415.984 199.78V203.879L426.413 209.916V205.817Z" fill="#FFA800"/>
<path d="M426.413 205.817L434.274 201.265V205.364L426.413 209.916V205.817Z" fill="#FFA800"/>
<path style="mix-blend-mode:multiply" d="M433.482 209.916L439.107 206.656V204.919L434.274 202.119L434.267 205.364L426.413 209.916H433.482Z" fill="url(#paint26_linear_33255_285491)"/>
<path d="M402.195 335.571H405.407L445.14 312.558L441.92 310.694V312.558L402.195 335.571Z" fill="url(#paint27_linear_33255_285491)"/>
<path style="mix-blend-mode:multiply" d="M255.826 115.429C246.744 116.476 237.929 118.399 231.978 120.761L219.224 122.602L221.171 123.731L225.264 124.904C225.014 125.198 224.859 125.563 224.822 125.948C224.785 126.333 224.867 126.721 225.057 127.058C225.449 127.711 228.758 129.657 229.69 130.028C232.533 131.105 237.373 131.751 243.843 131.751C247.706 131.751 251.777 131.521 255.826 131.112V115.429Z" fill="url(#paint28_linear_33255_285491)"/>
<path d="M216.049 118.882L217.996 120.018L221.171 123.731L219.217 122.602L216.049 118.882Z" fill="url(#paint29_linear_33255_285491)"/>
<path d="M234.997 94.5766C234.997 85.7249 228.81 82.1456 221.171 86.5641C213.532 90.9825 207.33 101.75 207.33 110.602C207.33 118.176 211.875 121.889 217.981 120.018L221.149 123.731L224.324 116.305C230.453 111.144 234.997 102.159 234.997 94.5766Z" fill="#FFA800"/>
<path d="M207.33 110.602C207.33 101.75 213.518 90.9975 221.149 86.5717C224.85 84.4256 228.225 84.1731 230.704 85.4875L229.187 84.6038C226.671 83.0147 223.132 83.1632 219.202 85.443C211.564 89.8985 205.376 100.622 205.376 109.466C205.376 113.758 206.856 116.803 209.195 118.303L211.149 119.439C208.81 117.931 207.33 114.887 207.33 110.602Z" fill="url(#paint30_linear_33255_285491)"/>
<path d="M221.171 92.4899C222.4 91.7473 223.391 92.3562 223.391 93.7671C223.352 94.5379 223.129 95.2881 222.743 95.9557C222.357 96.6233 221.818 97.1891 221.171 97.6064C219.95 98.349 218.95 97.7474 218.95 96.3365C218.992 95.5651 219.215 94.8146 219.601 94.1461C219.987 93.4776 220.525 92.9101 221.171 92.4899Z" fill="white"/>
<path d="M218.247 104.037V101.936L224.117 98.5347V100.636L222.859 101.364V109.391L224.117 108.664V110.765L218.247 114.166V112.065L219.498 111.337V103.31L218.247 104.037Z" fill="white"/>
<path style="mix-blend-mode:multiply" d="M298.763 347.913L303.115 350.437L298.763 352.962H309.451V347.913H298.763Z" fill="url(#paint31_linear_33255_285491)"/>
<path d="M294.404 344.927L298.763 342.41L303.115 344.927L298.763 347.452L294.404 344.927Z" fill="#F5F5FA"/>
<path d="M295.403 344.927L298.763 342.981L302.116 344.927L298.763 346.873L295.403 344.927Z" fill="#FFA800"/>
<path d="M298.763 352.962L294.404 350.437V344.927L298.763 347.452V352.962Z" fill="#CED3F8"/>
<path d="M298.763 352.962L303.115 350.437V344.927L298.763 347.452V352.962Z" fill="#BBC0E6"/>
<path style="mix-blend-mode:multiply" d="M302.375 344.497H298.763V345.306H302.457L303.115 344.927L302.375 344.497Z" fill="url(#paint32_linear_33255_285491)"/>
<path d="M298.104 335.422L298.763 335.801V345.306L298.104 344.927V335.422Z" fill="#FFA800"/>
<path d="M299.415 335.422L298.763 335.801V345.306L299.415 344.927V335.422Z" fill="#FFA800"/>
<path d="M290.347 331.048C290.347 328.809 291.234 326.661 292.812 325.078C294.391 323.495 296.531 322.605 298.763 322.605C300.995 322.605 303.136 323.495 304.714 325.078C306.292 326.661 307.179 328.809 307.179 331.048C307.179 332.157 306.961 333.255 306.538 334.279C306.115 335.304 305.496 336.235 304.714 337.019C303.933 337.803 303.005 338.425 301.984 338.849C300.963 339.273 299.868 339.492 298.763 339.492C297.658 339.492 296.564 339.273 295.543 338.849C294.522 338.425 293.594 337.803 292.812 337.019C292.031 336.235 291.411 335.304 290.988 334.279C290.565 333.255 290.347 332.157 290.347 331.048Z" fill="url(#paint33_radial_33255_285491)"/>
<path style="mix-blend-mode:multiply" d="M279.704 358.955L284.056 361.48L279.704 364.005H290.392V358.955H279.704Z" fill="url(#paint34_linear_33255_285491)"/>
<path d="M275.344 355.97L279.696 353.445L284.056 355.97L279.696 358.494L275.344 355.97Z" fill="#F5F5FA"/>
<path d="M276.344 355.97L279.696 354.024L283.057 355.97L279.696 357.915L276.344 355.97Z" fill="#FFA800"/>
<path d="M279.704 364.005L275.344 361.48V355.97L279.704 358.495V364.005Z" fill="#CED3F8"/>
<path d="M279.704 364.005L284.056 361.48V355.97L279.704 358.495V364.005Z" fill="#BBC0E6"/>
<path style="mix-blend-mode:multiply" d="M283.316 355.539H279.704V356.348H283.397L284.056 355.97L283.316 355.539Z" fill="url(#paint35_linear_33255_285491)"/>
<path d="M279.045 346.464L279.704 346.843V356.348L279.045 355.97V346.464Z" fill="#FFA800"/>
<path d="M280.355 346.464L279.704 346.843V356.348L280.355 355.97V346.464Z" fill="#FFA800"/>
<path d="M271.288 342.091C271.288 340.982 271.506 339.884 271.929 338.86C272.352 337.835 272.972 336.904 273.753 336.12C274.534 335.336 275.462 334.714 276.483 334.29C277.504 333.866 278.599 333.647 279.704 333.647C280.809 333.647 281.903 333.866 282.924 334.29C283.945 334.714 284.873 335.336 285.655 336.12C286.436 336.904 287.056 337.835 287.479 338.86C287.902 339.884 288.12 340.982 288.12 342.091C288.12 344.33 287.233 346.478 285.655 348.061C284.076 349.644 281.936 350.534 279.704 350.534C277.472 350.534 275.331 349.644 273.753 348.061C272.175 346.478 271.288 344.33 271.288 342.091Z" fill="url(#paint36_radial_33255_285491)"/>
<path style="mix-blend-mode:multiply" d="M260.637 369.997L264.997 372.522L260.637 375.039H271.332V369.997H260.637Z" fill="url(#paint37_linear_33255_285491)"/>
<path d="M256.285 367.012L260.637 364.487L264.996 367.012L260.637 369.53L256.285 367.012Z" fill="#F5F5FA"/>
<path d="M257.284 367.012L260.637 365.066L263.997 367.012L260.637 368.958L257.284 367.012Z" fill="#FFA800"/>
<path d="M260.637 375.039L256.285 372.522V367.012L260.637 369.529V375.039Z" fill="#CED3F8"/>
<path d="M260.637 375.039L264.997 372.522V367.012L260.637 369.529V375.039Z" fill="#BBC0E6"/>
<path style="mix-blend-mode:multiply" d="M264.256 366.581H260.637V367.39H264.338L264.997 367.012L264.256 366.581Z" fill="url(#paint38_linear_33255_285491)"/>
<path d="M259.986 357.507L260.637 357.886V367.391L259.986 367.012V357.507Z" fill="#FFA800"/>
<path d="M261.296 357.507L260.637 357.886V367.391L261.296 367.012V357.507Z" fill="#FFA800"/>
<path d="M252.229 353.133C252.229 350.897 253.112 348.752 254.685 347.168C256.258 345.584 258.393 344.69 260.622 344.682C262.855 344.684 264.995 345.575 266.573 347.16C268.151 348.745 269.038 350.893 269.038 353.133C269.038 355.372 268.151 357.52 266.573 359.103C264.995 360.687 262.854 361.576 260.622 361.576C258.394 361.57 256.259 360.678 254.686 359.095C253.112 357.513 252.229 355.368 252.229 353.133Z" fill="url(#paint39_radial_33255_285491)"/>
<path style="mix-blend-mode:multiply" d="M241.578 381.04L245.937 383.557L241.578 386.082H252.266V381.04H241.578Z" fill="url(#paint40_linear_33255_285491)"/>
<path d="M237.225 378.054L241.578 375.529L245.937 378.054L241.578 380.571L237.225 378.054Z" fill="#F5F5FA"/>
<path d="M238.225 378.054L241.578 376.109L244.938 378.054L241.578 379.993L238.225 378.054Z" fill="#FFA800"/>
<path d="M241.578 386.082L237.225 383.557V378.054L241.578 380.572V386.082Z" fill="#CED3F8"/>
<path d="M241.578 386.082L245.937 383.557V378.054L241.578 380.572V386.082Z" fill="#BBC0E6"/>
<path style="mix-blend-mode:multiply" d="M245.19 377.624H241.578V378.426H245.278L245.937 378.054L245.19 377.624Z" fill="url(#paint41_linear_33255_285491)"/>
<path d="M240.926 368.542L241.578 368.921V378.426L240.926 378.055V368.542Z" fill="#FFA800"/>
<path d="M242.236 368.542L241.578 368.921V378.426L242.236 378.055V368.542Z" fill="#FFA800"/>
<path d="M233.169 364.138C233.169 361.899 234.056 359.751 235.634 358.168C237.212 356.584 239.353 355.695 241.585 355.695C243.817 355.695 245.958 356.584 247.536 358.168C249.114 359.751 250.001 361.899 250.001 364.138C250.001 366.377 249.114 368.525 247.536 370.108C245.958 371.692 243.817 372.581 241.585 372.581C239.353 372.581 237.212 371.692 235.634 370.108C234.056 368.525 233.169 366.377 233.169 364.138Z" fill="url(#paint42_radial_33255_285491)"/>
<g style="mix-blend-mode:multiply">
<path d="M278.135 307.753H274.597V308.822H278.135V307.753Z" fill="#E7E8C4"/>
</g>
<g style="mix-blend-mode:multiply">
<path d="M295.129 317.592H291.591V318.662H295.129V317.592Z" fill="#E8E4C4"/>
</g>
<path style="mix-blend-mode:multiply" d="M315.469 312.877L310.717 310.129L314.906 307.701L304.603 301.738V301.731L299.089 301.122L296.328 306.528L292.472 308.763L302.767 314.726V315.818L295.714 319.909H303.337L315.469 312.877Z" fill="url(#paint43_linear_33255_285491)"/>
<path style="mix-blend-mode:multiply" d="M513.31 328.39L504.279 323.154C502.987 322.499 501.56 322.158 500.112 322.158C498.665 322.158 497.237 322.499 495.945 323.154L482.911 330.721L489.38 334.434L468.233 346.68L457.249 351.38L458.685 352.212L431.239 368.111L420.255 372.812L421.691 373.643L394.245 389.535L383.261 394.235L384.697 395.067L357.259 410.966L346.268 415.667L347.703 416.498L322.908 430.86C315.78 432.627 303.493 435.739 298.97 437.365C308.674 441.954 335.239 436.326 341.9 432.486L369.501 416.498L368.502 415.919H370.501L406.495 395.067L405.496 394.488H407.495L443.489 373.643L442.49 373.064H444.488L480.453 352.257L479.454 351.677H481.453L513.28 333.246C515.612 331.88 515.612 329.719 513.31 328.39Z" fill="url(#paint44_linear_33255_285491)"/>
<path style="mix-blend-mode:multiply" d="M271.762 442.237H252.332V444.977H271.762V442.237Z" fill="url(#paint45_linear_33255_285491)"/>
<path style="mix-blend-mode:multiply" d="M344.299 400.221H324.869V402.961H344.299V400.221Z" fill="url(#paint46_linear_33255_285491)"/>
<path style="mix-blend-mode:multiply" d="M416.836 358.205H397.406V360.945H416.836V358.205Z" fill="url(#paint47_linear_33255_285491)"/>
<path style="mix-blend-mode:multiply" d="M489.372 316.189H469.943V318.929H489.372V316.189Z" fill="url(#paint48_linear_33255_285491)"/>
<path d="M459.684 343.271V351.648L446.975 344.289V335.92C446.975 333.105 448.685 331.806 450.795 333.031L455.865 335.964C457.974 337.175 459.684 340.449 459.684 343.271Z" fill="#FFA800"/>
<path d="M491.859 315.127L486.789 312.157C486.424 311.895 485.992 311.74 485.544 311.71C485.096 311.679 484.648 311.775 484.25 311.986L448.256 332.838C448.653 332.63 449.1 332.536 449.547 332.567C449.994 332.599 450.423 332.754 450.787 333.016L455.857 335.949C457.967 337.175 459.677 340.449 459.677 343.271V351.648L495.671 330.803V322.419C495.679 319.583 493.969 316.323 491.859 315.127Z" fill="url(#paint49_linear_33255_285491)"/>
<path d="M495.671 326.14L459.677 346.984V351.655L495.671 330.803V326.14Z" fill="#EF4E16"/>
<g style="mix-blend-mode:multiply">
<path d="M460.106 338.385C460.739 339.642 461.086 341.024 461.12 342.432V350.816L467.374 347.192V338.808C467.344 337.4 466.997 336.017 466.36 334.761L460.106 338.385Z" fill="#F5EDDA"/>
</g>
<path d="M466.094 337.264L461.994 339.633C462.095 340.013 462.172 340.4 462.223 340.791L466.316 338.415C466.267 338.027 466.192 337.642 466.094 337.264Z" fill="#FFA800"/>
<g style="mix-blend-mode:multiply">
<path d="M486.967 322.827C487.605 324.083 487.951 325.466 487.981 326.875V335.258L494.243 331.635V323.251C494.21 321.842 493.861 320.458 493.221 319.204L486.967 322.827Z" fill="#DAE0F5"/>
</g>
<path d="M486.671 325.337L468.255 336.008C468.354 336.389 468.428 336.776 468.477 337.167L486.9 326.496C486.849 326.105 486.772 325.718 486.671 325.337Z" fill="#FFA800"/>
<path d="M492.955 321.707L488.862 324.075C488.96 324.454 489.034 324.838 489.084 325.226L493.184 322.858C493.134 322.469 493.057 322.085 492.955 321.707Z" fill="#FFA800"/>
<path d="M422.72 364.695V373.05L410.011 365.69V357.307C410.011 354.485 411.721 353.193 413.831 354.41L418.901 357.381C420.981 358.599 422.72 361.911 422.72 364.695Z" fill="#FFA800"/>
<path d="M454.866 336.528L449.796 333.558C449.429 333.299 448.998 333.146 448.55 333.116C448.102 333.086 447.655 333.18 447.257 333.387L411.262 354.239C411.659 354.028 412.107 353.933 412.556 353.963C413.004 353.993 413.435 354.148 413.801 354.41L418.871 357.38C420.981 358.598 422.69 361.873 422.69 364.695V373.049L458.685 352.256V343.88C458.685 341.028 456.975 337.754 454.866 336.528Z" fill="url(#paint50_linear_33255_285491)"/>
<path d="M458.678 347.563L422.69 368.415V373.079L458.678 352.227V347.563Z" fill="#EF4E16"/>
<g style="mix-blend-mode:multiply">
<path d="M423.105 359.809C423.747 361.065 424.097 362.452 424.126 363.863V372.247L430.381 368.623V360.24C430.35 358.829 430.003 357.443 429.367 356.185L423.105 359.809Z" fill="#DAE0F5"/>
</g>
<path d="M429.1 358.688L425 361.064C425.101 361.442 425.178 361.827 425.229 362.215L429.322 359.846C429.273 359.455 429.199 359.068 429.1 358.688Z" fill="#FFA800"/>
<g style="mix-blend-mode:multiply">
<path d="M449.973 344.251C450.611 345.509 450.957 346.895 450.987 348.306V356.712L457.249 353.088V344.682C457.217 343.271 456.867 341.885 456.228 340.627L449.973 344.251Z" fill="#DAE0F5"/>
</g>
<path d="M449.677 346.769L431.261 357.455C431.361 357.833 431.435 358.218 431.483 358.606L449.906 347.935C449.855 347.542 449.778 347.152 449.677 346.769Z" fill="#FFA800"/>
<path d="M455.961 343.13L451.868 345.507C451.968 345.885 452.042 346.269 452.09 346.658L456.191 344.281C456.138 343.893 456.062 343.509 455.961 343.13Z" fill="#FFA800"/>
<path d="M385.711 386.126V394.503L372.988 387.158V378.775C372.988 375.96 374.698 374.661 376.807 375.886L381.877 378.856C383.987 380.03 385.711 383.304 385.711 386.126Z" fill="#FFA800"/>
<path d="M417.872 357.96L412.802 354.99C412.437 354.727 412.007 354.572 411.56 354.542C411.113 354.512 410.666 354.608 410.27 354.819L374.276 375.671C374.673 375.462 375.12 375.369 375.566 375.4C376.013 375.432 376.443 375.587 376.807 375.849L381.877 378.819C383.987 380.045 385.696 383.319 385.696 386.141V394.518L421.691 373.673V365.289C421.691 362.453 419.981 359.178 417.872 357.96Z" fill="url(#paint51_linear_33255_285491)"/>
<path d="M421.691 368.995L385.697 389.839V394.503L421.691 373.658V368.995Z" fill="#EF4E16"/>
<g style="mix-blend-mode:multiply">
<path d="M386.118 381.218C386.756 382.475 387.103 383.861 387.132 385.272V393.649L393.387 390.025V381.648C393.357 380.238 393.01 378.852 392.373 377.594L386.118 381.218Z" fill="#DAE0F5"/>
</g>
<path d="M392.106 380.119L388.006 382.488C388.107 382.868 388.184 383.255 388.235 383.646L392.336 381.27C392.28 380.882 392.204 380.498 392.106 380.119Z" fill="#FFA800"/>
<g style="mix-blend-mode:multiply">
<path d="M412.979 365.683C413.617 366.938 413.964 368.322 413.993 369.73V378.114L420.255 374.49V366.106C420.223 364.697 419.873 363.314 419.234 362.059L412.979 365.683Z" fill="#DAE0F5"/>
</g>
<path d="M412.683 368.2L394.268 378.864C394.367 379.245 394.441 379.632 394.49 380.022L412.913 369.336C412.861 368.953 412.785 368.573 412.683 368.2Z" fill="#FFA800"/>
<path d="M418.967 364.562L414.874 366.93C414.971 367.31 415.048 367.694 415.103 368.081L419.197 365.713C419.146 365.324 419.069 364.94 418.967 364.562Z" fill="#FFA800"/>
<path d="M348.703 407.55V415.934L335.994 408.575V400.191C335.994 397.369 337.704 396.077 339.813 397.295L344.883 400.266C346.993 401.454 348.703 404.729 348.703 407.55Z" fill="#FFA800"/>
<path d="M380.878 379.383L375.808 376.45C375.444 376.188 375.014 376.033 374.567 376.002C374.12 375.97 373.673 376.064 373.276 376.272L337.282 397.117C337.678 396.906 338.124 396.81 338.572 396.84C339.019 396.87 339.449 397.025 339.813 397.287L344.883 400.258C346.993 401.476 348.703 404.75 348.703 407.572V415.956L384.697 395.104V386.728C384.697 383.884 382.987 380.609 380.878 379.383Z" fill="url(#paint52_linear_33255_285491)"/>
<path d="M384.697 390.418L348.703 411.27V415.934L384.697 395.082V390.418Z" fill="#EF4E16"/>
<g style="mix-blend-mode:multiply">
<path d="M349.125 402.671C349.762 403.926 350.109 405.31 350.139 406.718V415.102L356.393 411.478V403.095C356.358 401.683 356.006 400.297 355.364 399.04L349.125 402.671Z" fill="#DAE0F5"/>
</g>
<path d="M355.113 401.55L351.012 403.919C351.116 404.296 351.193 404.681 351.241 405.07L355.342 402.701C355.291 402.312 355.215 401.928 355.113 401.55Z" fill="#FFA800"/>
<g style="mix-blend-mode:multiply">
<path d="M375.985 387.106C376.624 388.364 376.973 389.75 377.007 391.161V399.537L383.261 395.913V387.537C383.232 386.125 382.882 384.739 382.24 383.482L375.985 387.106Z" fill="#DAE0F5"/>
</g>
<path d="M375.697 389.624L357.274 400.295C357.375 400.673 357.452 401.058 357.503 401.446L375.919 390.775C375.869 390.387 375.795 390.003 375.697 389.624Z" fill="#FFA800"/>
<path d="M382.01 385.985L377.917 388.362C378.019 388.74 378.096 389.124 378.147 389.513L382.24 387.136C382.188 386.748 382.111 386.364 382.01 385.985Z" fill="#FFA800"/>
<path d="M343.884 400.815L338.814 397.844C338.45 397.582 338.02 397.427 337.573 397.397C337.125 397.367 336.679 397.463 336.283 397.674L310.643 412.526C306.942 414.516 297.586 428.313 297.949 435.182C297.865 435.6 297.915 436.034 298.093 436.422C298.272 436.809 298.569 437.129 298.941 437.336C302.449 439.37 313.226 436.155 320.835 432.019L347.674 416.469V408.085C347.703 405.308 345.994 402.01 343.884 400.815Z" fill="url(#paint53_linear_33255_285491)"/>
<path d="M298.971 432.717C298.768 432.606 298.607 432.433 298.511 432.223C298.414 432.013 298.389 431.777 298.438 431.551C298.095 432.74 297.931 433.974 297.949 435.212C297.865 435.63 297.915 436.064 298.093 436.452C298.272 436.839 298.569 437.159 298.941 437.365C302.449 439.4 313.226 436.185 320.835 432.048L347.674 416.498V411.835L320.835 427.377C313.256 431.529 302.479 434.744 298.971 432.717Z" fill="url(#paint54_linear_33255_285491)"/>
<g style="mix-blend-mode:multiply">
<path d="M338.992 408.538C339.631 409.793 339.981 411.176 340.013 412.585V420.969L346.268 417.345V408.961C346.238 407.553 345.891 406.169 345.254 404.914L338.992 408.538Z" fill="#DAE0F5"/>
</g>
<path d="M338.703 411.055L320.28 421.719C314.551 424.838 306.957 427.281 302.679 425.929C302.05 425.736 301.295 425.528 301.435 424.444C301.162 424.957 300.962 425.372 300.769 425.721C300.643 426.546 301.206 426.932 301.85 427.207C306.128 428.863 314.433 426.241 320.51 422.929L338.925 412.258C338.879 411.852 338.805 411.45 338.703 411.055Z" fill="url(#paint55_linear_33255_285491)"/>
<path d="M345.002 407.417L340.909 409.785C341.009 410.164 341.086 410.548 341.138 410.936L345.231 408.568C345.184 408.179 345.107 407.794 345.002 407.417Z" fill="#FFA800"/>
<path style="mix-blend-mode:multiply" d="M310.806 464.856H291.376V467.596H310.806V464.856Z" fill="url(#paint56_linear_33255_285491)"/>
<path style="mix-blend-mode:multiply" d="M383.343 422.84H363.913V425.581H383.343V422.84Z" fill="url(#paint57_linear_33255_285491)"/>
<path style="mix-blend-mode:multiply" d="M455.887 380.824H436.458V383.564H455.887V380.824Z" fill="url(#paint58_linear_33255_285491)"/>
<path style="mix-blend-mode:multiply" d="M528.424 338.808H508.994V341.548H528.424V338.808Z" fill="url(#paint59_linear_33255_285491)"/>
<path d="M324.869 402.961V381.715C324.869 377.936 327.526 376.391 330.79 378.285L355.638 392.676C358.895 394.57 361.559 399.181 361.559 402.961V424.214L363.928 425.58V404.327C363.928 399.04 360.227 392.58 355.645 389.936L330.79 375.544C326.224 372.893 322.508 375.047 322.5 380.342V401.595L324.869 402.961Z" fill="#CED3F8"/>
<path d="M324.869 381.715V400.221V402.954L327.238 401.587L327.282 379.562C327.351 378.831 327.59 378.127 327.978 377.505C326.127 377.572 324.869 379.116 324.869 381.715Z" fill="#BBC0E6"/>
<path d="M357.999 388.562L333.159 374.171C330.879 372.849 328.807 372.686 327.304 373.599L324.936 374.965C326.416 374.096 328.511 374.223 330.798 375.545L355.646 389.936C360.212 392.58 363.928 399.04 363.928 404.327V425.58L366.289 424.214V402.961C366.282 397.666 362.566 391.213 357.999 388.562Z" fill="url(#paint60_linear_33255_285491)"/>
<path d="M252.332 444.977V423.724C252.332 419.944 254.989 418.414 258.254 420.3L283.094 434.684C286.358 436.578 289.015 441.19 289.015 444.969V466.215L291.384 467.589V446.343C291.384 441.056 287.683 434.595 283.094 431.952L258.246 417.56C253.679 414.917 249.964 417.063 249.964 422.357V443.596L252.332 444.977Z" fill="#CED3F8"/>
<path d="M252.332 423.724V442.236V444.969L254.701 443.595L254.745 421.57C254.804 420.829 255.04 420.113 255.434 419.483C253.591 419.587 252.332 421.132 252.332 423.724Z" fill="#BBC0E6"/>
<path d="M285.462 430.578L260.622 416.187C258.335 414.865 256.263 414.739 254.767 415.615L252.399 416.981C253.879 416.112 255.974 416.239 258.254 417.561L283.101 431.952C287.676 434.596 291.391 441.056 291.391 446.343V467.596L293.752 466.223V444.977C293.745 439.682 290.029 433.2 285.462 430.578Z" fill="url(#paint61_linear_33255_285491)"/>
<path d="M397.406 360.945V339.699C397.406 335.92 400.063 334.375 403.327 336.268L428.175 350.66C429.897 351.788 431.331 353.306 432.36 355.093C433.388 356.88 433.983 358.885 434.096 360.945V382.198L436.465 383.564V362.311C436.465 357.024 432.764 350.563 428.182 347.92L403.335 333.528C398.768 330.877 395.052 333.031 395.052 338.325V359.579L397.406 360.945Z" fill="#F8F4CE"/>
<path d="M397.406 339.699V358.197V360.93L399.775 359.564L399.819 337.538C399.881 336.798 400.117 336.083 400.507 335.452C398.664 335.556 397.413 337.1 397.406 339.699Z" fill="#E6DDBB"/>
<path d="M430.544 346.546L405.696 332.155C403.409 330.833 401.336 330.706 399.834 331.583L397.465 332.949C398.946 332.08 401.04 332.207 403.327 333.528L428.175 347.92C432.742 350.563 436.458 357.024 436.458 362.311V383.564L438.826 382.198V360.945C438.826 355.65 435.11 349.197 430.544 346.546Z" fill="url(#paint62_linear_33255_285491)"/>
<path d="M469.95 318.929V297.676C469.95 293.904 472.6 292.366 475.872 294.253L500.719 308.644C502.442 309.772 503.875 311.29 504.904 313.077C505.933 314.864 506.528 316.869 506.641 318.929V340.182L509.009 341.548V320.325C509.009 315.038 505.308 308.577 500.727 305.934L475.864 291.512C471.298 288.869 467.582 291.015 467.582 296.31V317.563L469.95 318.929Z" fill="#F7F8CE"/>
<path d="M469.95 297.676V316.189V318.922L472.312 317.555L472.356 295.53C472.418 294.79 472.654 294.075 473.044 293.443C471.201 293.54 469.95 295.077 469.95 297.676Z" fill="#E3E6BB"/>
<path d="M503.08 304.53L478.233 290.138C475.946 288.817 473.873 288.653 472.371 289.567L470.002 290.933C471.483 290.064 473.577 290.191 475.864 291.512L500.712 305.904C505.279 308.547 508.995 315.008 508.995 320.295V341.548L511.363 340.182V318.929C511.363 313.642 507.647 307.181 503.08 304.53Z" fill="url(#paint63_linear_33255_285491)"/>
<path d="M520.082 437.551L559.667 414.627V319.694L520.075 342.625L520.082 437.551Z" fill="url(#paint64_linear_33255_285491)"/>
<path d="M520.082 437.551L480.498 414.627V319.694L520.075 342.625L520.082 437.551Z" fill="url(#paint65_linear_33255_285491)"/>
<path d="M520.075 342.625L480.498 319.694L520.075 296.77L559.667 319.694L520.075 342.625Z" fill="white"/>
<path d="M512.281 315.194L520.053 319.694L527.824 306.216C532.117 298.79 532.117 290.703 527.824 288.215C523.531 285.727 516.581 289.767 512.281 297.223C507.98 304.678 508.025 312.713 512.281 315.194ZM514.871 304.701C514.967 302.896 515.487 301.14 516.387 299.575C517.287 298.009 518.543 296.679 520.053 295.693C522.917 294.03 525.234 295.374 525.234 298.663C525.138 300.468 524.618 302.224 523.718 303.79C522.818 305.355 521.562 306.685 520.053 307.671C517.218 309.357 514.901 308.013 514.901 304.73L514.871 304.701Z" fill="#FFA800"/>
<path d="M270.755 303.876C270.731 303.124 270.514 302.39 270.126 301.745C269.762 301.088 269.237 300.533 268.601 300.134C268.384 299.975 268.128 299.877 267.86 299.85C267.592 299.822 267.322 299.867 267.077 299.978C266.857 300.135 266.682 300.347 266.57 300.594C266.458 300.84 266.414 301.112 266.44 301.381C266.467 302.135 266.686 302.869 267.077 303.513C267.437 304.175 267.962 304.733 268.601 305.131C268.82 305.289 269.076 305.386 269.344 305.412C269.612 305.438 269.881 305.392 270.126 305.28C270.345 305.123 270.519 304.91 270.629 304.663C270.74 304.417 270.783 304.145 270.755 303.876Z" fill="#535D63"/>
<path d="M269.845 303.357C269.823 302.923 269.699 302.5 269.483 302.123C269.267 301.746 268.965 301.426 268.601 301.189C267.913 300.788 267.35 301.114 267.35 301.931C267.376 302.366 267.502 302.788 267.719 303.165C267.936 303.541 268.238 303.861 268.601 304.1C269.29 304.471 269.845 304.152 269.845 303.357Z" fill="#C4CCCC"/>
<path d="M264.649 299.696L263.109 298.797V300.765L264.649 301.656V299.696Z" fill="#DADFE0"/>
<path d="M287.912 309.922V311.036L284.374 313.078V307.872L287.912 309.922Z" fill="#FFA800"/>
<path d="M269.238 299.109V300.216L265.7 302.265V297.06L269.238 299.109Z" fill="#FFA800"/>
<path d="M289.422 314.696C289.399 313.941 289.182 313.205 288.793 312.558C288.43 311.899 287.905 311.344 287.268 310.946C287.05 310.789 286.794 310.692 286.526 310.666C286.258 310.64 285.988 310.685 285.744 310.798C285.522 310.951 285.347 311.162 285.236 311.408C285.125 311.654 285.083 311.926 285.114 312.194C285.138 312.947 285.355 313.681 285.744 314.325C286.104 314.988 286.629 315.545 287.268 315.944C287.487 316.101 287.743 316.198 288.011 316.224C288.279 316.25 288.548 316.205 288.793 316.092C289.014 315.939 289.19 315.728 289.301 315.482C289.412 315.236 289.454 314.964 289.422 314.696Z" fill="#FFA800"/>
<path d="M288.512 314.169C288.489 313.735 288.365 313.312 288.149 312.936C287.933 312.559 287.631 312.238 287.268 312.001C286.58 311.6 286.025 311.926 286.025 312.743C286.048 313.177 286.172 313.6 286.388 313.977C286.604 314.354 286.906 314.674 287.268 314.912C287.957 315.29 288.512 314.964 288.512 314.169Z" fill="#E6E2BB"/>
<path d="M289.422 314.696C289.399 313.941 289.182 313.205 288.793 312.558C288.431 311.899 287.906 311.344 287.268 310.946C287.05 310.789 286.794 310.692 286.526 310.666C286.258 310.64 285.988 310.685 285.744 310.798L287.098 310.011C287.343 309.898 287.613 309.853 287.881 309.879C288.148 309.905 288.404 310.002 288.623 310.159C289.264 310.556 289.789 311.114 290.148 311.778C290.539 312.422 290.758 313.156 290.784 313.909C290.811 314.178 290.766 314.448 290.654 314.694C290.542 314.939 290.368 315.15 290.148 315.305L288.793 316.092C289.015 315.939 289.19 315.728 289.301 315.482C289.412 315.236 289.454 314.964 289.422 314.696Z" fill="#FFA800"/>
<path d="M270.755 303.876C270.731 303.124 270.514 302.39 270.126 301.745C269.762 301.088 269.237 300.533 268.601 300.134C268.384 299.975 268.128 299.877 267.86 299.85C267.592 299.822 267.322 299.867 267.077 299.978C266.857 300.135 266.682 300.347 266.57 300.594C266.458 300.84 266.414 301.112 266.44 301.381C266.467 302.135 266.686 302.869 267.077 303.513C267.437 304.175 267.962 304.733 268.601 305.131C268.82 305.289 269.076 305.386 269.344 305.412C269.612 305.438 269.881 305.392 270.126 305.28C270.345 305.123 270.519 304.91 270.629 304.663C270.74 304.417 270.783 304.145 270.755 303.876Z" fill="#FFA800"/>
<path d="M269.845 303.357C269.823 302.923 269.699 302.5 269.483 302.123C269.267 301.746 268.965 301.426 268.601 301.189C267.913 300.788 267.35 301.114 267.35 301.931C267.376 302.366 267.502 302.788 267.719 303.165C267.936 303.541 268.238 303.861 268.601 304.1C269.29 304.471 269.845 304.152 269.845 303.357Z" fill="#E6E2BB"/>
<path d="M270.755 303.877C270.73 303.124 270.514 302.39 270.126 301.746C269.762 301.088 269.237 300.533 268.601 300.134C268.383 299.975 268.128 299.877 267.86 299.85C267.592 299.823 267.322 299.867 267.076 299.978L268.431 299.191C268.677 299.081 268.947 299.038 269.214 299.065C269.482 299.092 269.737 299.19 269.956 299.347C270.595 299.746 271.12 300.303 271.48 300.966C271.87 301.61 272.087 302.344 272.11 303.097C272.141 303.365 272.099 303.637 271.988 303.883C271.877 304.129 271.702 304.34 271.48 304.493L270.126 305.28C270.345 305.123 270.519 304.91 270.629 304.664C270.74 304.417 270.783 304.146 270.755 303.877Z" fill="#FFA800"/>
<path d="M276.44 287.836L282.198 291.171L268.868 298.894L263.109 295.559L276.44 287.836Z" fill="#FFA800"/>
<path d="M282.353 301.374L284.374 307.872L292.183 312.394V317.592L289.148 315.832V313.278C289.131 312.959 289.039 312.649 288.879 312.373C288.72 312.097 288.497 311.862 288.23 311.689L285.27 309.981C284.766 309.691 284.352 309.929 284.352 310.515V313.07L270.474 305.028V302.503C270.458 302.185 270.367 301.875 270.209 301.599C270.05 301.323 269.829 301.088 269.563 300.914L266.603 299.206C266.099 298.916 265.692 299.154 265.692 299.74V302.295L263.094 300.81V295.612L268.86 298.946L271.029 294.876L282.353 301.374Z" fill="#FFA800"/>
<path d="M281.836 301.872C282.117 302.859 283.101 305.688 283.686 307.478L276.906 303.527V298.99L281.836 301.872Z" fill="#ECDD57"/>
<path d="M271.222 295.715C270.844 296.384 269.956 298.069 269.371 299.183L276.188 303.134V298.597L271.222 295.715Z" fill="#ECDD57"/>
<path d="M305.506 309.884L292.183 317.6V312.394L305.506 304.679V309.884Z" fill="#7A711F"/>
<path d="M302.805 306.899L294.885 311.488V314.072L302.805 309.483V306.899Z" fill="#FFA800"/>
<path d="M305.107 305.57L303.204 306.669V307.864L305.114 306.758L305.107 305.57Z" fill="#F8EFCE"/>
<path d="M292.583 312.825L294.485 311.726V312.914L292.583 314.021V312.825Z" fill="#F8EFCE"/>
<path d="M295.684 293.651L284.367 287.102L271.036 294.825L282.354 301.374L295.684 293.651Z" fill="#FFA800"/>
<path d="M297.705 300.149L305.506 304.679L292.183 312.394L284.374 307.872L297.705 300.149Z" fill="#FFA800"/>
<path d="M295.684 293.651L282.354 301.374L284.374 307.872L297.705 300.149L295.684 293.651Z" fill="#7A711F"/>
<path style="mix-blend-mode:multiply" d="M304.322 303.988L295.595 309.045L284.374 307.872L297.705 300.149L304.322 303.988Z" fill="url(#paint66_linear_33255_285491)"/>
<path d="M296.987 300.565L285.1 307.456C284.648 305.896 283.531 302.651 283.249 301.775L295.144 294.884C295.588 296.324 296.706 299.592 296.987 300.565Z" fill="#C1B43A"/>
<path d="M306.121 309.884V307.917L292.183 315.988V317.956L306.121 309.884Z" fill="#E6E2BB"/>
<path d="M292.183 317.956V315.988L289.896 314.667V316.634L292.183 317.956Z" fill="#F7F8CE"/>
<path d="M290.199 314.496L292.183 315.639L305.514 307.916V307.567L306.121 307.916L292.183 315.988L289.896 314.667L290.199 314.496Z" fill="#F6F6FB"/>
<path d="M263.109 298.448V298.797L264.649 299.696L264.345 299.867L262.495 298.797L263.109 298.448Z" fill="#FBFBF6"/>
<path d="M264.345 301.834L264.649 301.656V299.696L264.345 299.867V301.834Z" fill="#E6E2BB"/>
<path d="M264.345 301.835V299.867L262.495 298.797V300.765L264.345 301.835Z" fill="#F8F6CE"/>
<path d="M292.183 315.639H292.775L306.121 307.916L305.514 307.567V307.916L292.183 315.639Z" fill="url(#paint67_linear_33255_285491)"/>
<defs>
<linearGradient id="paint0_linear_33255_285491" x1="127.088" y1="438.754" x2="408.395" y2="79.8217" gradientUnits="userSpaceOnUse">
<stop stop-color="white"/>
<stop offset="1" stop-color="#F3F3EF"/>
</linearGradient>
<linearGradient id="paint1_linear_33255_285491" x1="312.464" y1="258.734" x2="457.575" y2="258.734" gradientUnits="userSpaceOnUse">
<stop stop-color="#F2F3D1"/>
<stop offset="0.37" stop-color="#F7F3E1" stop-opacity="0.65"/>
<stop offset="1" stop-color="white" stop-opacity="0"/>
</linearGradient>
<linearGradient id="paint2_linear_33255_285491" x1="312.464" y1="71.8907" x2="342.019" y2="71.8907" gradientUnits="userSpaceOnUse">
<stop stop-color="#C4CAE9"/>
<stop offset="0.36" stop-color="#CDD3EE"/>
<stop offset="1" stop-color="#DAE0F5"/>
</linearGradient>
<linearGradient id="paint3_linear_33255_285491" x1="312.464" y1="60.5139" x2="325.202" y2="60.5139" gradientUnits="userSpaceOnUse">
<stop stop-color="#C4CAE9"/>
<stop offset="0.42" stop-color="#DADEF1"/>
<stop offset="1" stop-color="white"/>
</linearGradient>
<linearGradient id="paint4_linear_33255_285491" x1="312.464" y1="53.8304" x2="316.616" y2="53.8304" gradientUnits="userSpaceOnUse">
<stop stop-color="#C4CAE9"/>
<stop offset="0.42" stop-color="#DADEF1"/>
<stop offset="1" stop-color="white"/>
</linearGradient>
<linearGradient id="paint5_linear_33255_285491" x1="312.464" y1="142.184" x2="364.017" y2="142.184" gradientUnits="userSpaceOnUse">
<stop stop-color="#C4CAE9"/>
<stop offset="0.36" stop-color="#CDD3EE"/>
<stop offset="1" stop-color="#DAE0F5"/>
</linearGradient>
<linearGradient id="paint6_linear_33255_285491" x1="312.464" y1="103.184" x2="353.129" y2="103.184" gradientUnits="userSpaceOnUse">
<stop stop-color="#C4CAE9"/>
<stop offset="0.36" stop-color="#CDD3EE"/>
<stop offset="1" stop-color="#DAE0F5"/>
</linearGradient>
<linearGradient id="paint7_linear_33255_285491" x1="466.138" y1="256.685" x2="523.753" y2="256.685" gradientUnits="userSpaceOnUse">
<stop stop-color="#C4CAE8"/>
<stop offset="0.25" stop-color="#D4D9EE" stop-opacity="0.73"/>
<stop offset="0.62" stop-color="#EBEDF7" stop-opacity="0.34"/>
<stop offset="0.88" stop-color="#F9FAFD" stop-opacity="0.09"/>
<stop offset="1" stop-color="white" stop-opacity="0"/>
</linearGradient>
<radialGradient id="paint8_radial_33255_285491" cx="0" cy="0" r="1" gradientUnits="userSpaceOnUse" gradientTransform="translate(348.007 361.725) scale(139.108 139.563)">
<stop stop-color="#F8F4CE"/>
<stop offset="0.09" stop-color="#F8F1CF" stop-opacity="0.97"/>
<stop offset="0.22" stop-color="#F9F5D3" stop-opacity="0.89"/>
<stop offset="0.38" stop-color="#F9FAD9" stop-opacity="0.77"/>
<stop offset="0.55" stop-color="#FBF6E2" stop-opacity="0.59"/>
<stop offset="0.74" stop-color="#FCFBED" stop-opacity="0.37"/>
<stop offset="0.94" stop-color="#FEFEFA" stop-opacity="0.09"/>
<stop offset="1" stop-color="white" stop-opacity="0"/>
</radialGradient>
<linearGradient id="paint9_linear_33255_285491" x1="259.097" y1="320.733" x2="274.937" y2="320.733" gradientUnits="userSpaceOnUse">
<stop stop-color="#C4CAE8"/>
<stop offset="0.24" stop-color="#C9CEEA"/>
<stop offset="0.53" stop-color="#D7DBEF"/>
<stop offset="0.83" stop-color="#EFF0F9"/>
<stop offset="1" stop-color="white"/>
</linearGradient>
<linearGradient id="paint10_linear_33255_285491" x1="272.154" y1="328.301" x2="287.994" y2="328.301" gradientUnits="userSpaceOnUse">
<stop stop-color="#C4CAE8"/>
<stop offset="0.24" stop-color="#C9CEEA"/>
<stop offset="0.53" stop-color="#D7DBEF"/>
<stop offset="0.83" stop-color="#EFF0F9"/>
<stop offset="1" stop-color="white"/>
</linearGradient>
<linearGradient id="paint11_linear_33255_285491" x1="257.765" y1="472.527" x2="477.118" y2="346.076" gradientUnits="userSpaceOnUse">
<stop stop-color="white" stop-opacity="0"/>
<stop offset="0.01" stop-color="#FCFCFF" stop-opacity="0.06"/>
<stop offset="0.07" stop-color="#E3E6FB" stop-opacity="0.56"/>
<stop offset="0.11" stop-color="#D4D8F9" stop-opacity="0.88"/>
<stop offset="0.13" stop-color="#CED3F8"/>
<stop offset="0.92" stop-color="#CED3F8"/>
<stop offset="1" stop-color="white" stop-opacity="0"/>
</linearGradient>
<linearGradient id="paint12_linear_33255_285491" x1="301.472" y1="500.656" x2="413.757" y2="306.801" gradientUnits="userSpaceOnUse">
<stop stop-color="white" stop-opacity="0"/>
<stop offset="0.01" stop-color="#FEFEFF" stop-opacity="0.07"/>
<stop offset="0.07" stop-color="#FAFAFD" stop-opacity="0.57"/>
<stop offset="0.11" stop-color="#F7F7FB" stop-opacity="0.88"/>
<stop offset="0.13" stop-color="#F6F6FB"/>
<stop offset="0.92" stop-color="#F6F6FB"/>
<stop offset="0.99" stop-color="white" stop-opacity="0"/>
</linearGradient>
<linearGradient id="paint13_linear_33255_285491" x1="297.113" y1="498.132" x2="409.405" y2="304.276" gradientUnits="userSpaceOnUse">
<stop stop-color="white" stop-opacity="0"/>
<stop offset="0.01" stop-color="#FCFCFF" stop-opacity="0.06"/>
<stop offset="0.07" stop-color="#E3E6FB" stop-opacity="0.56"/>
<stop offset="0.11" stop-color="#D4D8F9" stop-opacity="0.88"/>
<stop offset="0.13" stop-color="#CED3F8"/>
<stop offset="0.92" stop-color="#CED3F8"/>
<stop offset="1" stop-color="white" stop-opacity="0"/>
</linearGradient>
<linearGradient id="paint14_linear_33255_285491" x1="305.824" y1="503.181" x2="418.117" y2="309.326" gradientUnits="userSpaceOnUse">
<stop stop-color="white" stop-opacity="0"/>
<stop offset="0.01" stop-color="#FCFCFF" stop-opacity="0.06"/>
<stop offset="0.07" stop-color="#E3E6FB" stop-opacity="0.56"/>
<stop offset="0.11" stop-color="#D4D8F9" stop-opacity="0.88"/>
<stop offset="0.13" stop-color="#CED3F8"/>
<stop offset="0.92" stop-color="#CED3F8"/>
<stop offset="1" stop-color="white" stop-opacity="0"/>
</linearGradient>
<linearGradient id="paint15_linear_33255_285491" x1="133.105" y1="289.195" x2="222.703" y2="289.195" gradientUnits="userSpaceOnUse">
<stop stop-color="#C4CAE8"/>
<stop offset="0.13" stop-color="#D0D5ED" stop-opacity="0.79"/>
<stop offset="0.3" stop-color="#DEE2F2" stop-opacity="0.55"/>
<stop offset="0.46" stop-color="#EAECF7" stop-opacity="0.35"/>
<stop offset="0.62" stop-color="#F3F4FA" stop-opacity="0.2"/>
<stop offset="0.76" stop-color="#FAFAFD" stop-opacity="0.09"/>
<stop offset="0.9" stop-color="#FEFEFE" stop-opacity="0.02"/>
<stop offset="1" stop-color="white" stop-opacity="0"/>
</linearGradient>
<linearGradient id="paint16_linear_33255_285491" x1="204.066" y1="308.147" x2="331.997" y2="308.147" gradientUnits="userSpaceOnUse">
<stop stop-color="#E8E4C4"/>
<stop offset="0.38" stop-color="#F1F0DA" stop-opacity="0.63"/>
<stop offset="1" stop-color="white" stop-opacity="0"/>
</linearGradient>
<linearGradient id="paint17_linear_33255_285491" x1="204.066" y1="196.393" x2="253.924" y2="196.393" gradientUnits="userSpaceOnUse">
<stop stop-color="#F3ECD1"/>
<stop offset="0.08" stop-color="#F4EBD5"/>
<stop offset="1" stop-color="white"/>
</linearGradient>
<linearGradient id="paint18_linear_33255_285491" x1="204.066" y1="171.249" x2="253.924" y2="171.249" gradientUnits="userSpaceOnUse">
<stop stop-color="#E4DDC4"/>
<stop offset="0.27" stop-color="#ECEAD5"/>
<stop offset="1" stop-color="white"/>
</linearGradient>
<linearGradient id="paint19_linear_33255_285491" x1="175.229" y1="359.296" x2="310.562" y2="359.296" gradientUnits="userSpaceOnUse">
<stop stop-color="#C4CAE8"/>
<stop offset="0.16" stop-color="#D3D7EE" stop-opacity="0.75"/>
<stop offset="0.38" stop-color="#E5E8F5" stop-opacity="0.43"/>
<stop offset="0.57" stop-color="#F3F4FA" stop-opacity="0.2"/>
<stop offset="0.71" stop-color="#FCFCFE" stop-opacity="0.05"/>
<stop offset="0.78" stop-color="white" stop-opacity="0"/>
</linearGradient>
<linearGradient id="paint20_linear_33255_285491" x1="285.736" y1="273.118" x2="295.599" y2="256.104" gradientUnits="userSpaceOnUse">
<stop stop-color="#F4F5DA"/>
<stop offset="0.54" stop-color="#FBFAF1"/>
<stop offset="1" stop-color="white"/>
</linearGradient>
<linearGradient id="paint21_linear_33255_285491" x1="312.257" y1="142.184" x2="364.017" y2="142.184" gradientUnits="userSpaceOnUse">
<stop stop-color="#C4CAE8"/>
<stop offset="0.36" stop-color="#CDD3EE"/>
<stop offset="1" stop-color="#DAE0F5"/>
</linearGradient>
<linearGradient id="paint22_linear_33255_285491" x1="356.948" y1="292.211" x2="400.892" y2="292.211" gradientUnits="userSpaceOnUse">
<stop stop-color="#E4DFC4"/>
<stop offset="0.02" stop-color="#E5E2C6" stop-opacity="0.96"/>
<stop offset="0.17" stop-color="#ECEBD5" stop-opacity="0.71"/>
<stop offset="0.32" stop-color="#F2F0E2" stop-opacity="0.49"/>
<stop offset="0.47" stop-color="#F6F4EC" stop-opacity="0.32"/>
<stop offset="0.61" stop-color="#FAF9F4" stop-opacity="0.18"/>
<stop offset="0.75" stop-color="#FDFCFA" stop-opacity="0.08"/>
<stop offset="0.88" stop-color="#FEFEFE" stop-opacity="0.02"/>
<stop offset="1" stop-color="white" stop-opacity="0"/>
</linearGradient>
<linearGradient id="paint23_linear_33255_285491" x1="340.916" y1="292.812" x2="349.492" y2="278.007" gradientUnits="userSpaceOnUse">
<stop stop-color="#F5EFDA"/>
<stop offset="1" stop-color="white"/>
</linearGradient>
<linearGradient id="paint24_linear_33255_285491" x1="402.188" y1="318.543" x2="491.852" y2="318.543" gradientUnits="userSpaceOnUse">
<stop stop-color="#C4CAE8"/>
<stop offset="0.13" stop-color="#D0D5ED" stop-opacity="0.79"/>
<stop offset="0.3" stop-color="#DEE2F2" stop-opacity="0.55"/>
<stop offset="0.46" stop-color="#EAECF7" stop-opacity="0.35"/>
<stop offset="0.62" stop-color="#F3F4FA" stop-opacity="0.2"/>
<stop offset="0.76" stop-color="#FAFAFD" stop-opacity="0.09"/>
<stop offset="0.9" stop-color="#FEFEFE" stop-opacity="0.02"/>
<stop offset="1" stop-color="white" stop-opacity="0"/>
</linearGradient>
<linearGradient id="paint25_linear_33255_285491" x1="363.958" y1="196.78" x2="403.69" y2="196.78" gradientUnits="userSpaceOnUse">
<stop stop-color="#F5F4DA"/>
<stop offset="0.36" stop-color="#F7F5E3"/>
<stop offset="0.94" stop-color="#FEFEFC"/>
<stop offset="1" stop-color="white"/>
</linearGradient>
<linearGradient id="paint26_linear_33255_285491" x1="426.413" y1="206.018" x2="439.107" y2="206.018" gradientUnits="userSpaceOnUse">
<stop stop-color="#C4C9E4"/>
<stop offset="0.27" stop-color="#D5D9EC"/>
<stop offset="1" stop-color="white"/>
</linearGradient>
<linearGradient id="paint27_linear_33255_285491" x1="402.188" y1="323.132" x2="445.14" y2="323.132" gradientUnits="userSpaceOnUse">
<stop stop-color="#E8E0C4"/>
<stop offset="0.43" stop-color="#EBE8CA"/>
<stop offset="1" stop-color="#F5F2DA"/>
</linearGradient>
<linearGradient id="paint28_linear_33255_285491" x1="219.224" y1="123.582" x2="255.826" y2="123.582" gradientUnits="userSpaceOnUse">
<stop stop-color="#F3E7D1"/>
<stop offset="0.11" stop-color="#F5F1DA" stop-opacity="0.81"/>
<stop offset="0.33" stop-color="#F9F7E9" stop-opacity="0.47"/>
<stop offset="0.5" stop-color="#FCFCF5" stop-opacity="0.22"/>
<stop offset="0.63" stop-color="#FEFDFC" stop-opacity="0.06"/>
<stop offset="0.7" stop-color="white" stop-opacity="0"/>
</linearGradient>
<linearGradient id="paint29_linear_33255_285491" x1="216.807" y1="119.48" x2="220.949" y2="121.215" gradientUnits="userSpaceOnUse">
<stop stop-color="#D59F36"/>
<stop offset="1" stop-color="#FFBD3F"/>
</linearGradient>
<linearGradient id="paint30_linear_33255_285491" x1="209.126" y1="87.9758" x2="231.453" y2="94.2234" gradientUnits="userSpaceOnUse">
<stop stop-color="#B98D38"/>
<stop offset="1" stop-color="#FFBD3F"/>
</linearGradient>
<linearGradient id="paint31_linear_33255_285491" x1="298.763" y1="350.437" x2="309.451" y2="350.437" gradientUnits="userSpaceOnUse">
<stop stop-color="#C4C9E5"/>
<stop offset="0.26" stop-color="#D7DAED"/>
<stop offset="0.73" stop-color="#F4F5FA"/>
<stop offset="1" stop-color="white"/>
</linearGradient>
<linearGradient id="paint32_linear_33255_285491" x1="298.763" y1="344.905" x2="303.115" y2="344.905" gradientUnits="userSpaceOnUse">
<stop stop-color="#C4C9E5"/>
<stop offset="0.26" stop-color="#D7DAED"/>
<stop offset="0.73" stop-color="#F4F5FA"/>
<stop offset="1" stop-color="white"/>
</linearGradient>
<radialGradient id="paint33_radial_33255_285491" cx="0" cy="0" r="1" gradientUnits="userSpaceOnUse" gradientTransform="translate(294.3 327.818) scale(13.7006 13.7454)">
<stop stop-color="#FBDF7C"/>
<stop offset="1" stop-color="#93772E"/>
</radialGradient>
<linearGradient id="paint34_linear_33255_285491" x1="279.704" y1="361.48" x2="290.392" y2="361.48" gradientUnits="userSpaceOnUse">
<stop stop-color="#C4C9E5"/>
<stop offset="0.26" stop-color="#D7DAED"/>
<stop offset="0.73" stop-color="#F4F5FA"/>
<stop offset="1" stop-color="white"/>
</linearGradient>
<linearGradient id="paint35_linear_33255_285491" x1="279.704" y1="355.947" x2="284.056" y2="355.947" gradientUnits="userSpaceOnUse">
<stop stop-color="#C4C9E5"/>
<stop offset="0.26" stop-color="#D7DAED"/>
<stop offset="0.73" stop-color="#F4F5FA"/>
<stop offset="1" stop-color="white"/>
</linearGradient>
<radialGradient id="paint36_radial_33255_285491" cx="0" cy="0" r="1" gradientUnits="userSpaceOnUse" gradientTransform="translate(275.241 338.853) scale(13.7006 13.7454)">
<stop stop-color="#FFFCB3"/>
<stop offset="1" stop-color="#93832E"/>
</radialGradient>
<linearGradient id="paint37_linear_33255_285491" x1="260.644" y1="372.522" x2="271.332" y2="372.522" gradientUnits="userSpaceOnUse">
<stop stop-color="#C4C9E5"/>
<stop offset="0.26" stop-color="#D7DAED"/>
<stop offset="0.73" stop-color="#F4F5FA"/>
<stop offset="1" stop-color="white"/>
</linearGradient>
<linearGradient id="paint38_linear_33255_285491" x1="260.644" y1="366.982" x2="264.997" y2="366.982" gradientUnits="userSpaceOnUse">
<stop stop-color="#C4C9E5"/>
<stop offset="0.26" stop-color="#D7DAED"/>
<stop offset="0.73" stop-color="#F4F5FA"/>
<stop offset="1" stop-color="white"/>
</linearGradient>
<radialGradient id="paint39_radial_33255_285491" cx="0" cy="0" r="1" gradientUnits="userSpaceOnUse" gradientTransform="translate(256.181 349.895) scale(13.7006 13.7454)">
<stop stop-color="#807CFB"/>
<stop offset="1" stop-color="#362E93"/>
</radialGradient>
<linearGradient id="paint40_linear_33255_285491" x1="241.578" y1="383.557" x2="252.273" y2="383.557" gradientUnits="userSpaceOnUse">
<stop stop-color="#C4C9E5"/>
<stop offset="0.26" stop-color="#D7DAED"/>
<stop offset="0.73" stop-color="#F4F5FA"/>
<stop offset="1" stop-color="white"/>
</linearGradient>
<linearGradient id="paint41_linear_33255_285491" x1="241.578" y1="378.025" x2="245.937" y2="378.025" gradientUnits="userSpaceOnUse">
<stop stop-color="#C4C9E5"/>
<stop offset="0.26" stop-color="#D7DAED"/>
<stop offset="0.73" stop-color="#F4F5FA"/>
<stop offset="1" stop-color="white"/>
</linearGradient>
<radialGradient id="paint42_radial_33255_285491" cx="0" cy="0" r="1" gradientUnits="userSpaceOnUse" gradientTransform="translate(237.122 360.938) scale(13.708 13.7528)">
<stop stop-color="#807CFB"/>
<stop offset="1" stop-color="#362E93"/>
</radialGradient>
<linearGradient id="paint43_linear_33255_285491" x1="292.472" y1="310.515" x2="315.469" y2="310.515" gradientUnits="userSpaceOnUse">
<stop stop-color="#E8E4C4"/>
<stop offset="0.25" stop-color="#EFEFD6" stop-opacity="0.69"/>
<stop offset="0.52" stop-color="#F6F5E8" stop-opacity="0.4"/>
<stop offset="0.74" stop-color="#FBFBF4" stop-opacity="0.18"/>
<stop offset="0.91" stop-color="#FEFEFC" stop-opacity="0.05"/>
<stop offset="1" stop-color="white" stop-opacity="0"/>
</linearGradient>
<linearGradient id="paint44_linear_33255_285491" x1="298.97" y1="380.631" x2="515.034" y2="380.631" gradientUnits="userSpaceOnUse">
<stop stop-color="#DAE0F5"/>
<stop offset="0.8" stop-color="#F0F1FA"/>
<stop offset="1" stop-color="#F6F6FB"/>
</linearGradient>
<linearGradient id="paint45_linear_33255_285491" x1="252.332" y1="443.611" x2="271.762" y2="443.611" gradientUnits="userSpaceOnUse">
<stop stop-color="#C4CAE8"/>
<stop offset="0.13" stop-color="#D0D5ED" stop-opacity="0.79"/>
<stop offset="0.3" stop-color="#DEE2F2" stop-opacity="0.55"/>
<stop offset="0.46" stop-color="#EAECF7" stop-opacity="0.35"/>
<stop offset="0.62" stop-color="#F3F4FA" stop-opacity="0.2"/>
<stop offset="0.76" stop-color="#FAFAFD" stop-opacity="0.09"/>
<stop offset="0.9" stop-color="#FEFEFE" stop-opacity="0.02"/>
<stop offset="1" stop-color="white" stop-opacity="0"/>
</linearGradient>
<linearGradient id="paint46_linear_33255_285491" x1="324.869" y1="401.595" x2="344.299" y2="401.595" gradientUnits="userSpaceOnUse">
<stop stop-color="#C4CAE8"/>
<stop offset="0.13" stop-color="#D0D5ED" stop-opacity="0.79"/>
<stop offset="0.3" stop-color="#DEE2F2" stop-opacity="0.55"/>
<stop offset="0.46" stop-color="#EAECF7" stop-opacity="0.35"/>
<stop offset="0.62" stop-color="#F3F4FA" stop-opacity="0.2"/>
<stop offset="0.76" stop-color="#FAFAFD" stop-opacity="0.09"/>
<stop offset="0.9" stop-color="#FEFEFE" stop-opacity="0.02"/>
<stop offset="1" stop-color="white" stop-opacity="0"/>
</linearGradient>
<linearGradient id="paint47_linear_33255_285491" x1="397.406" y1="359.578" x2="416.836" y2="359.578" gradientUnits="userSpaceOnUse">
<stop stop-color="#C4CAE8"/>
<stop offset="0.13" stop-color="#D0D5ED" stop-opacity="0.79"/>
<stop offset="0.3" stop-color="#DEE2F2" stop-opacity="0.55"/>
<stop offset="0.46" stop-color="#EAECF7" stop-opacity="0.35"/>
<stop offset="0.62" stop-color="#F3F4FA" stop-opacity="0.2"/>
<stop offset="0.76" stop-color="#FAFAFD" stop-opacity="0.09"/>
<stop offset="0.9" stop-color="#FEFEFE" stop-opacity="0.02"/>
<stop offset="1" stop-color="white" stop-opacity="0"/>
</linearGradient>
<linearGradient id="paint48_linear_33255_285491" x1="469.943" y1="317.563" x2="489.372" y2="317.563" gradientUnits="userSpaceOnUse">
<stop stop-color="#E8E4C4"/>
<stop offset="0.13" stop-color="#EDE3D0" stop-opacity="0.79"/>
<stop offset="0.3" stop-color="#F2EEDE" stop-opacity="0.55"/>
<stop offset="0.46" stop-color="#F7F4EA" stop-opacity="0.35"/>
<stop offset="0.62" stop-color="#FAF9F3" stop-opacity="0.2"/>
<stop offset="0.76" stop-color="#FDFCFA" stop-opacity="0.09"/>
<stop offset="0.9" stop-color="#FEFEFE" stop-opacity="0.02"/>
<stop offset="1" stop-color="white" stop-opacity="0"/>
</linearGradient>
<linearGradient id="paint49_linear_33255_285491" x1="468.788" y1="320.942" x2="479.819" y2="339.988" gradientUnits="userSpaceOnUse">
<stop stop-color="#FBFAF6"/>
<stop offset="0.26" stop-color="#F4EFE3"/>
<stop offset="0.73" stop-color="#EAE4C6"/>
<stop offset="1" stop-color="#E6DDBB"/>
</linearGradient>
<linearGradient id="paint50_linear_33255_285491" x1="431.795" y1="342.365" x2="442.825" y2="361.411" gradientUnits="userSpaceOnUse">
<stop stop-color="#FBFAF6"/>
<stop offset="0.26" stop-color="#F4F0E3"/>
<stop offset="0.73" stop-color="#EAE4C6"/>
<stop offset="1" stop-color="#E6DDBB"/>
</linearGradient>
<linearGradient id="paint51_linear_33255_285491" x1="394.801" y1="363.797" x2="405.839" y2="382.843" gradientUnits="userSpaceOnUse">
<stop stop-color="#F6F6FB"/>
<stop offset="0.26" stop-color="#E3E5F4"/>
<stop offset="0.73" stop-color="#C6CAEA"/>
<stop offset="1" stop-color="#BBC0E6"/>
</linearGradient>
<linearGradient id="paint52_linear_33255_285491" x1="357.814" y1="385.22" x2="368.845" y2="404.266" gradientUnits="userSpaceOnUse">
<stop stop-color="#F6F6FB"/>
<stop offset="0.26" stop-color="#E3E5F4"/>
<stop offset="0.73" stop-color="#C6CAEA"/>
<stop offset="1" stop-color="#BBC0E6"/>
</linearGradient>
<linearGradient id="paint53_linear_33255_285491" x1="316.135" y1="409.362" x2="327.166" y2="428.408" gradientUnits="userSpaceOnUse">
<stop stop-color="#F6F6FB"/>
<stop offset="0.26" stop-color="#E3E5F4"/>
<stop offset="0.73" stop-color="#C6CAEA"/>
<stop offset="1" stop-color="#BBC0E6"/>
</linearGradient>
<linearGradient id="paint54_linear_33255_285491" x1="297.942" y1="424.927" x2="347.703" y2="424.927" gradientUnits="userSpaceOnUse">
<stop stop-color="#FFD03E"/>
<stop offset="0.27" stop-color="#FAA531"/>
<stop offset="0.6" stop-color="#F47622"/>
<stop offset="0.85" stop-color="#F05919"/>
<stop offset="1" stop-color="#EF4E16"/>
</linearGradient>
<linearGradient id="paint55_linear_33255_285491" x1="300.754" y1="419.357" x2="338.925" y2="419.357" gradientUnits="userSpaceOnUse">
<stop stop-color="#6B67E9"/>
<stop offset="0.25" stop-color="#5E5AD7"/>
<stop offset="0.73" stop-color="#4A46BA"/>
<stop offset="1" stop-color="#423EAF"/>
</linearGradient>
<linearGradient id="paint56_linear_33255_285491" x1="291.376" y1="466.23" x2="310.806" y2="466.23" gradientUnits="userSpaceOnUse">
<stop stop-color="#C4CAE8"/>
<stop offset="0.13" stop-color="#D0D5ED" stop-opacity="0.79"/>
<stop offset="0.3" stop-color="#DEE2F2" stop-opacity="0.55"/>
<stop offset="0.46" stop-color="#EAECF7" stop-opacity="0.35"/>
<stop offset="0.62" stop-color="#F3F4FA" stop-opacity="0.2"/>
<stop offset="0.76" stop-color="#FAFAFD" stop-opacity="0.09"/>
<stop offset="0.9" stop-color="#FEFEFE" stop-opacity="0.02"/>
<stop offset="1" stop-color="white" stop-opacity="0"/>
</linearGradient>
<linearGradient id="paint57_linear_33255_285491" x1="363.913" y1="424.214" x2="383.343" y2="424.214" gradientUnits="userSpaceOnUse">
<stop stop-color="#C4CAE8"/>
<stop offset="0.13" stop-color="#D0D5ED" stop-opacity="0.79"/>
<stop offset="0.3" stop-color="#DEE2F2" stop-opacity="0.55"/>
<stop offset="0.46" stop-color="#EAECF7" stop-opacity="0.35"/>
<stop offset="0.62" stop-color="#F3F4FA" stop-opacity="0.2"/>
<stop offset="0.76" stop-color="#FAFAFD" stop-opacity="0.09"/>
<stop offset="0.9" stop-color="#FEFEFE" stop-opacity="0.02"/>
<stop offset="1" stop-color="white" stop-opacity="0"/>
</linearGradient>
<linearGradient id="paint58_linear_33255_285491" x1="436.458" y1="382.198" x2="455.887" y2="382.198" gradientUnits="userSpaceOnUse">
<stop stop-color="#C4CAE8"/>
<stop offset="0.13" stop-color="#D0D5ED" stop-opacity="0.79"/>
<stop offset="0.3" stop-color="#DEE2F2" stop-opacity="0.55"/>
<stop offset="0.46" stop-color="#EAECF7" stop-opacity="0.35"/>
<stop offset="0.62" stop-color="#F3F4FA" stop-opacity="0.2"/>
<stop offset="0.76" stop-color="#FAFAFD" stop-opacity="0.09"/>
<stop offset="0.9" stop-color="#FEFEFE" stop-opacity="0.02"/>
<stop offset="1" stop-color="white" stop-opacity="0"/>
</linearGradient>
<linearGradient id="paint59_linear_33255_285491" x1="508.994" y1="340.182" x2="528.424" y2="340.182" gradientUnits="userSpaceOnUse">
<stop stop-color="#C4CAE8"/>
<stop offset="0.13" stop-color="#D0D5ED" stop-opacity="0.79"/>
<stop offset="0.3" stop-color="#DEE2F2" stop-opacity="0.55"/>
<stop offset="0.46" stop-color="#EAECF7" stop-opacity="0.35"/>
<stop offset="0.62" stop-color="#F3F4FA" stop-opacity="0.2"/>
<stop offset="0.76" stop-color="#FAFAFD" stop-opacity="0.09"/>
<stop offset="0.9" stop-color="#FEFEFE" stop-opacity="0.02"/>
<stop offset="1" stop-color="white" stop-opacity="0"/>
</linearGradient>
<linearGradient id="paint60_linear_33255_285491" x1="335.254" y1="368.987" x2="366.999" y2="423.798" gradientUnits="userSpaceOnUse">
<stop offset="0.42" stop-color="#F6F6FB"/>
<stop offset="0.52" stop-color="#F2F2FA"/>
<stop offset="0.61" stop-color="#E6E7F5"/>
<stop offset="0.71" stop-color="#D1D4EE"/>
<stop offset="0.79" stop-color="#BBC0E6"/>
</linearGradient>
<linearGradient id="paint61_linear_33255_285491" x1="262.717" y1="411.003" x2="294.462" y2="465.814" gradientUnits="userSpaceOnUse">
<stop offset="0.42" stop-color="#F6F6FB"/>
<stop offset="0.52" stop-color="#F2F2FA"/>
<stop offset="0.61" stop-color="#E6E7F5"/>
<stop offset="0.71" stop-color="#D1D4EE"/>
<stop offset="0.79" stop-color="#BBC0E6"/>
</linearGradient>
<linearGradient id="paint62_linear_33255_285491" x1="407.791" y1="326.971" x2="439.536" y2="381.781" gradientUnits="userSpaceOnUse">
<stop offset="0.42" stop-color="#FBFAF6"/>
<stop offset="0.52" stop-color="#F9FAF2"/>
<stop offset="0.61" stop-color="#F5F2E6"/>
<stop offset="0.71" stop-color="#EEEBD1"/>
<stop offset="0.79" stop-color="#E6E2BB"/>
</linearGradient>
<linearGradient id="paint63_linear_33255_285491" x1="480.328" y1="284.955" x2="512.081" y2="339.765" gradientUnits="userSpaceOnUse">
<stop offset="0.42" stop-color="#FBFAF6"/>
<stop offset="0.52" stop-color="#FAFAF2"/>
<stop offset="0.61" stop-color="#F5F5E6"/>
<stop offset="0.71" stop-color="#EDEED1"/>
<stop offset="0.79" stop-color="#E0E6BB"/>
<stop offset="0.833333" stop-color="#E3E6BB"/>
</linearGradient>
<linearGradient id="paint64_linear_33255_285491" x1="539.875" y1="437.551" x2="539.875" y2="319.694" gradientUnits="userSpaceOnUse">
<stop offset="0.25" stop-color="white" stop-opacity="0"/>
<stop offset="0.28" stop-color="#FEFEFD" stop-opacity="0.04"/>
<stop offset="0.64" stop-color="#F8F3E6" stop-opacity="0.55"/>
<stop offset="0.89" stop-color="#F5F2D7" stop-opacity="0.87"/>
<stop offset="1" stop-color="#F3F0D1"/>
</linearGradient>
<linearGradient id="paint65_linear_33255_285491" x1="500.29" y1="437.551" x2="500.29" y2="319.694" gradientUnits="userSpaceOnUse">
<stop stop-color="white" stop-opacity="0"/>
<stop offset="0.04" stop-color="#FEFEFD" stop-opacity="0.05"/>
<stop offset="0.52" stop-color="#F9F6ED" stop-opacity="0.55"/>
<stop offset="0.85" stop-color="#F5F3E3" stop-opacity="0.87"/>
<stop offset="1" stop-color="#F4F2DF"/>
</linearGradient>
<linearGradient id="paint66_linear_33255_285491" x1="284.374" y1="304.597" x2="304.322" y2="304.597" gradientUnits="userSpaceOnUse">
<stop stop-color="#F3E9D1"/>
<stop offset="0.07" stop-color="#F4F1D5"/>
<stop offset="0.67" stop-color="#FCFCF4"/>
<stop offset="1" stop-color="white"/>
</linearGradient>
<linearGradient id="paint67_linear_33255_285491" x1="292.183" y1="311.6" x2="306.121" y2="311.6" gradientUnits="userSpaceOnUse">
<stop stop-color="#F3ECD1"/>
<stop offset="1" stop-color="#F5F2DA"/>
</linearGradient>
</defs>
</svg>
