<svg width="24" height="24" viewBox="0 0 24 24" fill="none" xmlns="http://www.w3.org/2000/svg">
<path fill-rule="evenodd" clip-rule="evenodd" d="M10.7133 0.055797C6.25137 0.537368 2.41854 3.48992 0.79458 7.69646C-0.200936 10.2752 -0.263158 13.1735 0.620073 15.8259C1.92876 19.756 5.19917 22.7416 9.24786 23.7026C10.2484 23.94 10.7807 23.9979 11.9807 23.9999C12.9293 24.0014 13.1492 23.9896 13.6838 23.9085C16.3042 23.5108 18.6417 22.3459 20.4568 20.5332C22.4387 18.5539 23.6359 16.0505 23.9461 13.2372C24.0614 12.191 23.9876 10.712 23.7651 9.61191C22.7266 4.47693 18.4574 0.600573 13.2393 0.0545678C12.5395 -0.018669 11.3982 -0.0181139 10.7133 0.055797ZM8.32529 8.65769C8.67641 8.76206 8.9388 9.16048 8.86917 9.48356C8.80877 9.76374 8.66045 9.97048 6.21881 13.1778L5.64526 13.9311L7.10002 13.951C8.5299 13.9704 8.55723 13.9723 8.70045 14.0615C8.9956 14.2453 9.11335 14.7789 8.9211 15.0616C8.75376 15.3078 8.65609 15.3507 8.18885 15.3833C7.60877 15.4238 5.22907 15.4224 4.59137 15.3812C4.01897 15.3442 3.83495 15.2818 3.65007 15.0618C3.46649 14.8434 3.46063 14.4459 3.63633 14.1311C3.75028 13.9271 5.52878 11.5823 6.47982 10.3823C6.54034 10.306 6.60767 10.1958 6.62949 10.1375L6.66918 10.0315L5.45337 10.0185L4.2376 10.0056L4.01323 9.9003C3.74917 9.77639 3.65795 9.65482 3.63288 9.39339C3.59533 9.00243 3.76739 8.77237 4.18041 8.66122C4.50387 8.57419 8.0343 8.57117 8.32529 8.65769ZM15.0319 8.68719C15.1611 8.75238 15.2327 8.82407 15.2978 8.95334L15.3869 9.13026V11.9384C15.3869 14.3875 15.379 14.7654 15.3254 14.894C15.2295 15.1237 15.0832 15.2508 14.8559 15.3017C14.4541 15.3918 14.1013 15.1871 14.0061 14.8087C13.9507 14.5883 13.9441 9.37317 13.999 9.13633C14.0743 8.81111 14.3327 8.59798 14.6516 8.59798C14.784 8.59798 14.9171 8.62918 15.0319 8.68719ZM11.3515 10.5404C11.4688 10.5619 11.7075 10.6511 11.8818 10.7386C12.0561 10.8262 12.2232 10.8978 12.2532 10.8978C12.2832 10.8978 12.3757 10.8363 12.4587 10.7613C12.7696 10.4801 13.2323 10.5463 13.5019 10.9106C13.5834 11.0206 13.5848 11.0563 13.5848 12.9597C13.5848 14.8631 13.5834 14.8988 13.5019 15.0088C13.2319 15.3736 12.7871 15.4373 12.4543 15.1589C12.364 15.0834 12.2657 15.0216 12.2358 15.0216C12.2059 15.0216 12.0695 15.0825 11.9326 15.1571C11.6017 15.3372 11.3098 15.4181 10.9906 15.4181C10.1149 15.4181 9.3237 14.7844 8.98491 13.8118C8.88521 13.5257 8.87452 13.4431 8.87452 12.9597C8.87452 12.4762 8.88521 12.3937 8.98491 12.1076C9.37638 10.9837 10.3288 10.353 11.3515 10.5404ZM18.8658 10.6264C19.587 10.847 20.1038 11.3581 20.3635 12.1072C20.4626 12.3931 20.4734 12.4771 20.4734 12.9597C20.4734 13.4427 20.4627 13.5258 20.3635 13.8107C20.0156 14.809 19.1592 15.4167 18.1 15.4167C17.4349 15.4167 16.9138 15.2044 16.4531 14.7456C15.9209 14.2157 15.7154 13.6454 15.7541 12.8054C15.795 11.9186 16.1687 11.2613 16.8722 10.839C17.4209 10.5095 18.2092 10.4254 18.8658 10.6264ZM10.8378 11.935C10.4881 12.1083 10.2965 12.5266 10.3256 13.0535C10.3612 13.7004 10.7043 14.0717 11.2638 14.069C11.4379 14.0682 11.6937 13.9745 11.8238 13.8639C12.2552 13.4972 12.2802 12.5465 11.8697 12.1134C11.6116 11.8412 11.1783 11.7663 10.8378 11.935ZM17.7435 11.913C17.5452 12.0209 17.3772 12.2059 17.2836 12.4197C17.1578 12.707 17.1573 13.2151 17.2827 13.495C17.4476 13.8633 17.7326 14.0674 18.0842 14.069C18.4547 14.0708 18.732 13.9057 18.9026 13.5817C19.0007 13.3954 19.0109 13.3368 19.0109 12.9597C19.0109 12.5672 19.0039 12.5308 18.888 12.3252C18.8173 12.1998 18.6942 12.0569 18.5983 11.9888C18.4565 11.8882 18.3892 11.8689 18.147 11.8594C17.9418 11.8514 17.8292 11.8664 17.7435 11.913Z" fill="#028FE3"/>
</svg>
