<svg width="580" height="479" viewBox="0 0 580 479" fill="none" xmlns="http://www.w3.org/2000/svg">
<path d="M350.612 135.702L310.87 112.718V22.9834L350.612 45.9667V135.702Z" fill="#F5F4DA"/>
<path d="M350.612 135.702L390.354 112.718V22.9834L350.612 45.9667V135.702Z" fill="#F7F6E8"/>
<path d="M350.612 45.9665L390.354 22.9833L350.612 0L310.87 22.9833L350.612 45.9665Z" fill="#F9F8F6"/>
<path opacity="0.33" d="M83.823 389.706C64.6639 352.955 47.0915 318.068 28.1622 299.109C-29.8563 240.994 1.52197 127.57 124.603 138.709C253.615 150.383 247.254 119.105 334.063 90.6412C482.731 41.8899 605.804 135.672 575.331 263.465C502.75 567.765 134.983 487.832 83.823 389.706Z" fill="url(#paint0_linear_33255_285863)"/>
<g style="mix-blend-mode:multiply">
<path d="M140.055 429.323L128.933 453.39C128.774 453.735 128.544 454.042 128.26 454.293C127.975 454.544 127.642 454.733 127.281 454.847C126.919 454.962 126.538 455 126.161 454.959C125.784 454.917 125.42 454.798 125.092 454.608L94.6185 436.986C94.1304 436.703 93.7419 436.276 93.5063 435.763C93.2707 435.25 93.1997 434.676 93.3029 434.121C93.4062 433.566 93.6786 433.056 94.0828 432.662C94.4871 432.269 95.0031 432.01 95.5601 431.922L137.2 425.469C137.686 425.401 138.181 425.465 138.633 425.655C139.085 425.844 139.478 426.153 139.77 426.547C140.062 426.941 140.243 427.407 140.293 427.896C140.343 428.384 140.261 428.877 140.055 429.323Z" fill="#E8ECF7"/>
</g>
<g style="mix-blend-mode:multiply">
<path d="M52.1481 131.053C61.2531 125.788 76.0229 125.788 85.1279 131.053C94.2329 136.318 94.2404 144.858 85.1279 150.123C76.0155 155.388 61.2532 155.395 52.1408 150.123C43.0284 144.85 43.0357 136.318 52.1481 131.053ZM77.3574 145.622C82.162 142.845 82.162 138.33 77.3574 135.553C72.5528 132.776 64.7528 132.768 59.9333 135.553C55.1139 138.338 55.1213 142.845 59.9333 145.622C64.7454 148.4 72.5381 148.407 77.3501 145.622H77.3574Z" fill="#F7F2E8"/>
</g>
<path style="mix-blend-mode:multiply" d="M121.637 228.875H266.998L215.356 258.734L266.998 288.594H121.637V228.875Z" fill="url(#paint1_linear_33255_285863)"/>
<path d="M215.356 133.563L266.998 163.423V288.594L215.356 258.735V133.563Z" fill="#F8F4CE"/>
<path d="M215.356 133.563L266.998 103.703L318.64 133.563L266.998 163.423L215.356 133.563Z" fill="#FFA800"/>
<path d="M255.261 281.807V165.606L258.079 167.232V283.441L255.261 281.807Z" fill="#FFA800"/>
<path d="M244.933 275.836V159.635L247.75 161.262V277.463L244.933 275.836Z" fill="#FFA800"/>
<path d="M234.604 269.866V153.657L237.422 155.284V271.492L234.604 269.866Z" fill="#FFA800"/>
<path d="M224.276 263.895V147.687L227.093 149.313V265.522L224.276 263.895Z" fill="#FFA800"/>
<path d="M318.64 133.563L266.998 163.423V288.594L318.64 258.735V133.563Z" fill="#F9F9EA"/>
<path d="M278.735 281.807V165.606L275.918 167.232V283.441L278.735 281.807Z" fill="#FFA800"/>
<path d="M289.064 275.836V159.635L286.246 161.262V277.463L289.064 275.836Z" fill="#FFA800"/>
<path d="M299.392 269.866V153.657L296.575 155.284V271.492L299.392 269.866Z" fill="#FFA800"/>
<path d="M309.721 263.895L309.713 147.687L306.903 149.313V265.522L309.721 263.895Z" fill="#FFA800"/>
<path d="M226.263 97.8442L266.998 121.399V157.118L226.263 133.563V97.8442Z" fill="#F8F6CE"/>
<path d="M266.998 74.2891L226.263 97.8441L266.998 121.399L307.734 97.8441L266.998 74.2891Z" fill="#FFA800"/>
<path d="M255.409 150.412V123.159L258.22 124.785V152.039L255.409 150.412Z" fill="#FFA800"/>
<path d="M245.222 144.524V117.271L248.039 118.904V146.15L245.222 144.524Z" fill="#FFA800"/>
<path d="M235.042 138.635V111.382L237.852 113.016V140.261L235.042 138.635Z" fill="#FFA800"/>
<path d="M307.734 97.8442L266.998 121.399V157.118L307.734 133.563V97.8442Z" fill="#F9F4EA"/>
<path d="M278.587 150.412V123.159L275.777 124.785V152.039L278.587 150.412Z" fill="#FFA800"/>
<path d="M288.775 144.524V117.271L285.957 118.904V146.15L288.775 144.524Z" fill="#FFA800"/>
<path d="M298.955 138.635V111.382L296.145 113.016V140.261L298.955 138.635Z" fill="#FFA800"/>
<path d="M237.392 71.8906L266.998 89.0074V114.968L237.392 97.8443V71.8906Z" fill="#F7F8CE"/>
<path d="M266.998 54.7661L237.392 71.8903L266.998 89.0071L296.604 71.8903L266.998 54.7661Z" fill="#FFA800"/>
<path d="M258.575 110.097V90.292L260.622 91.4727V111.278L258.575 110.097Z" fill="#FFA800"/>
<path d="M251.168 105.812V86.0073L253.215 87.1955V107L251.168 105.812Z" fill="#FFA800"/>
<path d="M243.769 101.535V81.73L245.815 82.9107V102.716L243.769 101.535Z" fill="#FFA800"/>
<path d="M296.604 71.8906L266.998 89.0074V114.968L296.604 97.8443V71.8906Z" fill="#F9F8EA"/>
<path d="M275.421 110.097V90.292L273.375 91.4727V111.278L275.421 110.097Z" fill="#FFA800"/>
<path d="M282.821 105.812V86.0073L280.782 87.1955V107L282.821 105.812Z" fill="#FFA800"/>
<path d="M290.228 101.535V81.73L288.182 82.9107V102.716L290.228 101.535Z" fill="#FFA800"/>
<path style="mix-blend-mode:multiply" d="M250.145 64.5093H266.998L254.238 71.8907L266.998 79.2646H250.145L237.392 71.8907L250.145 64.5093Z" fill="url(#paint2_linear_33255_285863)"/>
<path d="M254.238 60.4771L266.998 67.851V79.2647L254.238 71.8907V60.4771Z" fill="#CED3F8"/>
<path d="M266.998 53.0952L279.759 60.4766L266.998 67.8506L254.238 60.4766L266.998 53.0952Z" fill="#FFA800"/>
<path d="M279.759 60.4771L266.998 67.851V79.2647L279.759 71.8907V60.4771Z" fill="#EAEEF9"/>
<path style="mix-blend-mode:multiply" d="M258.323 58.1079H266.998L262.839 60.5213L266.998 62.9199H258.479L254.238 60.4768L258.323 58.1079Z" fill="url(#paint3_linear_33255_285863)"/>
<path d="M262.839 53.8306L266.998 56.2366V62.9199L262.839 60.5213V53.8306Z" fill="#CED3F8"/>
<path d="M271.158 53.8306L266.998 56.2366V62.9199L271.158 60.5213V53.8306Z" fill="#EAEEF9"/>
<path d="M266.998 51.4248L262.839 53.8308L266.998 56.2368L271.158 53.8308L266.998 51.4248Z" fill="#FFA800"/>
<path style="mix-blend-mode:multiply" d="M263.855 53.2363H266.998L265.975 53.8304L266.998 54.417H263.855L262.839 53.8304L263.855 53.2363Z" fill="url(#paint4_linear_33255_285863)"/>
<path d="M265.975 31.7163L266.998 32.3104V54.4174L265.975 53.8307V31.7163Z" fill="#FFA800"/>
<path d="M268.022 31.7163L266.998 32.3104V54.4174L268.022 53.8307V31.7163Z" fill="#FFA800"/>
<path d="M266.998 31.1294L265.975 31.716L266.998 32.3101L268.022 31.716L266.998 31.1294Z" fill="#FFA800"/>
<path style="mix-blend-mode:multiply" d="M266.998 157.118H256.44L215.356 133.563L226.263 127.258V133.563L266.998 157.118Z" fill="url(#paint5_linear_33255_285863)"/>
<path style="mix-blend-mode:multiply" d="M266.998 114.968H255.869L226.263 97.8442L237.422 91.3911L237.392 97.8442L266.998 114.968Z" fill="url(#paint6_linear_33255_285863)"/>
<path d="M22.1713 168.494C23.0719 168.036 24.0677 167.798 25.0778 167.798C26.0878 167.798 27.0836 168.036 27.9842 168.494C29.5857 169.423 29.5857 170.93 27.9842 171.858C27.0836 172.316 26.0878 172.555 25.0778 172.555C24.0677 172.555 23.0719 172.316 22.1713 171.858C20.5623 170.93 20.5623 169.423 22.1713 168.494Z" fill="white"/>
<path d="M36.3922 176.722C37.2929 176.265 38.2887 176.026 39.2988 176.026C40.3088 176.026 41.3046 176.265 42.2053 176.722C43.8142 177.651 43.8142 179.158 42.2053 180.086C41.3046 180.544 40.3088 180.783 39.2988 180.783C38.2887 180.783 37.2929 180.544 36.3922 180.086C34.7907 179.158 34.7907 177.651 36.3922 176.722Z" fill="white"/>
<path d="M50.6208 184.95C51.5214 184.493 52.5173 184.254 53.5273 184.254C54.5374 184.254 55.5331 184.493 56.4337 184.95C58.0353 185.879 58.0353 187.379 56.4337 188.307C55.5331 188.765 54.5374 189.004 53.5273 189.004C52.5173 189.004 51.5214 188.765 50.6208 188.307C49.0415 187.401 49.0415 185.916 50.6208 184.95Z" fill="white"/>
<path d="M64.8418 193.171C65.7424 192.713 66.7382 192.474 67.7482 192.474C68.7583 192.474 69.7541 192.713 70.6547 193.171C72.2637 194.099 72.2637 195.606 70.6547 196.535C69.7541 196.993 68.7583 197.231 67.7482 197.231C66.7382 197.231 65.7424 196.993 64.8418 196.535C63.2403 195.606 63.2403 194.084 64.8418 193.171Z" fill="white"/>
<path d="M79.0703 201.399C79.9709 200.941 80.9667 200.702 81.9768 200.702C82.9868 200.702 83.9826 200.941 84.8832 201.399C86.4847 202.327 86.4847 203.834 84.8832 204.763C83.9826 205.221 82.9868 205.459 81.9768 205.459C80.9667 205.459 79.9709 205.221 79.0703 204.763C77.4613 203.834 77.4613 202.327 79.0703 201.399Z" fill="white"/>
<path d="M357.166 238.046L316.816 214.713V123.627L357.166 146.959V238.046Z" fill="#F5F2DA"/>
<path d="M357.166 238.046L397.509 214.713V123.627L357.166 146.959V238.046Z" fill="#F7F6E8"/>
<path d="M357.166 146.959L397.509 123.627L357.166 100.302L316.816 123.627L357.166 146.959Z" fill="white"/>
<path style="mix-blend-mode:multiply" d="M93.5805 234.57H113.058L74.8217 256.677L113.058 278.792H93.5805L55.3438 256.677L93.5805 234.57Z" fill="url(#paint7_linear_33255_285863)"/>
<path d="M113.058 264.17L151.288 242.063L113.051 219.956L74.8217 242.063L113.058 264.17Z" fill="#FFA800"/>
<path d="M113.051 256.462L137.956 242.063L113.051 227.664L88.1531 242.063L113.051 256.462Z" fill="#FFA800"/>
<path d="M113.058 278.792L151.288 256.685V242.063L113.058 264.17V278.792Z" fill="#FFA800"/>
<path d="M134.701 256.039L129.645 258.965V264.817L134.701 261.891V256.039Z" fill="#FFA800"/>
<path d="M145.141 250.001L140.077 252.927V258.779L145.141 255.853V250.001Z" fill="#FFA800"/>
<path d="M119.205 265.002L124.269 262.069V267.928L119.205 270.854V265.002Z" fill="#FFA800"/>
<path d="M113.058 278.792L74.8217 256.685V242.063L113.058 264.17V278.792Z" fill="#FFA800"/>
<path d="M91.408 256.039L96.472 258.965V264.817L91.408 261.891V256.039Z" fill="#FFA800"/>
<path d="M80.9683 250.001L86.0325 252.927V258.779L80.9683 255.853V250.001Z" fill="#FFA800"/>
<path d="M106.904 265.002L101.848 262.069V267.928L106.904 270.854V265.002Z" fill="#FFA800"/>
<path d="M363.913 338.34C367.02 340.137 367.02 343.078 363.913 344.875L350.656 352.539C347.542 354.336 347.542 357.276 350.656 359.073L391.206 382.517C394.313 384.314 394.313 387.255 391.206 389.052L368.466 402.203C366.714 403.09 364.779 403.551 362.816 403.551C360.853 403.551 358.918 403.09 357.166 402.203L264.767 348.737C261.66 346.939 261.66 343.999 264.767 342.202L312.071 314.852C313.823 313.966 315.758 313.504 317.721 313.504C319.684 313.504 321.619 313.966 323.371 314.852L363.913 338.34Z" fill="#FFA800"/>
<path d="M355.965 282.817L258.976 338.89C252.659 342.536 252.659 348.462 258.976 352.115L379.091 421.548L357.9 433.801L237.785 364.368C219.768 353.972 219.768 337.056 237.785 326.637L334.774 270.571L355.965 282.817Z" fill="url(#paint8_radial_33255_285863)"/>
<path d="M248.648 357.655L246.957 358.635C241.315 355.123 238.208 350.526 238.208 345.618C238.208 340.709 241.315 336.12 246.957 332.607L248.648 333.588C243.02 336.84 239.921 341.11 239.921 345.618C239.921 350.125 243.02 354.403 248.648 357.655Z" fill="white"/>
<path d="M259.013 325.635L251.413 330.031L253.111 331.004L260.711 326.615L259.013 325.635Z" fill="white"/>
<path d="M271.069 318.662L263.469 323.058L265.167 324.038L272.759 319.642L271.069 318.662Z" fill="white"/>
<path d="M283.125 311.689L275.525 316.085L277.216 317.065L284.815 312.669L283.125 311.689Z" fill="white"/>
<path d="M295.181 304.723L287.581 309.112L289.272 310.092L296.871 305.696L295.181 304.723Z" fill="white"/>
<path d="M307.229 297.75L299.637 302.139L301.327 303.119L308.927 298.723L307.229 297.75Z" fill="white"/>
<path d="M319.285 290.777L311.693 295.166L313.384 296.146L320.983 291.758L319.285 290.777Z" fill="white"/>
<path d="M331.341 283.804L323.742 288.2L325.44 289.181L333.032 284.784L331.341 283.804Z" fill="white"/>
<path d="M343.397 276.832L335.798 281.228L337.496 282.208L345.088 277.812L343.397 276.832Z" fill="white"/>
<path d="M259.013 365.608L251.413 361.212L253.111 360.239L260.711 364.628L259.013 365.608Z" fill="white"/>
<path d="M271.069 372.581L263.469 368.185L265.167 367.205L272.759 371.601L271.069 372.581Z" fill="white"/>
<path d="M283.125 379.555L275.525 375.158L277.223 374.178L284.815 378.574L283.125 379.555Z" fill="white"/>
<path d="M295.181 386.52L287.581 382.131L289.272 381.151L296.871 385.547L295.181 386.52Z" fill="white"/>
<path d="M307.237 393.493L299.637 389.104L301.327 388.124L308.927 392.513L307.237 393.493Z" fill="white"/>
<path d="M319.285 400.466L311.693 396.07L313.384 395.089L320.983 399.486L319.285 400.466Z" fill="white"/>
<path d="M331.341 407.439L323.749 403.043L325.439 402.062L333.039 406.459L331.341 407.439Z" fill="white"/>
<path d="M343.397 414.412L335.798 410.015L337.496 409.035L345.088 413.431L343.397 414.412Z" fill="white"/>
<path style="mix-blend-mode:multiply" d="M313.732 317.021H314.963L318.107 318.847H320.457V319.337H318.366L310.514 323.882H311.745V324.38H309.654L309.528 324.454H308.297L304.59 322.308L313.732 317.021Z" fill="url(#paint9_linear_33255_285863)"/>
<path d="M311.315 324.127L311.745 324.38V321.959L311.315 321.714V324.127Z" fill="#FFA800"/>
<path d="M312.175 324.127L311.745 324.38V321.959L312.175 321.714V324.127Z" fill="#FFA800"/>
<path d="M309.884 322.806L309.454 323.051V320.637L309.884 320.385V322.806Z" fill="#FFA800"/>
<path d="M309.454 323.051L309.024 322.806V320.385L309.454 320.637V323.051Z" fill="#FFA800"/>
<path d="M320.027 319.092L320.457 319.337V316.924L320.027 316.671V319.092Z" fill="#FFA800"/>
<path d="M320.887 319.092L320.457 319.337V316.924L320.887 316.671V319.092Z" fill="#FFA800"/>
<path d="M312.242 321.535L321.376 316.248L317.669 314.109L308.534 319.389L312.242 321.535Z" fill="#FFA800"/>
<path d="M308.534 318.996L317.669 313.716L317.068 310.278L307.926 315.565L308.534 318.996Z" fill="#FFA800"/>
<path d="M307.927 315.565L317.069 310.278L316.468 310.085L307.326 315.372L307.927 315.565Z" fill="#FFA800"/>
<path d="M312.242 322.248L321.376 316.961V316.248L312.242 321.535V322.248Z" fill="#FFA800"/>
<path d="M308.534 320.103L312.242 322.249V321.536L308.534 319.39V320.103Z" fill="#FFA800"/>
<path d="M307.326 315.372L307.934 318.81L308.534 318.996L307.926 315.565L307.326 315.372Z" fill="#FFA800"/>
<path style="mix-blend-mode:multiply" d="M300.653 324.588H301.876L305.027 326.407H307.378V326.905H305.287L297.435 331.442H298.666V331.94H296.575L296.449 332.014H295.218L291.511 329.875L300.653 324.588Z" fill="url(#paint10_linear_33255_285863)"/>
<path d="M298.236 331.694L298.666 331.939V329.526L298.236 329.281V331.694Z" fill="#FFA800"/>
<path d="M299.096 331.694L298.666 331.939V329.526L299.096 329.281V331.694Z" fill="#FFA800"/>
<path d="M296.797 330.365L296.375 330.618V328.197L296.797 327.952V330.365Z" fill="#FFA800"/>
<path d="M296.375 330.618L295.945 330.365V327.952L296.375 328.197V330.618Z" fill="#FFA800"/>
<path d="M306.948 326.652L307.378 326.905V324.484L306.948 324.239V326.652Z" fill="#FFA800"/>
<path d="M307.808 326.652L307.378 326.905V324.484L307.808 324.239V326.652Z" fill="#FFA800"/>
<path d="M299.155 329.103L308.297 323.816L304.59 321.669L295.448 326.957L299.155 329.103Z" fill="#FFA800"/>
<path d="M295.448 326.563L304.59 321.276L303.989 317.837L294.847 323.125L295.448 326.563Z" fill="#FFA800"/>
<path d="M294.847 323.125L303.989 317.838L303.389 317.652L294.247 322.939L294.847 323.125Z" fill="#FFA800"/>
<path d="M299.155 329.808L308.297 324.521V323.815L299.155 329.103V329.808Z" fill="#FFA800"/>
<path d="M295.448 327.669L299.155 329.808V329.103L295.448 326.957V327.669Z" fill="#FFA800"/>
<path d="M294.247 322.939L294.855 326.37L295.448 326.563L294.847 323.125L294.247 322.939Z" fill="#FFA800"/>
<path style="mix-blend-mode:multiply" d="M101.284 345.878L325.15 475.327V473.396L101.284 343.947V345.878Z" fill="url(#paint11_linear_33255_285863)"/>
<path d="M101.284 343.947L325.15 473.396L342.804 463.193L118.938 333.744L101.284 343.947Z" fill="url(#paint12_linear_33255_285863)"/>
<path d="M113.852 336.684L337.718 466.133L338.971 465.405L115.097 335.957L113.852 336.684Z" fill="url(#paint13_linear_33255_285863)"/>
<path d="M106.37 341.006L330.237 470.455L328.991 471.176L105.117 341.727L106.37 341.006Z" fill="url(#paint14_linear_33255_285863)"/>
<path style="mix-blend-mode:multiply" d="M356.914 265.804H424.742L425.787 265.195H446.667L405.16 289.195L446.667 313.196H425.787L424.742 312.595H356.914V265.804Z" fill="url(#paint15_linear_33255_285863)"/>
<path style="mix-blend-mode:multiply" d="M247.431 338.125V278.161H375.584L323.734 308.147L375.584 338.125H247.431Z" fill="url(#paint16_linear_33255_285863)"/>
<path d="M375.584 216.005L323.734 186.02V305.941L375.584 335.927V216.005Z" fill="#FFA800"/>
<path d="M375.584 216.005L427.434 186.02V305.941L375.584 335.927V216.005Z" fill="#FFA800"/>
<path d="M323.734 183.822L375.584 153.843L427.434 183.822L375.584 213.808L323.734 183.822Z" fill="#F6F6F1"/>
<path d="M375.584 216.006L427.434 186.02V183.822L375.584 213.808V216.006Z" fill="#F8EFCE"/>
<path d="M375.584 216.006L323.734 186.02V183.822L375.584 213.808V216.006Z" fill="#E6DABB"/>
<path d="M375.584 338.125L427.434 308.146V303.906L375.584 333.885V338.125Z" fill="#FFA800"/>
<path d="M375.584 338.125L323.734 308.146V303.906L375.584 333.885V338.125Z" fill="#FFA800"/>
<g style="mix-blend-mode:multiply">
<path d="M332.098 183.821L375.584 208.966H369.126L325.64 183.821H332.098Z" fill="url(#paint17_linear_33255_285863)"/>
<path d="M375.584 158.677L332.098 183.821H325.64L369.126 158.677H375.584Z" fill="url(#paint18_linear_33255_285863)"/>
</g>
<path d="M375.584 154.942L332.098 180.087L375.584 205.231L419.063 180.087L375.584 154.942Z" fill="white"/>
<path d="M332.098 180.086L375.584 205.231V208.966L332.098 183.822V180.086Z" fill="#E6E2BB"/>
<path d="M419.07 180.086L375.584 205.231V208.966L419.07 183.822V180.086Z" fill="#F8EFCE"/>
<path d="M426.262 207.971L375.584 237.274V234.593L426.262 205.29V207.971Z" fill="#FFA800"/>
<path d="M426.262 227.828L375.584 257.138V254.45L426.262 225.147V227.828Z" fill="#FFA800"/>
<path d="M426.262 247.685L375.584 276.995V274.314L426.262 245.004V247.685Z" fill="#FFA800"/>
<path d="M426.262 267.549L375.584 296.852V294.171L426.262 264.868V267.549Z" fill="#FFA800"/>
<path d="M426.262 287.406L375.584 316.709V314.028L426.262 284.725V287.406Z" fill="#FFA800"/>
<path d="M415.615 192.859L413.316 194.188V312.067L415.615 310.738V192.859Z" fill="#FFA800"/>
<path d="M402.654 200.352L400.356 201.681V319.56L402.654 318.238V200.352Z" fill="#FFA800"/>
<path d="M389.694 207.845L387.395 209.174V327.061L389.694 325.731V207.845Z" fill="#FFA800"/>
<path d="M324.898 207.971L375.584 237.274V234.593L324.898 205.29V207.971Z" fill="#FFA800"/>
<path d="M324.898 227.828L375.584 257.138V254.45L324.898 225.147V227.828Z" fill="#FFA800"/>
<path d="M324.898 247.685L375.584 276.995V274.314L324.898 245.004V247.685Z" fill="#FFA800"/>
<path d="M324.898 267.549L375.584 296.852V294.171L324.898 264.868V267.549Z" fill="#FFA800"/>
<path d="M324.898 287.406L375.584 316.709V314.028L324.898 284.725V287.406Z" fill="#FFA800"/>
<path d="M335.545 192.859L337.844 194.188V312.067L335.545 310.738V192.859Z" fill="#FFA800"/>
<path d="M348.506 200.352L350.805 201.681V319.56L348.506 318.238V200.352Z" fill="#FFA800"/>
<path d="M361.467 207.845L363.773 209.174V327.061L361.467 325.731V207.845Z" fill="#FFA800"/>
<path style="mix-blend-mode:multiply" d="M305.517 338.125H404.471L367.851 359.296L404.471 380.468H305.517L268.904 359.296L305.517 338.125Z" fill="url(#paint19_linear_33255_285863)"/>
<path d="M367.851 359.296L404.471 380.468V323.251L367.851 302.08V359.296Z" fill="#E6E2BB"/>
<path d="M376.711 312.112L372.959 309.944V316.88L376.711 319.048V312.112Z" fill="#FFA800"/>
<path d="M384.259 316.478L380.507 314.31V321.246L384.259 323.414V316.478Z" fill="#FFA800"/>
<path d="M391.814 320.845L388.062 318.677V325.613L391.814 327.781V320.845Z" fill="#FFA800"/>
<path d="M399.362 325.211L395.61 323.043V329.979L399.362 332.155V325.211Z" fill="#FFA800"/>
<path d="M376.711 324.469L372.959 322.293V329.236L376.711 331.405V324.469Z" fill="#F8F4CE"/>
<path d="M384.259 328.835L380.507 326.66V333.595L384.259 335.771V328.835Z" fill="#FFA800"/>
<path d="M391.814 333.202L388.062 331.026V337.969L391.814 340.138V333.202Z" fill="#FFA800"/>
<path d="M399.362 337.568L395.61 335.393V342.336L399.362 344.504V337.568Z" fill="#FFA800"/>
<path d="M376.711 336.818L372.959 334.65V341.586L376.711 343.754V336.818Z" fill="#FFA800"/>
<path d="M384.259 341.184L380.507 339.016V345.952L384.259 348.12V341.184Z" fill="#CED3F8"/>
<path d="M391.814 345.551L388.062 343.383V350.319L391.814 352.487V345.551Z" fill="#FFA800"/>
<path d="M399.362 349.917L395.61 347.749V354.685L399.362 356.853V349.917Z" fill="#FFA800"/>
<path d="M376.711 349.167L372.959 346.999V353.935L376.711 356.103V349.167Z" fill="#FFA800"/>
<path d="M384.259 353.534L380.507 351.366V358.302L384.259 360.47V353.534Z" fill="#FFA800"/>
<path d="M391.814 357.9L388.062 355.732V362.668L391.814 364.836V357.9Z" fill="#CED3F8"/>
<path d="M399.362 362.267L395.61 360.099V367.034L399.362 369.203V362.267Z" fill="#FFA800"/>
<path d="M366.041 302.079L404.471 324.298V313.129L366.041 290.903V302.079Z" fill="#E6DDBB"/>
<path d="M442.9 302.079L404.471 324.298V313.129L442.9 290.903V302.079Z" fill="#CED3F8"/>
<g style="mix-blend-mode:multiply">
<path d="M441.084 305.013L404.471 326.288V324.298L441.084 303.03V305.013Z" fill="#DAE0F5"/>
</g>
<g style="mix-blend-mode:multiply">
<path d="M367.851 305.013L404.471 326.288V324.298L367.851 303.03V305.013Z" fill="#F3EED1"/>
</g>
<path d="M366.041 290.903L404.471 268.685L442.9 290.903L404.471 313.129L366.041 290.903Z" fill="#FBFAF6"/>
<path d="M373.5 290.903L404.471 273L435.441 290.903L404.471 308.815L373.5 290.903Z" fill="#F6F6F1"/>
<path d="M433.677 291.921L404.471 275.034V273L435.441 290.903L433.677 291.921Z" fill="#BBC0E6"/>
<path d="M375.265 291.921L404.471 275.034V273L373.5 290.903L375.265 291.921Z" fill="#F8EFCE"/>
<path style="mix-blend-mode:multiply" d="M266.998 265.871L310.714 240.593V263.324L266.998 288.594V265.871Z" fill="url(#paint20_linear_33255_285863)"/>
<path style="mix-blend-mode:multiply" d="M267.206 157.177H256.603L215.356 133.526L226.308 127.191V133.526L267.206 157.177Z" fill="url(#paint21_linear_33255_285863)"/>
<path style="mix-blend-mode:multiply" d="M195.508 282.327H222.437L205.347 292.211L222.437 302.094H195.508L178.417 292.211L195.508 282.327Z" fill="url(#paint22_linear_33255_285863)"/>
<path d="M222.437 302.095L205.347 292.211V272.443L222.437 282.327V302.095Z" fill="#E6E2BB"/>
<path d="M222.437 302.095L239.528 292.211V272.443L222.437 282.327V302.095Z" fill="#F8F1CE"/>
<path d="M222.437 282.327L239.528 272.443L222.437 262.566L205.347 272.443L222.437 282.327Z" fill="#F6F6F1"/>
<path style="mix-blend-mode:multiply" d="M228.925 298.345V278.577L239.528 272.443V292.211L228.925 298.345Z" fill="url(#paint23_linear_33255_285863)"/>
<path style="mix-blend-mode:multiply" d="M87.3004 294.52H165.286L166.754 293.666H177.112L134.093 318.543L177.112 343.42H166.754L165.286 342.573L87.3004 342.566V294.52Z" fill="url(#paint24_linear_33255_285863)"/>
<path d="M134.093 312.558L177.112 337.434V343.42L134.093 318.543V312.558Z" fill="#E6E4BB"/>
<path d="M220.139 312.558L177.112 337.434V343.42L220.139 318.543V312.558Z" fill="#F8EFCE"/>
<path d="M177.112 287.681L134.093 312.558L177.112 337.434L220.139 312.558L177.112 287.681Z" fill="#F6F4F0"/>
<path d="M137.311 210.288L177.12 233.301V335.571L137.319 312.558L137.311 210.288Z" fill="#E6DFBB"/>
<path d="M142.412 224.122L172.018 241.239V244.506L142.412 227.389V224.122Z" fill="#FFA800"/>
<path d="M142.412 230.657L172.018 247.774V251.041L142.412 233.924V230.657Z" fill="#FFA800"/>
<path d="M142.42 237.192L172.018 254.309V257.576L142.412 240.459L142.42 237.192Z" fill="#FFA800"/>
<path d="M142.412 243.727L172.018 260.843V264.111L142.412 246.994V243.727Z" fill="#FFA800"/>
<path d="M142.412 250.261L172.018 267.378V270.645L142.412 253.521V250.261Z" fill="#FFA800"/>
<path d="M142.42 256.796L172.018 273.913V277.173L142.42 260.056V256.796Z" fill="#FFA800"/>
<path d="M142.412 263.324L172.018 280.441V283.708L142.412 266.591V263.324Z" fill="#FFA800"/>
<path d="M142.412 269.858L172.018 286.975V290.243L142.412 273.126V269.858Z" fill="#FFA800"/>
<path d="M142.412 276.394L172.018 293.51V296.778L142.42 279.661L142.412 276.394Z" fill="#FFA800"/>
<path d="M142.42 282.928L172.018 300.045V303.312L142.412 286.196L142.42 282.928Z" fill="#FFA800"/>
<path d="M142.412 289.463L172.018 306.58V309.847L142.412 292.73V289.463Z" fill="#FFA800"/>
<path d="M142.412 295.998L172.018 313.114V316.382L142.412 299.265V295.998Z" fill="#FFA800"/>
<path d="M142.412 302.525L172.018 319.642V322.917L142.42 305.8L142.412 302.525Z" fill="#FFA800"/>
<path d="M142.412 309.06L172.018 326.177V329.444L142.412 312.327V309.06Z" fill="#FFA800"/>
<path d="M216.921 210.288L177.12 233.301L177.112 335.571L216.921 312.558V210.288Z" fill="#F8F4CE"/>
<path d="M211.82 224.122L182.213 241.239V244.506L211.82 227.389V224.122Z" fill="#FFA800"/>
<path d="M211.82 230.657L182.213 247.774V251.041L211.82 233.924V230.657Z" fill="#FFA800"/>
<path d="M211.82 237.192L182.213 254.309V257.576L211.82 240.459V237.192Z" fill="#FFA800"/>
<path d="M211.82 243.727L182.213 260.843V264.111L211.82 246.994V243.727Z" fill="#FFA800"/>
<path d="M211.82 250.261L182.213 267.378V270.645L211.82 253.521V250.261Z" fill="#FFA800"/>
<path d="M211.82 256.796L182.213 273.913V277.173L211.82 260.056V256.796Z" fill="#FFA800"/>
<path d="M211.82 263.324L182.213 280.441V283.708L211.82 266.591V263.324Z" fill="#FFA800"/>
<path d="M211.82 269.858L182.213 286.975V290.243L211.82 273.126V269.858Z" fill="#FFA800"/>
<path d="M211.82 276.394L182.213 293.51V296.778L211.82 279.661V276.394Z" fill="#FFA800"/>
<path d="M211.82 282.928L182.213 300.045V303.312L211.82 286.196V282.928Z" fill="#FFA800"/>
<path d="M211.82 289.463L182.213 306.58V309.847L211.82 292.73V289.463Z" fill="#FFA800"/>
<path d="M211.82 295.998L182.213 313.114V316.382L211.82 299.265V295.998Z" fill="#FFA800"/>
<path d="M211.82 302.525L182.213 319.642V322.917L211.82 305.8V302.525Z" fill="#FFA800"/>
<path d="M211.82 309.06L182.213 326.177V329.444L211.82 312.327V309.06Z" fill="#FFA800"/>
<path d="M130.72 206.552L177.12 233.375V237.11L130.72 210.287V206.552Z" fill="#FFA800"/>
<path d="M223.512 206.552L177.12 233.375V237.11L223.512 210.287V206.552Z" fill="#FFA800"/>
<g style="mix-blend-mode:multiply">
<path d="M216.921 214.097L177.12 237.11V239.375L216.921 216.362V214.097Z" fill="#F5F1DA"/>
</g>
<g style="mix-blend-mode:multiply">
<path d="M137.311 214.097L177.112 237.11V239.375L137.311 216.362V214.097Z" fill="#F3F0D1"/>
</g>
<path d="M177.112 179.723L130.72 206.553L177.12 233.375L223.512 206.553L177.112 179.723Z" fill="#FBFBF6"/>
<path d="M177.112 183.532L137.311 206.553L177.12 229.566L216.921 206.553L177.112 183.532Z" fill="#F1F1F6"/>
<path d="M215.416 207.421L177.112 185.27V183.532L216.921 206.553L215.416 207.421Z" fill="#E6DABB"/>
<path style="mix-blend-mode:multiply" d="M213.918 208.29L175.615 186.138L177.112 185.27L215.416 207.421L213.918 208.29Z" fill="url(#paint25_linear_33255_285863)"/>
<path d="M138.816 207.421L177.112 185.27V183.532L137.311 206.553L138.816 207.421Z" fill="#F8EFCE"/>
<path d="M144.978 201.265L155.425 195.228L163.299 199.78L152.852 205.817L144.978 201.265Z" fill="white"/>
<path d="M152.852 205.817L163.299 199.78V203.879L152.852 209.916V205.817Z" fill="#FFA800"/>
<path d="M152.852 205.817L144.978 201.265V205.364L152.852 209.916V205.817Z" fill="#FFA800"/>
<path style="mix-blend-mode:multiply" d="M145.771 209.916L140.136 206.656V204.919L144.978 202.119L144.985 205.364L152.852 209.916H145.771Z" fill="url(#paint26_linear_33255_285863)"/>
<path d="M177.112 335.571H173.894L134.093 312.558L137.319 310.694V312.558L177.112 335.571Z" fill="url(#paint27_linear_33255_285863)"/>
<path style="mix-blend-mode:multiply" d="M323.734 115.429C332.832 116.476 341.662 118.399 347.624 120.761L360.399 122.602L358.449 123.731L354.349 124.904C354.6 125.198 354.754 125.563 354.791 125.948C354.829 126.333 354.746 126.721 354.556 127.058C354.163 127.711 350.849 129.657 349.915 130.028C347.068 131.105 342.219 131.751 335.738 131.751C331.868 131.751 327.79 131.521 323.734 131.112V115.429Z" fill="url(#paint28_linear_33255_285863)"/>
<path d="M363.58 118.882L361.63 120.018L358.449 123.731L360.406 122.602L363.58 118.882Z" fill="url(#paint29_linear_33255_285863)"/>
<path d="M344.599 94.5766C344.599 85.7249 350.797 82.1456 358.449 86.5641C366.101 90.9825 372.314 101.75 372.314 110.602C372.314 118.176 367.762 121.889 361.645 120.018L358.471 123.731L355.29 116.305C349.151 111.144 344.599 102.159 344.599 94.5766Z" fill="#FFA800"/>
<path d="M372.314 110.602C372.314 101.75 366.116 90.9975 358.471 86.5717C354.764 84.4256 351.383 84.1731 348.899 85.4875L350.419 84.6038C352.94 83.0147 356.484 83.1632 360.421 85.443C368.073 89.8985 374.271 100.622 374.271 109.466C374.271 113.758 372.789 116.803 370.446 118.303L368.488 119.439C370.831 117.931 372.314 114.887 372.314 110.602Z" fill="url(#paint30_linear_33255_285863)"/>
<path d="M358.449 92.4899C357.218 91.7473 356.225 92.3562 356.225 93.7671C356.265 94.5379 356.487 95.2881 356.874 95.9557C357.261 96.6233 357.801 97.1891 358.449 97.6064C359.672 98.349 360.673 97.7474 360.673 96.3365C360.631 95.5651 360.408 94.8146 360.022 94.1461C359.635 93.4776 359.096 92.9101 358.449 92.4899Z" fill="white"/>
<path d="M361.378 104.037V101.936L355.498 98.5347V100.636L356.758 101.364V109.391L355.498 108.664V110.765L361.378 114.166V112.065L360.125 111.337V103.31L361.378 104.037Z" fill="white"/>
<path style="mix-blend-mode:multiply" d="M280.723 347.913L276.363 350.437L280.723 352.962H270.016V347.913H280.723Z" fill="url(#paint31_linear_33255_285863)"/>
<path d="M285.09 344.927L280.723 342.41L276.363 344.927L280.723 347.452L285.09 344.927Z" fill="#F5F5FA"/>
<path d="M284.089 344.927L280.723 342.981L277.364 344.927L280.723 346.873L284.089 344.927Z" fill="#FFA800"/>
<path d="M280.723 352.962L285.09 350.437V344.927L280.723 347.452V352.962Z" fill="#CED3F8"/>
<path d="M280.723 352.962L276.363 350.437V344.927L280.723 347.452V352.962Z" fill="#BBC0E6"/>
<path style="mix-blend-mode:multiply" d="M277.104 344.497H280.723V345.306H277.023L276.363 344.927L277.104 344.497Z" fill="url(#paint32_linear_33255_285863)"/>
<path d="M281.383 335.422L280.723 335.801V345.306L281.383 344.927V335.422Z" fill="#FFA800"/>
<path d="M280.07 335.422L280.723 335.801V345.306L280.07 344.927V335.422Z" fill="#FFA800"/>
<path d="M289.153 331.048C289.153 328.809 288.265 326.661 286.684 325.078C285.103 323.495 282.958 322.605 280.723 322.605C278.487 322.605 276.342 323.495 274.762 325.078C273.181 326.661 272.292 328.809 272.292 331.048C272.292 332.157 272.51 333.255 272.934 334.279C273.358 335.304 273.979 336.235 274.762 337.019C275.544 337.803 276.474 338.425 277.497 338.849C278.519 339.273 279.616 339.492 280.723 339.492C281.83 339.492 282.926 339.273 283.949 338.849C284.972 338.425 285.901 337.803 286.684 337.019C287.467 336.235 288.088 335.304 288.511 334.279C288.935 333.255 289.153 332.157 289.153 331.048Z" fill="url(#paint33_radial_33255_285863)"/>
<path style="mix-blend-mode:multiply" d="M299.815 358.955L295.455 361.48L299.815 364.005H289.108V358.955H299.815Z" fill="url(#paint34_linear_33255_285863)"/>
<path d="M304.182 355.97L299.822 353.445L295.455 355.97L299.822 358.494L304.182 355.97Z" fill="#F5F5FA"/>
<path d="M303.181 355.97L299.822 354.024L296.456 355.97L299.822 357.915L303.181 355.97Z" fill="#FFA800"/>
<path d="M299.815 364.005L304.182 361.48V355.97L299.815 358.495V364.005Z" fill="#CED3F8"/>
<path d="M299.815 364.005L295.455 361.48V355.97L299.815 358.495V364.005Z" fill="#BBC0E6"/>
<path style="mix-blend-mode:multiply" d="M296.197 355.539H299.815V356.348H296.115L295.455 355.97L296.197 355.539Z" fill="url(#paint35_linear_33255_285863)"/>
<path d="M300.475 346.464L299.815 346.843V356.348L300.475 355.97V346.464Z" fill="#FFA800"/>
<path d="M299.162 346.464L299.815 346.843V356.348L299.162 355.97V346.464Z" fill="#FFA800"/>
<path d="M308.245 342.091C308.245 340.982 308.027 339.884 307.603 338.86C307.18 337.835 306.559 336.904 305.776 336.12C304.993 335.336 304.064 334.714 303.041 334.29C302.018 333.866 300.922 333.647 299.815 333.647C298.708 333.647 297.612 333.866 296.589 334.29C295.566 334.714 294.637 335.336 293.854 336.12C293.071 336.904 292.45 337.835 292.026 338.86C291.603 339.884 291.385 340.982 291.385 342.091C291.385 344.33 292.273 346.478 293.854 348.061C295.435 349.644 297.579 350.534 299.815 350.534C302.051 350.534 304.195 349.644 305.776 348.061C307.357 346.478 308.245 344.33 308.245 342.091Z" fill="url(#paint36_radial_33255_285863)"/>
<path style="mix-blend-mode:multiply" d="M318.915 369.997L314.548 372.522L318.915 375.039H308.201V369.997H318.915Z" fill="url(#paint37_linear_33255_285863)"/>
<path d="M323.274 367.012L318.915 364.487L314.548 367.012L318.915 369.53L323.274 367.012Z" fill="#F5F5FA"/>
<path d="M322.274 367.012L318.915 365.066L315.549 367.012L318.915 368.958L322.274 367.012Z" fill="#FFA800"/>
<path d="M318.915 375.039L323.275 372.522V367.012L318.915 369.529V375.039Z" fill="#CED3F8"/>
<path d="M318.915 375.039L314.548 372.522V367.012L318.915 369.529V375.039Z" fill="#BBC0E6"/>
<path style="mix-blend-mode:multiply" d="M315.289 366.581H318.915V367.39H315.207L314.548 367.012L315.289 366.581Z" fill="url(#paint38_linear_33255_285863)"/>
<path d="M319.567 357.507L318.915 357.886V367.391L319.567 367.012V357.507Z" fill="#FFA800"/>
<path d="M318.255 357.507L318.915 357.886V367.391L318.255 367.012V357.507Z" fill="#FFA800"/>
<path d="M327.338 353.133C327.338 350.897 326.453 348.752 324.877 347.168C323.301 345.584 321.162 344.69 318.93 344.682C316.693 344.684 314.549 345.575 312.968 347.16C311.387 348.745 310.499 350.893 310.499 353.133C310.499 355.372 311.387 357.52 312.968 359.103C314.549 360.687 316.694 361.576 318.93 361.576C321.162 361.57 323.3 360.678 324.876 359.095C326.453 357.513 327.338 355.368 327.338 353.133Z" fill="url(#paint39_radial_33255_285863)"/>
<path style="mix-blend-mode:multiply" d="M338.007 381.04L333.64 383.557L338.007 386.082H327.301V381.04H338.007Z" fill="url(#paint40_linear_33255_285863)"/>
<path d="M342.367 378.054L338.007 375.529L333.64 378.054L338.007 380.571L342.367 378.054Z" fill="#F5F5FA"/>
<path d="M341.366 378.054L338.007 376.109L334.641 378.054L338.007 379.993L341.366 378.054Z" fill="#FFA800"/>
<path d="M338.007 386.082L342.367 383.557V378.054L338.007 380.572V386.082Z" fill="#CED3F8"/>
<path d="M338.007 386.082L333.64 383.557V378.054L338.007 380.572V386.082Z" fill="#BBC0E6"/>
<path style="mix-blend-mode:multiply" d="M334.389 377.624H338.007V378.426H334.3L333.64 378.054L334.389 377.624Z" fill="url(#paint41_linear_33255_285863)"/>
<path d="M338.66 368.542L338.007 368.921V378.426L338.66 378.055V368.542Z" fill="#FFA800"/>
<path d="M337.347 368.542L338.007 368.921V378.426L337.347 378.055V368.542Z" fill="#FFA800"/>
<path d="M346.43 364.138C346.43 361.899 345.542 359.751 343.961 358.168C342.38 356.584 340.236 355.695 338 355.695C335.764 355.695 333.62 356.584 332.039 358.168C330.458 359.751 329.569 361.899 329.569 364.138C329.569 366.377 330.458 368.525 332.039 370.108C333.62 371.692 335.764 372.581 338 372.581C340.236 372.581 342.38 371.692 343.961 370.108C345.542 368.525 346.43 366.377 346.43 364.138Z" fill="url(#paint42_radial_33255_285863)"/>
<g style="mix-blend-mode:multiply">
<path d="M301.387 307.753H304.931V308.822H301.387V307.753Z" fill="#E7E8C4"/>
</g>
<g style="mix-blend-mode:multiply">
<path d="M284.363 317.592H287.907V318.662H284.363V317.592Z" fill="#E8E4C4"/>
</g>
<path style="mix-blend-mode:multiply" d="M263.988 312.877L268.748 310.129L264.552 307.701L274.873 301.738V301.731L280.396 301.122L283.162 306.528L287.025 308.763L276.711 314.726V315.818L283.777 319.909H276.14L263.988 312.877Z" fill="url(#paint43_linear_33255_285863)"/>
<path style="mix-blend-mode:multiply" d="M65.8056 328.39L74.8514 323.154C76.1457 322.499 77.5755 322.158 79.0257 322.158C80.4759 322.158 81.9058 322.499 83.2001 323.154L96.2571 330.721L89.7767 334.434L110.96 346.68L121.963 351.38L120.525 352.212L148.018 368.111L159.021 372.812L157.582 373.643L185.075 389.535L196.079 394.235L194.64 395.067L222.126 410.966L233.136 415.667L231.698 416.498L256.536 430.86C263.677 432.627 275.985 435.739 280.515 437.365C270.795 441.954 244.184 436.326 237.511 432.486L209.862 416.498L210.863 415.919H208.861L172.804 395.067L173.805 394.488H171.803L135.747 373.643L136.748 373.064H134.746L98.7187 352.257L99.7196 351.677H97.7177L65.8353 333.246C63.4998 331.88 63.4997 329.719 65.8056 328.39Z" fill="url(#paint44_linear_33255_285863)"/>
<path style="mix-blend-mode:multiply" d="M307.771 442.237H327.234V444.977H307.771V442.237Z" fill="url(#paint45_linear_33255_285863)"/>
<path style="mix-blend-mode:multiply" d="M235.109 400.221H254.572V402.961H235.109V400.221Z" fill="url(#paint46_linear_33255_285863)"/>
<path style="mix-blend-mode:multiply" d="M162.446 358.205H181.909V360.945H162.446V358.205Z" fill="url(#paint47_linear_33255_285863)"/>
<path style="mix-blend-mode:multiply" d="M89.7842 316.189H109.247V318.929H89.7842V316.189Z" fill="url(#paint48_linear_33255_285863)"/>
<path d="M119.524 343.271V351.648L132.254 344.289V335.92C132.254 333.105 130.542 331.806 128.429 333.031L123.35 335.964C121.236 337.175 119.524 340.449 119.524 343.271Z" fill="#FFA800"/>
<path d="M87.2929 315.127L92.3718 312.157C92.7381 311.895 93.17 311.74 93.6192 311.71C94.0684 311.679 94.5171 311.775 94.915 311.986L130.972 332.838C130.574 332.63 130.126 332.536 129.679 332.567C129.231 332.599 128.801 332.754 128.436 333.016L123.357 335.949C121.244 337.175 119.531 340.449 119.531 343.271V351.648L83.4744 330.803V322.419C83.467 319.583 85.1798 316.323 87.2929 315.127Z" fill="url(#paint49_linear_33255_285863)"/>
<path d="M83.4745 326.14L119.531 346.984V351.655L83.4745 330.803V326.14Z" fill="#EF4E16"/>
<g style="mix-blend-mode:multiply">
<path d="M119.101 338.385C118.467 339.642 118.12 341.024 118.085 342.432V350.816L111.82 347.192V338.808C111.851 337.4 112.198 336.017 112.836 334.761L119.101 338.385Z" fill="#F5EDDA"/>
</g>
<path d="M113.103 337.264L117.21 339.633C117.109 340.013 117.032 340.4 116.981 340.791L112.88 338.415C112.93 338.027 113.004 337.642 113.103 337.264Z" fill="#FFA800"/>
<g style="mix-blend-mode:multiply">
<path d="M92.1938 322.827C91.5551 324.083 91.2079 325.466 91.1781 326.875V335.258L84.9054 331.635V323.251C84.938 321.842 85.2878 320.458 85.9286 319.204L92.1938 322.827Z" fill="#DAE0F5"/>
</g>
<path d="M92.4904 325.337L110.938 336.008C110.839 336.389 110.764 336.776 110.715 337.167L92.2606 326.496C92.3122 326.105 92.3889 325.718 92.4904 325.337Z" fill="#FFA800"/>
<path d="M86.1956 321.707L90.2958 324.075C90.1974 324.454 90.1231 324.838 90.0734 325.226L85.9658 322.858C86.0167 322.469 86.0934 322.085 86.1956 321.707Z" fill="#FFA800"/>
<path d="M156.552 364.695V373.05L169.283 365.69V357.307C169.283 354.485 167.57 353.193 165.457 354.41L160.378 357.381C158.294 358.599 156.552 361.911 156.552 364.695Z" fill="#FFA800"/>
<path d="M124.351 336.528L129.43 333.558C129.797 333.299 130.229 333.146 130.677 333.116C131.126 333.086 131.574 333.18 131.973 333.387L168.03 354.239C167.632 354.028 167.183 353.933 166.734 353.963C166.285 353.993 165.853 354.148 165.486 354.41L160.407 357.38C158.294 358.598 156.582 361.873 156.582 364.695V373.049L120.525 352.256V343.88C120.525 341.028 122.238 337.754 124.351 336.528Z" fill="url(#paint50_linear_33255_285863)"/>
<path d="M120.532 347.563L156.582 368.415V373.079L120.532 352.227V347.563Z" fill="#EF4E16"/>
<g style="mix-blend-mode:multiply">
<path d="M156.166 359.809C155.523 361.065 155.173 362.452 155.143 363.863V372.247L148.878 368.623V360.24C148.909 358.829 149.256 357.443 149.894 356.185L156.166 359.809Z" fill="#DAE0F5"/>
</g>
<path d="M150.161 358.688L154.268 361.064C154.167 361.442 154.09 361.827 154.038 362.215L149.938 359.846C149.987 359.455 150.061 359.068 150.161 358.688Z" fill="#FFA800"/>
<g style="mix-blend-mode:multiply">
<path d="M129.252 344.251C128.613 345.509 128.266 346.895 128.236 348.306V356.712L121.963 353.088V344.682C121.996 343.271 122.345 341.885 122.986 340.627L129.252 344.251Z" fill="#DAE0F5"/>
</g>
<path d="M129.548 346.769L147.995 357.455C147.896 357.833 147.821 358.218 147.773 358.606L129.318 347.935C129.37 347.542 129.447 347.152 129.548 346.769Z" fill="#FFA800"/>
<path d="M123.253 343.13L127.354 345.507C127.254 345.885 127.179 346.269 127.131 346.658L123.023 344.281C123.076 343.893 123.152 343.509 123.253 343.13Z" fill="#FFA800"/>
<path d="M193.624 386.126V394.503L206.37 387.158V378.775C206.37 375.96 204.657 374.661 202.544 375.886L197.465 378.856C195.352 380.03 193.624 383.304 193.624 386.126Z" fill="#FFA800"/>
<path d="M161.408 357.96L166.487 354.99C166.852 354.727 167.283 354.572 167.731 354.542C168.179 354.512 168.626 354.608 169.023 354.819L205.08 375.671C204.682 375.462 204.234 375.369 203.787 375.4C203.339 375.432 202.909 375.587 202.544 375.849L197.465 378.819C195.352 380.045 193.639 383.319 193.639 386.141V394.518L157.582 373.673V365.289C157.582 362.453 159.295 359.178 161.408 357.96Z" fill="url(#paint51_linear_33255_285863)"/>
<path d="M157.583 368.995L193.639 389.839V394.503L157.583 373.658V368.995Z" fill="#EF4E16"/>
<g style="mix-blend-mode:multiply">
<path d="M193.217 381.218C192.578 382.475 192.231 383.861 192.201 385.272V393.649L185.936 390.025V381.648C185.966 380.238 186.313 378.852 186.951 377.594L193.217 381.218Z" fill="#DAE0F5"/>
</g>
<path d="M187.218 380.119L191.326 382.488C191.224 382.868 191.148 383.255 191.096 383.646L186.988 381.27C187.044 380.882 187.121 380.498 187.218 380.119Z" fill="#FFA800"/>
<g style="mix-blend-mode:multiply">
<path d="M166.309 365.683C165.671 366.938 165.323 368.322 165.294 369.73V378.114L159.021 374.49V366.106C159.053 364.697 159.403 363.314 160.044 362.059L166.309 365.683Z" fill="#DAE0F5"/>
</g>
<path d="M166.606 368.2L185.053 378.864C184.954 379.245 184.88 379.632 184.831 380.022L166.376 369.336C166.428 368.953 166.504 368.573 166.606 368.2Z" fill="#FFA800"/>
<path d="M160.311 364.562L164.411 366.93C164.314 367.31 164.237 367.694 164.181 368.081L160.081 365.713C160.132 365.324 160.209 364.94 160.311 364.562Z" fill="#FFA800"/>
<path d="M230.697 407.55V415.934L243.428 408.575V400.191C243.428 397.369 241.715 396.077 239.602 397.295L234.523 400.266C232.41 401.454 230.697 404.729 230.697 407.55Z" fill="#FFA800"/>
<path d="M198.466 379.383L203.545 376.45C203.91 376.188 204.34 376.033 204.788 376.002C205.235 375.97 205.683 376.064 206.081 376.272L242.137 397.117C241.741 396.906 241.293 396.81 240.845 396.84C240.397 396.87 239.967 397.025 239.602 397.287L234.523 400.258C232.41 401.476 230.697 404.75 230.697 407.572V415.956L194.64 395.104V386.728C194.64 383.884 196.353 380.609 198.466 379.383Z" fill="url(#paint52_linear_33255_285863)"/>
<path d="M194.64 390.418L230.697 411.27V415.934L194.64 395.082V390.418Z" fill="#EF4E16"/>
<g style="mix-blend-mode:multiply">
<path d="M230.274 402.671C229.636 403.926 229.288 405.31 229.259 406.718V415.102L222.993 411.478V403.095C223.029 401.683 223.381 400.297 224.024 399.04L230.274 402.671Z" fill="#DAE0F5"/>
</g>
<path d="M224.276 401.55L228.384 403.919C228.279 404.296 228.202 404.681 228.154 405.07L224.046 402.701C224.097 402.312 224.174 401.928 224.276 401.55Z" fill="#FFA800"/>
<g style="mix-blend-mode:multiply">
<path d="M203.367 387.106C202.727 388.364 202.377 389.75 202.344 391.161V399.537L196.079 395.913V387.537C196.108 386.125 196.458 384.739 197.102 383.482L203.367 387.106Z" fill="#DAE0F5"/>
</g>
<path d="M203.656 389.624L222.111 400.295C222.009 400.673 221.933 401.058 221.881 401.446L203.434 390.775C203.484 390.387 203.558 390.003 203.656 389.624Z" fill="#FFA800"/>
<path d="M197.332 385.985L201.432 388.362C201.33 388.74 201.253 389.124 201.202 389.513L197.102 387.136C197.154 386.748 197.231 386.364 197.332 385.985Z" fill="#FFA800"/>
<path d="M235.524 400.815L240.603 397.844C240.968 397.582 241.398 397.427 241.846 397.397C242.294 397.367 242.742 397.463 243.139 397.674L268.822 412.526C272.53 414.516 281.902 428.313 281.538 435.182C281.623 435.6 281.572 436.034 281.394 436.422C281.215 436.809 280.918 437.129 280.545 437.336C277.03 439.37 266.235 436.155 258.613 432.019L231.728 416.469V408.085C231.698 405.308 233.411 402.01 235.524 400.815Z" fill="url(#paint53_linear_33255_285863)"/>
<path d="M280.515 432.717C280.718 432.606 280.88 432.433 280.976 432.223C281.072 432.013 281.098 431.777 281.049 431.551C281.392 432.74 281.557 433.974 281.538 435.212C281.623 435.63 281.572 436.064 281.394 436.452C281.215 436.839 280.918 437.159 280.545 437.365C277.03 439.4 266.235 436.185 258.613 432.048L231.728 416.498V411.835L258.613 427.377C266.205 431.529 277.001 434.744 280.515 432.717Z" fill="url(#paint54_linear_33255_285863)"/>
<g style="mix-blend-mode:multiply">
<path d="M240.425 408.538C239.784 409.793 239.434 411.176 239.402 412.585V420.969L233.136 417.345V408.961C233.166 407.553 233.513 406.169 234.152 404.914L240.425 408.538Z" fill="#DAE0F5"/>
</g>
<path d="M240.714 411.055L259.169 421.719C264.907 424.838 272.515 427.281 276.8 425.929C277.431 425.736 278.187 425.528 278.046 424.444C278.32 424.957 278.521 425.372 278.713 425.721C278.839 426.546 278.276 426.932 277.631 427.207C273.345 428.863 265.026 426.241 258.939 422.929L240.492 412.258C240.538 411.852 240.612 411.45 240.714 411.055Z" fill="url(#paint55_linear_33255_285863)"/>
<path d="M234.404 407.417L238.504 409.785C238.404 410.164 238.327 410.548 238.275 410.936L234.174 408.568C234.222 408.179 234.298 407.794 234.404 407.417Z" fill="#FFA800"/>
<path style="mix-blend-mode:multiply" d="M268.659 464.856H288.122V467.596H268.659V464.856Z" fill="url(#paint56_linear_33255_285863)"/>
<path style="mix-blend-mode:multiply" d="M195.997 422.84H215.46V425.581H195.997V422.84Z" fill="url(#paint57_linear_33255_285863)"/>
<path style="mix-blend-mode:multiply" d="M123.327 380.824H142.791V383.564H123.327V380.824Z" fill="url(#paint58_linear_33255_285863)"/>
<path style="mix-blend-mode:multiply" d="M50.6653 338.808H70.1284V341.548H50.6653V338.808Z" fill="url(#paint59_linear_33255_285863)"/>
<path d="M254.572 402.961V381.715C254.572 377.936 251.91 376.391 248.64 378.285L223.75 392.676C220.487 394.57 217.818 399.181 217.818 402.961V424.214L215.445 425.58V404.327C215.445 399.04 219.153 392.58 223.742 389.936L248.64 375.544C253.215 372.893 256.937 375.047 256.944 380.342V401.595L254.572 402.961Z" fill="#CED3F8"/>
<path d="M254.572 381.715V400.221V402.954L252.199 401.587L252.155 379.562C252.085 378.831 251.847 378.127 251.458 377.505C253.311 377.572 254.572 379.116 254.572 381.715Z" fill="#BBC0E6"/>
<path d="M221.384 388.562L246.267 374.171C248.551 372.849 250.627 372.686 252.132 373.599L254.505 374.965C253.022 374.096 250.924 374.223 248.633 375.545L223.742 389.936C219.167 392.58 215.445 399.04 215.445 404.327V425.58L213.08 424.214V402.961C213.087 397.666 216.81 391.213 221.384 388.562Z" fill="url(#paint60_linear_33255_285863)"/>
<path d="M327.234 444.977V423.724C327.234 419.944 324.572 418.414 321.302 420.3L296.419 434.684C293.149 436.578 290.488 441.19 290.488 444.969V466.215L288.115 467.589V446.343C288.115 441.056 291.822 434.595 296.419 431.952L321.31 417.56C325.884 414.917 329.607 417.063 329.607 422.357V443.596L327.234 444.977Z" fill="#CED3F8"/>
<path d="M327.234 423.724V442.236V444.969L324.861 443.595L324.817 421.57C324.758 420.829 324.521 420.113 324.127 419.483C325.973 419.587 327.234 421.132 327.234 423.724Z" fill="#BBC0E6"/>
<path d="M294.047 430.578L318.93 416.187C321.221 414.865 323.297 414.739 324.794 415.615L327.167 416.981C325.684 416.112 323.586 416.239 321.302 417.561L296.412 431.952C291.83 434.596 288.107 441.056 288.107 446.343V467.596L285.742 466.223V444.977C285.75 439.682 289.472 433.2 294.047 430.578Z" fill="url(#paint61_linear_33255_285863)"/>
<path d="M181.91 360.945V339.699C181.91 335.92 179.248 334.375 175.978 336.268L151.087 350.66C149.362 351.788 147.926 353.306 146.895 355.093C145.865 356.88 145.269 358.885 145.156 360.945V382.198L142.783 383.564V362.311C142.783 357.024 146.49 350.563 151.08 347.92L175.97 333.528C180.545 330.877 184.267 333.031 184.267 338.325V359.579L181.91 360.945Z" fill="#F8F4CE"/>
<path d="M181.909 339.699V358.197V360.93L179.537 359.564L179.492 337.538C179.43 336.798 179.194 336.083 178.803 335.452C180.649 335.556 181.902 337.1 181.909 339.699Z" fill="#E6DDBB"/>
<path d="M148.715 346.546L173.605 332.155C175.896 330.833 177.972 330.706 179.478 331.583L181.85 332.949C180.367 332.08 178.269 332.207 175.978 333.528L151.087 347.92C146.513 350.563 142.79 357.024 142.79 362.311V383.564L140.418 382.198V360.945C140.418 355.65 144.14 349.197 148.715 346.546Z" fill="url(#paint62_linear_33255_285863)"/>
<path d="M109.24 318.929V297.676C109.24 293.904 106.585 292.366 103.308 294.253L78.4178 308.644C76.6924 309.772 75.2563 311.29 74.2258 313.077C73.1954 314.864 72.5994 316.869 72.4862 318.929V340.182L70.1136 341.548V320.325C70.1136 315.038 73.8208 308.577 78.4104 305.934L103.316 291.512C107.89 288.869 111.613 291.015 111.613 296.31V317.563L109.24 318.929Z" fill="#F7F8CE"/>
<path d="M109.24 297.676V316.189V318.922L106.875 317.555L106.83 295.53C106.768 294.79 106.531 294.075 106.141 293.443C107.987 293.54 109.24 295.077 109.24 297.676Z" fill="#E3E6BB"/>
<path d="M76.0526 304.53L100.943 290.138C103.234 288.817 105.31 288.653 106.815 289.567L109.188 290.933C107.705 290.064 105.607 290.191 103.316 291.512L78.4252 305.904C73.8504 308.547 70.1283 315.008 70.1283 320.295V341.548L67.7557 340.182V318.929C67.7557 313.642 71.4778 307.181 76.0526 304.53Z" fill="url(#paint63_linear_33255_285863)"/>
<path d="M59.0214 437.551L19.3686 414.627V319.694L59.0288 342.625L59.0214 437.551Z" fill="url(#paint64_linear_33255_285863)"/>
<path d="M59.0214 437.551L98.6742 414.627V319.694L59.0288 342.625L59.0214 437.551Z" fill="url(#paint65_linear_33255_285863)"/>
<path d="M59.0288 342.625L98.6742 319.694L59.0288 296.77L19.3686 319.694L59.0288 342.625Z" fill="white"/>
<path d="M66.8363 315.194L59.0511 319.694L51.2659 306.216C46.9654 298.79 46.9654 290.703 51.2659 288.215C55.5663 285.727 62.5285 289.767 66.8363 297.223C71.1442 304.678 71.0997 312.713 66.8363 315.194ZM64.2412 304.701C64.1451 302.896 63.6248 301.14 62.723 299.575C61.8211 298.009 60.563 296.679 59.0511 295.693C56.1817 294.03 53.8609 295.374 53.8609 298.663C53.9571 300.468 54.4773 302.224 55.3792 303.79C56.2811 305.355 57.5392 306.685 59.0511 307.671C61.8908 309.357 64.2116 308.013 64.2116 304.73L64.2412 304.701Z" fill="#FFA800"/>
<path d="M308.779 303.876C308.804 303.124 309.021 302.39 309.409 301.745C309.774 301.088 310.3 300.533 310.937 300.134C311.155 299.975 311.411 299.877 311.679 299.85C311.948 299.822 312.219 299.867 312.464 299.978C312.684 300.135 312.859 300.347 312.971 300.594C313.083 300.84 313.128 301.112 313.102 301.381C313.075 302.135 312.856 302.869 312.464 303.513C312.103 304.175 311.577 304.733 310.937 305.131C310.718 305.289 310.461 305.386 310.193 305.412C309.925 305.438 309.654 305.392 309.409 305.28C309.19 305.123 309.016 304.91 308.905 304.663C308.795 304.417 308.751 304.145 308.779 303.876Z" fill="#535D63"/>
<path d="M309.691 303.357C309.713 302.923 309.837 302.5 310.053 302.123C310.27 301.746 310.573 301.426 310.937 301.189C311.626 300.788 312.19 301.114 312.19 301.931C312.165 302.366 312.038 302.788 311.821 303.165C311.603 303.541 311.3 303.861 310.937 304.1C310.247 304.471 309.691 304.152 309.691 303.357Z" fill="#C4CCCC"/>
<path d="M314.896 299.696L316.438 298.797V300.765L314.896 301.656V299.696Z" fill="#DADFE0"/>
<path d="M291.592 309.922V311.036L295.136 313.078V307.872L291.592 309.922Z" fill="#FFA800"/>
<path d="M310.299 299.109V300.216L313.843 302.265V297.06L310.299 299.109Z" fill="#FFA800"/>
<path d="M290.08 314.696C290.103 313.941 290.32 313.205 290.71 312.558C291.073 311.899 291.599 311.344 292.237 310.946C292.456 310.789 292.713 310.692 292.981 310.666C293.249 310.64 293.52 310.685 293.765 310.798C293.987 310.951 294.162 311.162 294.273 311.408C294.385 311.654 294.427 311.926 294.395 312.194C294.371 312.947 294.154 313.681 293.765 314.325C293.404 314.988 292.877 315.545 292.237 315.944C292.018 316.101 291.762 316.198 291.494 316.224C291.225 316.25 290.955 316.205 290.71 316.092C290.488 315.939 290.312 315.728 290.201 315.482C290.09 315.236 290.048 314.964 290.08 314.696Z" fill="#FFA800"/>
<path d="M290.992 314.169C291.014 313.735 291.139 313.312 291.355 312.936C291.572 312.559 291.874 312.238 292.237 312.001C292.927 311.6 293.483 311.926 293.483 312.743C293.46 313.177 293.336 313.6 293.119 313.977C292.903 314.354 292.601 314.674 292.237 314.912C291.548 315.29 290.992 314.964 290.992 314.169Z" fill="#E6E2BB"/>
<path d="M290.08 314.696C290.103 313.941 290.32 313.205 290.71 312.558C291.073 311.899 291.599 311.344 292.237 310.946C292.456 310.789 292.713 310.692 292.981 310.666C293.249 310.64 293.52 310.685 293.765 310.798L292.408 310.011C292.163 309.898 291.892 309.853 291.624 309.879C291.356 309.905 291.099 310.002 290.88 310.159C290.239 310.556 289.712 311.114 289.353 311.778C288.962 312.422 288.742 313.156 288.715 313.909C288.689 314.178 288.734 314.448 288.846 314.694C288.958 314.939 289.133 315.15 289.353 315.305L290.71 316.092C290.488 315.939 290.312 315.728 290.201 315.482C290.09 315.236 290.048 314.964 290.08 314.696Z" fill="#FFA800"/>
<path d="M308.779 303.876C308.804 303.124 309.021 302.39 309.409 301.745C309.774 301.088 310.3 300.533 310.937 300.134C311.155 299.975 311.411 299.877 311.679 299.85C311.948 299.822 312.219 299.867 312.464 299.978C312.684 300.135 312.859 300.347 312.971 300.594C313.083 300.84 313.128 301.112 313.102 301.381C313.075 302.135 312.856 302.869 312.464 303.513C312.103 304.175 311.577 304.733 310.937 305.131C310.718 305.289 310.461 305.386 310.193 305.412C309.925 305.438 309.654 305.392 309.409 305.28C309.19 305.123 309.016 304.91 308.905 304.663C308.795 304.417 308.751 304.145 308.779 303.876Z" fill="#FFA800"/>
<path d="M309.691 303.357C309.713 302.923 309.837 302.5 310.053 302.123C310.27 301.746 310.573 301.426 310.937 301.189C311.626 300.788 312.19 301.114 312.19 301.931C312.165 302.366 312.038 302.788 311.821 303.165C311.603 303.541 311.3 303.861 310.937 304.1C310.247 304.471 309.691 304.152 309.691 303.357Z" fill="#E6E2BB"/>
<path d="M308.779 303.877C308.804 303.124 309.021 302.39 309.409 301.746C309.774 301.088 310.3 300.533 310.937 300.134C311.155 299.975 311.411 299.877 311.679 299.85C311.948 299.823 312.218 299.867 312.464 299.978L311.107 299.191C310.861 299.081 310.591 299.038 310.323 299.065C310.055 299.092 309.799 299.19 309.58 299.347C308.94 299.746 308.414 300.303 308.052 300.966C307.662 301.61 307.445 302.344 307.422 303.097C307.391 303.365 307.433 303.637 307.544 303.883C307.655 304.129 307.831 304.34 308.052 304.493L309.409 305.28C309.19 305.123 309.016 304.91 308.905 304.664C308.794 304.417 308.751 304.146 308.779 303.877Z" fill="#FFA800"/>
<path d="M303.085 287.836L297.316 291.171L310.67 298.894L316.438 295.559L303.085 287.836Z" fill="#FFA800"/>
<path d="M297.161 301.374L295.136 307.872L287.314 312.394V317.592L290.354 315.832V313.278C290.372 312.959 290.464 312.649 290.624 312.373C290.784 312.097 291.006 311.862 291.273 311.689L294.239 309.981C294.743 309.691 295.159 309.929 295.159 310.515V313.07L309.061 305.028V302.503C309.077 302.185 309.168 301.875 309.327 301.599C309.485 301.323 309.706 301.088 309.973 300.914L312.939 299.206C313.443 298.916 313.851 299.154 313.851 299.74V302.295L316.453 300.81V295.612L310.677 298.946L308.505 294.876L297.161 301.374Z" fill="#FFA800"/>
<path d="M297.68 301.872C297.398 302.859 296.412 305.688 295.826 307.478L302.618 303.527V298.99L297.68 301.872Z" fill="#ECDD57"/>
<path d="M308.312 295.715C308.69 296.384 309.58 298.069 310.166 299.183L303.337 303.134V298.597L308.312 295.715Z" fill="#ECDD57"/>
<path d="M273.968 309.884L287.314 317.6V312.394L273.968 304.679V309.884Z" fill="#7A711F"/>
<path d="M276.674 306.899L284.608 311.488V314.072L276.674 309.483V306.899Z" fill="#FFA800"/>
<path d="M274.368 305.57L276.274 306.669V307.864L274.361 306.758L274.368 305.57Z" fill="#F8EFCE"/>
<path d="M286.914 312.825L285.008 311.726V312.914L286.914 314.021V312.825Z" fill="#F8EFCE"/>
<path d="M283.807 293.651L295.144 287.102L308.497 294.825L297.161 301.374L283.807 293.651Z" fill="#FFA800"/>
<path d="M281.783 300.149L273.968 304.679L287.314 312.394L295.136 307.872L281.783 300.149Z" fill="#FFA800"/>
<path d="M283.807 293.651L297.161 301.374L295.136 307.872L281.783 300.149L283.807 293.651Z" fill="#7A711F"/>
<path style="mix-blend-mode:multiply" d="M275.154 303.988L283.896 309.045L295.136 307.872L281.783 300.149L275.154 303.988Z" fill="url(#paint66_linear_33255_285863)"/>
<path d="M282.502 300.565L294.41 307.456C294.862 305.896 295.982 302.651 296.263 301.775L284.348 294.884C283.903 296.324 282.784 299.592 282.502 300.565Z" fill="#C1B43A"/>
<path d="M273.353 309.884V307.917L287.314 315.988V317.956L273.353 309.884Z" fill="#E6E2BB"/>
<path d="M287.314 317.956V315.988L289.605 314.667V316.634L287.314 317.956Z" fill="#F7F8CE"/>
<path d="M289.301 314.496L287.314 315.639L273.961 307.916V307.567L273.353 307.916L287.314 315.988L289.605 314.667L289.301 314.496Z" fill="#F6F6FB"/>
<path d="M316.438 298.448V298.797L314.896 299.696L315.2 299.867L317.054 298.797L316.438 298.448Z" fill="#FBFBF6"/>
<path d="M315.2 301.834L314.896 301.656V299.696L315.2 299.867V301.834Z" fill="#E6E2BB"/>
<path d="M315.2 301.835V299.867L317.054 298.797V300.765L315.2 301.835Z" fill="#F8F6CE"/>
<path d="M287.314 315.639H286.721L273.353 307.916L273.961 307.567V307.916L287.314 315.639Z" fill="url(#paint67_linear_33255_285863)"/>
<defs>
<linearGradient id="paint0_linear_33255_285863" x1="452.695" y1="438.754" x2="171.504" y2="79.3506" gradientUnits="userSpaceOnUse">
<stop stop-color="white"/>
<stop offset="1" stop-color="#F3F3EF"/>
</linearGradient>
<linearGradient id="paint1_linear_33255_285863" x1="266.998" y1="258.734" x2="121.637" y2="258.734" gradientUnits="userSpaceOnUse">
<stop stop-color="#F2F3D1"/>
<stop offset="0.37" stop-color="#F7F3E1" stop-opacity="0.65"/>
<stop offset="1" stop-color="white" stop-opacity="0"/>
</linearGradient>
<linearGradient id="paint2_linear_33255_285863" x1="266.998" y1="71.8907" x2="237.392" y2="71.8907" gradientUnits="userSpaceOnUse">
<stop stop-color="#C4CAE9"/>
<stop offset="0.36" stop-color="#CDD3EE"/>
<stop offset="1" stop-color="#DAE0F5"/>
</linearGradient>
<linearGradient id="paint3_linear_33255_285863" x1="266.998" y1="60.5139" x2="254.238" y2="60.5139" gradientUnits="userSpaceOnUse">
<stop stop-color="#C4CAE9"/>
<stop offset="0.42" stop-color="#DADEF1"/>
<stop offset="1" stop-color="white"/>
</linearGradient>
<linearGradient id="paint4_linear_33255_285863" x1="266.998" y1="53.8304" x2="262.839" y2="53.8304" gradientUnits="userSpaceOnUse">
<stop stop-color="#C4CAE9"/>
<stop offset="0.42" stop-color="#DADEF1"/>
<stop offset="1" stop-color="white"/>
</linearGradient>
<linearGradient id="paint5_linear_33255_285863" x1="266.998" y1="142.184" x2="215.356" y2="142.184" gradientUnits="userSpaceOnUse">
<stop stop-color="#C4CAE9"/>
<stop offset="0.36" stop-color="#CDD3EE"/>
<stop offset="1" stop-color="#DAE0F5"/>
</linearGradient>
<linearGradient id="paint6_linear_33255_285863" x1="266.998" y1="103.184" x2="226.263" y2="103.184" gradientUnits="userSpaceOnUse">
<stop stop-color="#C4CAE9"/>
<stop offset="0.36" stop-color="#CDD3EE"/>
<stop offset="1" stop-color="#DAE0F5"/>
</linearGradient>
<linearGradient id="paint7_linear_33255_285863" x1="113.058" y1="256.685" x2="55.3438" y2="256.685" gradientUnits="userSpaceOnUse">
<stop stop-color="#C4CAE8"/>
<stop offset="0.25" stop-color="#D4D9EE" stop-opacity="0.73"/>
<stop offset="0.62" stop-color="#EBEDF7" stop-opacity="0.34"/>
<stop offset="0.88" stop-color="#F9FAFD" stop-opacity="0.09"/>
<stop offset="1" stop-color="white" stop-opacity="0"/>
</linearGradient>
<radialGradient id="paint8_radial_33255_285863" cx="0" cy="0" r="1" gradientUnits="userSpaceOnUse" gradientTransform="translate(231.394 361.725) rotate(180) scale(139.348 139.563)">
<stop stop-color="#F8F4CE"/>
<stop offset="0.09" stop-color="#F8F1CF" stop-opacity="0.97"/>
<stop offset="0.22" stop-color="#F9F5D3" stop-opacity="0.89"/>
<stop offset="0.38" stop-color="#F9FAD9" stop-opacity="0.77"/>
<stop offset="0.55" stop-color="#FBF6E2" stop-opacity="0.59"/>
<stop offset="0.74" stop-color="#FCFBED" stop-opacity="0.37"/>
<stop offset="0.94" stop-color="#FEFEFA" stop-opacity="0.09"/>
<stop offset="1" stop-color="white" stop-opacity="0"/>
</radialGradient>
<linearGradient id="paint9_linear_33255_285863" x1="320.457" y1="320.733" x2="304.59" y2="320.733" gradientUnits="userSpaceOnUse">
<stop stop-color="#C4CAE8"/>
<stop offset="0.24" stop-color="#C9CEEA"/>
<stop offset="0.53" stop-color="#D7DBEF"/>
<stop offset="0.83" stop-color="#EFF0F9"/>
<stop offset="1" stop-color="white"/>
</linearGradient>
<linearGradient id="paint10_linear_33255_285863" x1="307.378" y1="328.301" x2="291.511" y2="328.301" gradientUnits="userSpaceOnUse">
<stop stop-color="#C4CAE8"/>
<stop offset="0.24" stop-color="#C9CEEA"/>
<stop offset="0.53" stop-color="#D7DBEF"/>
<stop offset="0.83" stop-color="#EFF0F9"/>
<stop offset="1" stop-color="white"/>
</linearGradient>
<linearGradient id="paint11_linear_33255_285863" x1="321.792" y1="472.527" x2="102.249" y2="345.748" gradientUnits="userSpaceOnUse">
<stop stop-color="white" stop-opacity="0"/>
<stop offset="0.01" stop-color="#FCFCFF" stop-opacity="0.06"/>
<stop offset="0.07" stop-color="#E3E6FB" stop-opacity="0.56"/>
<stop offset="0.11" stop-color="#D4D8F9" stop-opacity="0.88"/>
<stop offset="0.13" stop-color="#CED3F8"/>
<stop offset="0.92" stop-color="#CED3F8"/>
<stop offset="1" stop-color="white" stop-opacity="0"/>
</linearGradient>
<linearGradient id="paint12_linear_33255_285863" x1="278.009" y1="500.656" x2="165.821" y2="306.633" gradientUnits="userSpaceOnUse">
<stop stop-color="white" stop-opacity="0"/>
<stop offset="0.01" stop-color="#FEFEFF" stop-opacity="0.07"/>
<stop offset="0.07" stop-color="#FAFAFD" stop-opacity="0.57"/>
<stop offset="0.11" stop-color="#F7F7FB" stop-opacity="0.88"/>
<stop offset="0.13" stop-color="#F6F6FB"/>
<stop offset="0.92" stop-color="#F6F6FB"/>
<stop offset="0.99" stop-color="white" stop-opacity="0"/>
</linearGradient>
<linearGradient id="paint13_linear_33255_285863" x1="282.376" y1="498.132" x2="170.18" y2="304.108" gradientUnits="userSpaceOnUse">
<stop stop-color="white" stop-opacity="0"/>
<stop offset="0.01" stop-color="#FCFCFF" stop-opacity="0.06"/>
<stop offset="0.07" stop-color="#E3E6FB" stop-opacity="0.56"/>
<stop offset="0.11" stop-color="#D4D8F9" stop-opacity="0.88"/>
<stop offset="0.13" stop-color="#CED3F8"/>
<stop offset="0.92" stop-color="#CED3F8"/>
<stop offset="1" stop-color="white" stop-opacity="0"/>
</linearGradient>
<linearGradient id="paint14_linear_33255_285863" x1="273.649" y1="503.181" x2="161.454" y2="309.158" gradientUnits="userSpaceOnUse">
<stop stop-color="white" stop-opacity="0"/>
<stop offset="0.01" stop-color="#FCFCFF" stop-opacity="0.06"/>
<stop offset="0.07" stop-color="#E3E6FB" stop-opacity="0.56"/>
<stop offset="0.11" stop-color="#D4D8F9" stop-opacity="0.88"/>
<stop offset="0.13" stop-color="#CED3F8"/>
<stop offset="0.92" stop-color="#CED3F8"/>
<stop offset="1" stop-color="white" stop-opacity="0"/>
</linearGradient>
<linearGradient id="paint15_linear_33255_285863" x1="446.667" y1="289.195" x2="356.914" y2="289.195" gradientUnits="userSpaceOnUse">
<stop stop-color="#C4CAE8"/>
<stop offset="0.13" stop-color="#D0D5ED" stop-opacity="0.79"/>
<stop offset="0.3" stop-color="#DEE2F2" stop-opacity="0.55"/>
<stop offset="0.46" stop-color="#EAECF7" stop-opacity="0.35"/>
<stop offset="0.62" stop-color="#F3F4FA" stop-opacity="0.2"/>
<stop offset="0.76" stop-color="#FAFAFD" stop-opacity="0.09"/>
<stop offset="0.9" stop-color="#FEFEFE" stop-opacity="0.02"/>
<stop offset="1" stop-color="white" stop-opacity="0"/>
</linearGradient>
<linearGradient id="paint16_linear_33255_285863" x1="375.584" y1="308.147" x2="247.431" y2="308.147" gradientUnits="userSpaceOnUse">
<stop stop-color="#E8E4C4"/>
<stop offset="0.38" stop-color="#F1F0DA" stop-opacity="0.63"/>
<stop offset="1" stop-color="white" stop-opacity="0"/>
</linearGradient>
<linearGradient id="paint17_linear_33255_285863" x1="375.584" y1="196.393" x2="325.64" y2="196.393" gradientUnits="userSpaceOnUse">
<stop stop-color="#F3ECD1"/>
<stop offset="0.08" stop-color="#F4EBD5"/>
<stop offset="1" stop-color="white"/>
</linearGradient>
<linearGradient id="paint18_linear_33255_285863" x1="375.584" y1="171.249" x2="325.64" y2="171.249" gradientUnits="userSpaceOnUse">
<stop stop-color="#E4DDC4"/>
<stop offset="0.27" stop-color="#ECEAD5"/>
<stop offset="1" stop-color="white"/>
</linearGradient>
<linearGradient id="paint19_linear_33255_285863" x1="404.471" y1="359.296" x2="268.904" y2="359.296" gradientUnits="userSpaceOnUse">
<stop stop-color="#C4CAE8"/>
<stop offset="0.16" stop-color="#D3D7EE" stop-opacity="0.75"/>
<stop offset="0.38" stop-color="#E5E8F5" stop-opacity="0.43"/>
<stop offset="0.57" stop-color="#F3F4FA" stop-opacity="0.2"/>
<stop offset="0.71" stop-color="#FCFCFE" stop-opacity="0.05"/>
<stop offset="0.78" stop-color="white" stop-opacity="0"/>
</linearGradient>
<linearGradient id="paint20_linear_33255_285863" x1="293.772" y1="273.118" x2="283.918" y2="256.089" gradientUnits="userSpaceOnUse">
<stop stop-color="#F4F5DA"/>
<stop offset="0.54" stop-color="#FBFAF1"/>
<stop offset="1" stop-color="white"/>
</linearGradient>
<linearGradient id="paint21_linear_33255_285863" x1="267.206" y1="142.184" x2="215.356" y2="142.184" gradientUnits="userSpaceOnUse">
<stop stop-color="#C4CAE8"/>
<stop offset="0.36" stop-color="#CDD3EE"/>
<stop offset="1" stop-color="#DAE0F5"/>
</linearGradient>
<linearGradient id="paint22_linear_33255_285863" x1="222.437" y1="292.211" x2="178.417" y2="292.211" gradientUnits="userSpaceOnUse">
<stop stop-color="#E4DFC4"/>
<stop offset="0.02" stop-color="#E5E2C6" stop-opacity="0.96"/>
<stop offset="0.17" stop-color="#ECEBD5" stop-opacity="0.71"/>
<stop offset="0.32" stop-color="#F2F0E2" stop-opacity="0.49"/>
<stop offset="0.47" stop-color="#F6F4EC" stop-opacity="0.32"/>
<stop offset="0.61" stop-color="#FAF9F4" stop-opacity="0.18"/>
<stop offset="0.75" stop-color="#FDFCFA" stop-opacity="0.08"/>
<stop offset="0.88" stop-color="#FEFEFE" stop-opacity="0.02"/>
<stop offset="1" stop-color="white" stop-opacity="0"/>
</linearGradient>
<linearGradient id="paint23_linear_33255_285863" x1="238.497" y1="292.812" x2="229.928" y2="277.994" gradientUnits="userSpaceOnUse">
<stop stop-color="#F5EFDA"/>
<stop offset="1" stop-color="white"/>
</linearGradient>
<linearGradient id="paint24_linear_33255_285863" x1="177.12" y1="318.543" x2="87.3004" y2="318.543" gradientUnits="userSpaceOnUse">
<stop stop-color="#C4CAE8"/>
<stop offset="0.13" stop-color="#D0D5ED" stop-opacity="0.79"/>
<stop offset="0.3" stop-color="#DEE2F2" stop-opacity="0.55"/>
<stop offset="0.46" stop-color="#EAECF7" stop-opacity="0.35"/>
<stop offset="0.62" stop-color="#F3F4FA" stop-opacity="0.2"/>
<stop offset="0.76" stop-color="#FAFAFD" stop-opacity="0.09"/>
<stop offset="0.9" stop-color="#FEFEFE" stop-opacity="0.02"/>
<stop offset="1" stop-color="white" stop-opacity="0"/>
</linearGradient>
<linearGradient id="paint25_linear_33255_285863" x1="215.416" y1="196.78" x2="175.615" y2="196.78" gradientUnits="userSpaceOnUse">
<stop stop-color="#F5F4DA"/>
<stop offset="0.36" stop-color="#F7F5E3"/>
<stop offset="0.94" stop-color="#FEFEFC"/>
<stop offset="1" stop-color="white"/>
</linearGradient>
<linearGradient id="paint26_linear_33255_285863" x1="152.852" y1="206.018" x2="140.136" y2="206.018" gradientUnits="userSpaceOnUse">
<stop stop-color="#C4C9E4"/>
<stop offset="0.27" stop-color="#D5D9EC"/>
<stop offset="1" stop-color="white"/>
</linearGradient>
<linearGradient id="paint27_linear_33255_285863" x1="177.12" y1="323.132" x2="134.093" y2="323.132" gradientUnits="userSpaceOnUse">
<stop stop-color="#E8E0C4"/>
<stop offset="0.43" stop-color="#EBE8CA"/>
<stop offset="1" stop-color="#F5F2DA"/>
</linearGradient>
<linearGradient id="paint28_linear_33255_285863" x1="360.399" y1="123.582" x2="323.734" y2="123.582" gradientUnits="userSpaceOnUse">
<stop stop-color="#F3E7D1"/>
<stop offset="0.11" stop-color="#F5F1DA" stop-opacity="0.81"/>
<stop offset="0.33" stop-color="#F9F7E9" stop-opacity="0.47"/>
<stop offset="0.5" stop-color="#FCFCF5" stop-opacity="0.22"/>
<stop offset="0.63" stop-color="#FEFDFC" stop-opacity="0.06"/>
<stop offset="0.7" stop-color="white" stop-opacity="0"/>
</linearGradient>
<linearGradient id="paint29_linear_33255_285863" x1="362.82" y1="119.48" x2="358.673" y2="121.22" gradientUnits="userSpaceOnUse">
<stop stop-color="#D59F36"/>
<stop offset="1" stop-color="#FFBD3F"/>
</linearGradient>
<linearGradient id="paint30_linear_33255_285863" x1="370.515" y1="87.9758" x2="348.155" y2="94.2434" gradientUnits="userSpaceOnUse">
<stop stop-color="#B98D38"/>
<stop offset="1" stop-color="#FFBD3F"/>
</linearGradient>
<linearGradient id="paint31_linear_33255_285863" x1="280.723" y1="350.437" x2="270.016" y2="350.437" gradientUnits="userSpaceOnUse">
<stop stop-color="#C4C9E5"/>
<stop offset="0.26" stop-color="#D7DAED"/>
<stop offset="0.73" stop-color="#F4F5FA"/>
<stop offset="1" stop-color="white"/>
</linearGradient>
<linearGradient id="paint32_linear_33255_285863" x1="280.723" y1="344.905" x2="276.363" y2="344.905" gradientUnits="userSpaceOnUse">
<stop stop-color="#C4C9E5"/>
<stop offset="0.26" stop-color="#D7DAED"/>
<stop offset="0.73" stop-color="#F4F5FA"/>
<stop offset="1" stop-color="white"/>
</linearGradient>
<radialGradient id="paint33_radial_33255_285863" cx="0" cy="0" r="1" gradientUnits="userSpaceOnUse" gradientTransform="translate(285.194 327.818) rotate(180) scale(13.7243 13.7454)">
<stop stop-color="#FBDF7C"/>
<stop offset="1" stop-color="#93772E"/>
</radialGradient>
<linearGradient id="paint34_linear_33255_285863" x1="299.815" y1="361.48" x2="289.108" y2="361.48" gradientUnits="userSpaceOnUse">
<stop stop-color="#C4C9E5"/>
<stop offset="0.26" stop-color="#D7DAED"/>
<stop offset="0.73" stop-color="#F4F5FA"/>
<stop offset="1" stop-color="white"/>
</linearGradient>
<linearGradient id="paint35_linear_33255_285863" x1="299.815" y1="355.947" x2="295.455" y2="355.947" gradientUnits="userSpaceOnUse">
<stop stop-color="#C4C9E5"/>
<stop offset="0.26" stop-color="#D7DAED"/>
<stop offset="0.73" stop-color="#F4F5FA"/>
<stop offset="1" stop-color="white"/>
</linearGradient>
<radialGradient id="paint36_radial_33255_285863" cx="0" cy="0" r="1" gradientUnits="userSpaceOnUse" gradientTransform="translate(304.286 338.853) rotate(180) scale(13.7243 13.7454)">
<stop stop-color="#FFFCB3"/>
<stop offset="1" stop-color="#93832E"/>
</radialGradient>
<linearGradient id="paint37_linear_33255_285863" x1="318.907" y1="372.522" x2="308.201" y2="372.522" gradientUnits="userSpaceOnUse">
<stop stop-color="#C4C9E5"/>
<stop offset="0.26" stop-color="#D7DAED"/>
<stop offset="0.73" stop-color="#F4F5FA"/>
<stop offset="1" stop-color="white"/>
</linearGradient>
<linearGradient id="paint38_linear_33255_285863" x1="318.907" y1="366.982" x2="314.548" y2="366.982" gradientUnits="userSpaceOnUse">
<stop stop-color="#C4C9E5"/>
<stop offset="0.26" stop-color="#D7DAED"/>
<stop offset="0.73" stop-color="#F4F5FA"/>
<stop offset="1" stop-color="white"/>
</linearGradient>
<radialGradient id="paint39_radial_33255_285863" cx="0" cy="0" r="1" gradientUnits="userSpaceOnUse" gradientTransform="translate(323.378 349.895) rotate(180) scale(13.7243 13.7454)">
<stop stop-color="#807CFB"/>
<stop offset="1" stop-color="#362E93"/>
</radialGradient>
<linearGradient id="paint40_linear_33255_285863" x1="338.007" y1="383.557" x2="327.293" y2="383.557" gradientUnits="userSpaceOnUse">
<stop stop-color="#C4C9E5"/>
<stop offset="0.26" stop-color="#D7DAED"/>
<stop offset="0.73" stop-color="#F4F5FA"/>
<stop offset="1" stop-color="white"/>
</linearGradient>
<linearGradient id="paint41_linear_33255_285863" x1="338.007" y1="378.025" x2="333.64" y2="378.025" gradientUnits="userSpaceOnUse">
<stop stop-color="#C4C9E5"/>
<stop offset="0.26" stop-color="#D7DAED"/>
<stop offset="0.73" stop-color="#F4F5FA"/>
<stop offset="1" stop-color="white"/>
</linearGradient>
<radialGradient id="paint42_radial_33255_285863" cx="0" cy="0" r="1" gradientUnits="userSpaceOnUse" gradientTransform="translate(342.471 360.938) rotate(180) scale(13.7317 13.7528)">
<stop stop-color="#807CFB"/>
<stop offset="1" stop-color="#362E93"/>
</radialGradient>
<linearGradient id="paint43_linear_33255_285863" x1="287.025" y1="310.515" x2="263.988" y2="310.515" gradientUnits="userSpaceOnUse">
<stop stop-color="#E8E4C4"/>
<stop offset="0.25" stop-color="#EFEFD6" stop-opacity="0.69"/>
<stop offset="0.52" stop-color="#F6F5E8" stop-opacity="0.4"/>
<stop offset="0.74" stop-color="#FBFBF4" stop-opacity="0.18"/>
<stop offset="0.91" stop-color="#FEFEFC" stop-opacity="0.05"/>
<stop offset="1" stop-color="white" stop-opacity="0"/>
</linearGradient>
<linearGradient id="paint44_linear_33255_285863" x1="280.515" y1="380.631" x2="64.0781" y2="380.631" gradientUnits="userSpaceOnUse">
<stop stop-color="#DAE0F5"/>
<stop offset="0.8" stop-color="#F0F1FA"/>
<stop offset="1" stop-color="#F6F6FB"/>
</linearGradient>
<linearGradient id="paint45_linear_33255_285863" x1="327.234" y1="443.611" x2="307.771" y2="443.611" gradientUnits="userSpaceOnUse">
<stop stop-color="#C4CAE8"/>
<stop offset="0.13" stop-color="#D0D5ED" stop-opacity="0.79"/>
<stop offset="0.3" stop-color="#DEE2F2" stop-opacity="0.55"/>
<stop offset="0.46" stop-color="#EAECF7" stop-opacity="0.35"/>
<stop offset="0.62" stop-color="#F3F4FA" stop-opacity="0.2"/>
<stop offset="0.76" stop-color="#FAFAFD" stop-opacity="0.09"/>
<stop offset="0.9" stop-color="#FEFEFE" stop-opacity="0.02"/>
<stop offset="1" stop-color="white" stop-opacity="0"/>
</linearGradient>
<linearGradient id="paint46_linear_33255_285863" x1="254.572" y1="401.595" x2="235.109" y2="401.595" gradientUnits="userSpaceOnUse">
<stop stop-color="#C4CAE8"/>
<stop offset="0.13" stop-color="#D0D5ED" stop-opacity="0.79"/>
<stop offset="0.3" stop-color="#DEE2F2" stop-opacity="0.55"/>
<stop offset="0.46" stop-color="#EAECF7" stop-opacity="0.35"/>
<stop offset="0.62" stop-color="#F3F4FA" stop-opacity="0.2"/>
<stop offset="0.76" stop-color="#FAFAFD" stop-opacity="0.09"/>
<stop offset="0.9" stop-color="#FEFEFE" stop-opacity="0.02"/>
<stop offset="1" stop-color="white" stop-opacity="0"/>
</linearGradient>
<linearGradient id="paint47_linear_33255_285863" x1="181.909" y1="359.578" x2="162.446" y2="359.578" gradientUnits="userSpaceOnUse">
<stop stop-color="#C4CAE8"/>
<stop offset="0.13" stop-color="#D0D5ED" stop-opacity="0.79"/>
<stop offset="0.3" stop-color="#DEE2F2" stop-opacity="0.55"/>
<stop offset="0.46" stop-color="#EAECF7" stop-opacity="0.35"/>
<stop offset="0.62" stop-color="#F3F4FA" stop-opacity="0.2"/>
<stop offset="0.76" stop-color="#FAFAFD" stop-opacity="0.09"/>
<stop offset="0.9" stop-color="#FEFEFE" stop-opacity="0.02"/>
<stop offset="1" stop-color="white" stop-opacity="0"/>
</linearGradient>
<linearGradient id="paint48_linear_33255_285863" x1="109.247" y1="317.563" x2="89.7842" y2="317.563" gradientUnits="userSpaceOnUse">
<stop stop-color="#E8E4C4"/>
<stop offset="0.13" stop-color="#EDE3D0" stop-opacity="0.79"/>
<stop offset="0.3" stop-color="#F2EEDE" stop-opacity="0.55"/>
<stop offset="0.46" stop-color="#F7F4EA" stop-opacity="0.35"/>
<stop offset="0.62" stop-color="#FAF9F3" stop-opacity="0.2"/>
<stop offset="0.76" stop-color="#FDFCFA" stop-opacity="0.09"/>
<stop offset="0.9" stop-color="#FEFEFE" stop-opacity="0.02"/>
<stop offset="1" stop-color="white" stop-opacity="0"/>
</linearGradient>
<linearGradient id="paint49_linear_33255_285863" x1="110.404" y1="320.942" x2="99.3828" y2="340.004" gradientUnits="userSpaceOnUse">
<stop stop-color="#FBFAF6"/>
<stop offset="0.26" stop-color="#F4EFE3"/>
<stop offset="0.73" stop-color="#EAE4C6"/>
<stop offset="1" stop-color="#E6DDBB"/>
</linearGradient>
<linearGradient id="paint50_linear_33255_285863" x1="147.462" y1="342.365" x2="136.441" y2="361.428" gradientUnits="userSpaceOnUse">
<stop stop-color="#FBFAF6"/>
<stop offset="0.26" stop-color="#F4F0E3"/>
<stop offset="0.73" stop-color="#EAE4C6"/>
<stop offset="1" stop-color="#E6DDBB"/>
</linearGradient>
<linearGradient id="paint51_linear_33255_285863" x1="184.519" y1="363.797" x2="173.491" y2="382.859" gradientUnits="userSpaceOnUse">
<stop stop-color="#F6F6FB"/>
<stop offset="0.26" stop-color="#E3E5F4"/>
<stop offset="0.73" stop-color="#C6CAEA"/>
<stop offset="1" stop-color="#BBC0E6"/>
</linearGradient>
<linearGradient id="paint52_linear_33255_285863" x1="221.57" y1="385.22" x2="210.548" y2="404.283" gradientUnits="userSpaceOnUse">
<stop stop-color="#F6F6FB"/>
<stop offset="0.26" stop-color="#E3E5F4"/>
<stop offset="0.73" stop-color="#C6CAEA"/>
<stop offset="1" stop-color="#BBC0E6"/>
</linearGradient>
<linearGradient id="paint53_linear_33255_285863" x1="263.321" y1="409.362" x2="252.3" y2="428.425" gradientUnits="userSpaceOnUse">
<stop stop-color="#F6F6FB"/>
<stop offset="0.26" stop-color="#E3E5F4"/>
<stop offset="0.73" stop-color="#C6CAEA"/>
<stop offset="1" stop-color="#BBC0E6"/>
</linearGradient>
<linearGradient id="paint54_linear_33255_285863" x1="281.546" y1="424.927" x2="231.698" y2="424.927" gradientUnits="userSpaceOnUse">
<stop stop-color="#FFD03E"/>
<stop offset="0.27" stop-color="#FAA531"/>
<stop offset="0.6" stop-color="#F47622"/>
<stop offset="0.85" stop-color="#F05919"/>
<stop offset="1" stop-color="#EF4E16"/>
</linearGradient>
<linearGradient id="paint55_linear_33255_285863" x1="278.728" y1="419.357" x2="240.492" y2="419.357" gradientUnits="userSpaceOnUse">
<stop stop-color="#6B67E9"/>
<stop offset="0.25" stop-color="#5E5AD7"/>
<stop offset="0.73" stop-color="#4A46BA"/>
<stop offset="1" stop-color="#423EAF"/>
</linearGradient>
<linearGradient id="paint56_linear_33255_285863" x1="288.122" y1="466.23" x2="268.659" y2="466.23" gradientUnits="userSpaceOnUse">
<stop stop-color="#C4CAE8"/>
<stop offset="0.13" stop-color="#D0D5ED" stop-opacity="0.79"/>
<stop offset="0.3" stop-color="#DEE2F2" stop-opacity="0.55"/>
<stop offset="0.46" stop-color="#EAECF7" stop-opacity="0.35"/>
<stop offset="0.62" stop-color="#F3F4FA" stop-opacity="0.2"/>
<stop offset="0.76" stop-color="#FAFAFD" stop-opacity="0.09"/>
<stop offset="0.9" stop-color="#FEFEFE" stop-opacity="0.02"/>
<stop offset="1" stop-color="white" stop-opacity="0"/>
</linearGradient>
<linearGradient id="paint57_linear_33255_285863" x1="215.46" y1="424.214" x2="195.997" y2="424.214" gradientUnits="userSpaceOnUse">
<stop stop-color="#C4CAE8"/>
<stop offset="0.13" stop-color="#D0D5ED" stop-opacity="0.79"/>
<stop offset="0.3" stop-color="#DEE2F2" stop-opacity="0.55"/>
<stop offset="0.46" stop-color="#EAECF7" stop-opacity="0.35"/>
<stop offset="0.62" stop-color="#F3F4FA" stop-opacity="0.2"/>
<stop offset="0.76" stop-color="#FAFAFD" stop-opacity="0.09"/>
<stop offset="0.9" stop-color="#FEFEFE" stop-opacity="0.02"/>
<stop offset="1" stop-color="white" stop-opacity="0"/>
</linearGradient>
<linearGradient id="paint58_linear_33255_285863" x1="142.791" y1="382.198" x2="123.327" y2="382.198" gradientUnits="userSpaceOnUse">
<stop stop-color="#C4CAE8"/>
<stop offset="0.13" stop-color="#D0D5ED" stop-opacity="0.79"/>
<stop offset="0.3" stop-color="#DEE2F2" stop-opacity="0.55"/>
<stop offset="0.46" stop-color="#EAECF7" stop-opacity="0.35"/>
<stop offset="0.62" stop-color="#F3F4FA" stop-opacity="0.2"/>
<stop offset="0.76" stop-color="#FAFAFD" stop-opacity="0.09"/>
<stop offset="0.9" stop-color="#FEFEFE" stop-opacity="0.02"/>
<stop offset="1" stop-color="white" stop-opacity="0"/>
</linearGradient>
<linearGradient id="paint59_linear_33255_285863" x1="70.1284" y1="340.182" x2="50.6653" y2="340.182" gradientUnits="userSpaceOnUse">
<stop stop-color="#C4CAE8"/>
<stop offset="0.13" stop-color="#D0D5ED" stop-opacity="0.79"/>
<stop offset="0.3" stop-color="#DEE2F2" stop-opacity="0.55"/>
<stop offset="0.46" stop-color="#EAECF7" stop-opacity="0.35"/>
<stop offset="0.62" stop-color="#F3F4FA" stop-opacity="0.2"/>
<stop offset="0.76" stop-color="#FAFAFD" stop-opacity="0.09"/>
<stop offset="0.9" stop-color="#FEFEFE" stop-opacity="0.02"/>
<stop offset="1" stop-color="white" stop-opacity="0"/>
</linearGradient>
<linearGradient id="paint60_linear_33255_285863" x1="244.169" y1="368.987" x2="212.451" y2="423.845" gradientUnits="userSpaceOnUse">
<stop offset="0.42" stop-color="#F6F6FB"/>
<stop offset="0.52" stop-color="#F2F2FA"/>
<stop offset="0.61" stop-color="#E6E7F5"/>
<stop offset="0.71" stop-color="#D1D4EE"/>
<stop offset="0.79" stop-color="#BBC0E6"/>
</linearGradient>
<linearGradient id="paint61_linear_33255_285863" x1="316.831" y1="411.003" x2="285.113" y2="465.861" gradientUnits="userSpaceOnUse">
<stop offset="0.42" stop-color="#F6F6FB"/>
<stop offset="0.52" stop-color="#F2F2FA"/>
<stop offset="0.61" stop-color="#E6E7F5"/>
<stop offset="0.71" stop-color="#D1D4EE"/>
<stop offset="0.79" stop-color="#BBC0E6"/>
</linearGradient>
<linearGradient id="paint62_linear_33255_285863" x1="171.507" y1="326.971" x2="139.789" y2="381.829" gradientUnits="userSpaceOnUse">
<stop offset="0.42" stop-color="#FBFAF6"/>
<stop offset="0.52" stop-color="#F9FAF2"/>
<stop offset="0.61" stop-color="#F5F2E6"/>
<stop offset="0.71" stop-color="#EEEBD1"/>
<stop offset="0.79" stop-color="#E6E2BB"/>
</linearGradient>
<linearGradient id="paint63_linear_33255_285863" x1="98.8447" y1="284.955" x2="67.119" y2="339.813" gradientUnits="userSpaceOnUse">
<stop offset="0.42" stop-color="#FBFAF6"/>
<stop offset="0.52" stop-color="#FAFAF2"/>
<stop offset="0.61" stop-color="#F5F5E6"/>
<stop offset="0.71" stop-color="#EDEED1"/>
<stop offset="0.79" stop-color="#E0E6BB"/>
<stop offset="0.833333" stop-color="#E3E6BB"/>
</linearGradient>
<linearGradient id="paint64_linear_33255_285863" x1="39.195" y1="437.551" x2="39.195" y2="319.694" gradientUnits="userSpaceOnUse">
<stop offset="0.25" stop-color="white" stop-opacity="0"/>
<stop offset="0.28" stop-color="#FEFEFD" stop-opacity="0.04"/>
<stop offset="0.64" stop-color="#F8F3E6" stop-opacity="0.55"/>
<stop offset="0.89" stop-color="#F5F2D7" stop-opacity="0.87"/>
<stop offset="1" stop-color="#F3F0D1"/>
</linearGradient>
<linearGradient id="paint65_linear_33255_285863" x1="78.8478" y1="437.551" x2="78.8478" y2="319.694" gradientUnits="userSpaceOnUse">
<stop stop-color="white" stop-opacity="0"/>
<stop offset="0.04" stop-color="#FEFEFD" stop-opacity="0.05"/>
<stop offset="0.52" stop-color="#F9F6ED" stop-opacity="0.55"/>
<stop offset="0.85" stop-color="#F5F3E3" stop-opacity="0.87"/>
<stop offset="1" stop-color="#F4F2DF"/>
</linearGradient>
<linearGradient id="paint66_linear_33255_285863" x1="295.136" y1="304.597" x2="275.154" y2="304.597" gradientUnits="userSpaceOnUse">
<stop stop-color="#F3E9D1"/>
<stop offset="0.07" stop-color="#F4F1D5"/>
<stop offset="0.67" stop-color="#FCFCF4"/>
<stop offset="1" stop-color="white"/>
</linearGradient>
<linearGradient id="paint67_linear_33255_285863" x1="287.314" y1="311.6" x2="273.353" y2="311.6" gradientUnits="userSpaceOnUse">
<stop stop-color="#F3ECD1"/>
<stop offset="1" stop-color="#F5F2DA"/>
</linearGradient>
</defs>
</svg>
