<svg width="906" height="304" viewBox="0 0 906 304" fill="none" xmlns="http://www.w3.org/2000/svg">
<path d="M711.43 186.515L645.513 303.663H705.088L770.007 182.097L843.615 303.663H905.687L821.492 164.481H747.585C740.339 164.488 733.215 166.515 726.888 170.371C720.561 174.227 715.24 179.784 711.43 186.515Z" fill="#FF8800"/>
<path d="M834.148 117.311L900.943 0H841.281L777.13 119.111L705.097 0H643.141L727.246 139.181H797.982C805.216 139.212 812.336 137.218 818.667 133.39C824.997 129.562 830.326 124.027 834.148 117.311Z" fill="#FF8800"/>
<path d="M504.966 304V48.9665H426V0H635V48.9665H557.261C557.261 48.9665 557.261 223.465 557.261 263.732C557.261 304 504.966 304 504.966 304Z" fill="#34306A"/>
<path d="M328.952 0H241V39.785H328.952V0Z" fill="#34306A"/>
<path d="M405.125 169.211V131.23H293.768V130.729C293.774 125.134 293.768 33.0548 293.768 33.0548C293.768 33.0548 285.255 23.1867 281.295 19.2304C277.334 15.2742 272.631 12.1372 267.455 9.9991C262.279 7.86104 256.732 6.76394 251.131 6.77054H241.099V303.999H294.019V169.211H405.125Z" fill="#34306A"/>
<path d="M263.637 254.638H371.569C384.848 254.638 397.583 259.803 406.973 268.998C416.363 278.193 421.638 290.664 421.638 303.667H263.449L263.637 254.638Z" fill="#34306A"/>
<path d="M260.474 49.0293H368.405C381.685 49.0293 394.42 43.8636 403.81 34.6688C413.2 25.474 418.475 13.0031 418.475 -0.000338554H260.286L260.474 49.0293Z" fill="#34306A"/>
<path d="M0 304V0H112.834C133.473 0 151.667 3.80851 167.418 11.4255C183.44 18.7705 195.932 29.6519 204.893 44.0698C213.855 58.2157 218.336 75.4899 218.336 95.8926C218.336 116.839 213.312 134.658 203.264 149.348C193.488 164.038 180.181 174.919 163.344 181.992L233 304H170.269L114.349 204.071C114.349 204.071 110.737 198.215 103.905 194.681C98.3069 191.785 91.7331 191.785 91.7331 191.785H55.3986V304H0ZM55.3986 142.819H76.2963H113.649C123.696 142.819 132.386 140.915 139.719 137.106C147.051 133.026 152.753 127.449 156.827 120.376C160.9 113.303 162.937 105.142 162.937 95.8926C162.937 86.3714 160.9 78.2103 156.827 71.4094C152.753 64.3365 147.051 58.8958 139.719 55.0873C132.386 51.0067 123.696 48.9665 113.649 48.9665H55.3986V126.923V142.819Z" fill="#34306A"/>
</svg>
