<svg width="105" height="28" viewBox="0 0 105 28" fill="none" xmlns="http://www.w3.org/2000/svg">
<rect x="0.210938" width="28" height="28" rx="1.29994" fill="url(#paint0_linear_33482_2823)"/>
<rect x="13.5449" y="4" width="10.6667" height="10.6667" fill="white"/>
<path fill-rule="evenodd" clip-rule="evenodd" d="M10.8776 6.6665H4.21094V23.9998H21.5443L21.5443 17.3331H10.8776V6.6665Z" fill="white"/>
<path d="M33.5754 26.628V1H43.1042C44.8472 1 46.3837 1.32107 47.7138 1.9632C49.0669 2.5824 50.1218 3.49973 50.8786 4.7152C51.6354 5.90773 52.0138 7.364 52.0138 9.084C52.0138 10.8499 51.5896 12.352 50.741 13.5904C49.9154 14.8288 48.7917 15.7461 47.3698 16.3424L53.2522 26.628H47.9546L43.2322 18.2037C43.2322 18.2037 42.9272 17.7101 42.3502 17.4121C41.8774 17.168 41.3223 17.168 41.3223 17.168H38.2538V26.628H33.5754ZM38.2538 13.04H40.0186H43.173C44.0216 13.04 44.7554 12.8795 45.3746 12.5584C45.9938 12.2144 46.4754 11.7443 46.8194 11.148C47.1634 10.5517 47.3354 9.86373 47.3354 9.084C47.3354 8.28133 47.1634 7.59333 46.8194 7.02C46.4754 6.42373 45.9938 5.96507 45.3746 5.644C44.7554 5.3 44.0216 5.128 43.173 5.128H38.2538V11.7V13.04Z" fill="#34306A"/>
<path d="M61.332 1H53.9187V4.35399H61.332V1Z" fill="#34306A"/>
<path d="M67.7523 15.265V12.0631H58.3663V12.0208C58.3669 11.5492 58.3663 3.78664 58.3663 3.78664C58.3663 3.78664 57.6488 2.95473 57.315 2.6212C56.9812 2.28768 56.5848 2.02322 56.1485 1.84298C55.7123 1.66274 55.2447 1.57025 54.7726 1.5708H53.927V26.628H58.3875V15.265H67.7523Z" fill="#34306A"/>
<path d="M55.8268 22.4668H64.9241C66.0433 22.4668 67.1168 22.9023 67.9082 23.6774C68.6997 24.4526 69.1443 25.5039 69.1443 26.6001H55.811L55.8268 22.4668Z" fill="#34306A"/>
<path d="M55.5602 5.1333H64.6575C65.7767 5.1333 66.8502 4.69782 67.6416 3.92267C68.4331 3.14752 68.8777 2.0962 68.8777 0.999968H55.5444L55.5602 5.1333Z" fill="#34306A"/>
<path d="M76.1609 26.628V5.128H69.5217V1H87.0937V5.128H80.5577C80.5577 5.128 80.5577 19.8387 80.5577 23.2333C80.5577 26.628 76.1609 26.628 76.1609 26.628Z" fill="#34306A"/>
<path d="M87.9012 16.7242L82.3442 26.6H87.3666L92.8394 16.3517L99.0447 26.6H104.278L97.1798 14.8667H90.9492C90.3383 14.8673 89.7378 15.0382 89.2044 15.3632C88.671 15.6883 88.2224 16.1567 87.9012 16.7242Z" fill="#FF8800"/>
<path d="M98.2466 10.8896L103.878 1H98.848L93.4399 11.0414L87.3674 1H82.1443L89.2345 12.7333H95.1977C95.8076 12.7359 96.4079 12.5678 96.9416 12.2451C97.4752 11.9224 97.9245 11.4558 98.2466 10.8896Z" fill="#FF8800"/>
<defs>
<linearGradient id="paint0_linear_33482_2823" x1="5.86989" y1="25.2589" x2="22.5373" y2="2.75579" gradientUnits="userSpaceOnUse">
<stop stop-color="#FF9E0F"/>
<stop offset="1" stop-color="#FF7C0F"/>
</linearGradient>
</defs>
</svg>
