<svg width="1561" height="420" viewBox="0 0 1561 420" fill="none" xmlns="http://www.w3.org/2000/svg">
<g clip-path="url(#clip0_32165_250378)">
<rect width="420" height="420" rx="19.8942" fill="url(#paint0_linear_32165_250378)"/>
<rect x="200.008" y="60" width="160" height="160" fill="white"/>
<path fill-rule="evenodd" clip-rule="evenodd" d="M160 100H60V360H320L320 260H160V100Z" fill="white"/>
<path d="M500.469 399.42V15H643.401C669.545 15 692.593 19.816 712.545 29.448C732.841 38.736 748.665 52.496 760.017 70.728C771.369 88.616 777.045 110.46 777.045 136.26C777.045 162.748 770.681 185.28 757.953 203.856C745.569 222.432 728.713 236.192 707.385 245.136L795.621 399.42H716.157L645.32 273.055C645.32 273.055 640.745 265.651 632.09 261.182C624.999 257.52 616.671 257.52 616.671 257.52H570.645V399.42H500.469ZM570.645 195.6H597.117H644.433C657.161 195.6 668.169 193.192 677.457 188.376C686.745 183.216 693.969 176.164 699.129 167.22C704.289 158.276 706.869 147.956 706.869 136.26C706.869 124.22 704.289 113.9 699.129 105.3C693.969 96.356 686.745 89.476 677.457 84.66C668.169 79.5 657.161 76.92 644.433 76.92H570.645V175.5V195.6Z" fill="#34306A"/>
<path d="M916.816 15H805.617V65.3098H916.816V15Z" fill="#34306A"/>
<path d="M1013.12 228.975V180.947H872.332V180.313C872.34 173.238 872.332 56.8001 872.332 56.8001C872.332 56.8001 861.569 44.3214 856.562 39.3186C851.555 34.3157 845.609 30.3489 839.065 27.6452C832.521 24.9415 825.507 23.5542 818.426 23.5625H805.742V399.42H872.649V228.975H1013.12Z" fill="#34306A"/>
<path d="M834.238 337.421H970.696C987.486 337.421 1003.59 343.953 1015.46 355.58C1027.33 367.208 1034 382.977 1034 399.421H834L834.238 337.421Z" fill="#34306A"/>
<path d="M830.238 77H966.696C983.486 77 999.587 70.4678 1011.46 58.8405C1023.33 47.2133 1030 31.4434 1030 15H830L830.238 77Z" fill="#34306A"/>
<path d="M1139.25 399.42V76.92H1039.66V15H1303.24V76.92H1205.2C1205.2 76.92 1205.2 297.58 1205.2 348.5C1205.2 399.42 1139.25 399.42 1139.25 399.42Z" fill="#34306A"/>
<path d="M1315.36 250.862L1232 399H1307.34L1389.43 245.276L1482.51 399H1561L1454.53 223H1361.07C1351.91 223.008 1342.9 225.572 1334.9 230.448C1326.9 235.324 1320.17 242.35 1315.36 250.862Z" fill="#FF8800"/>
<path d="M1470.54 163.345L1555 15H1479.56L1398.43 165.62L1307.35 15H1229L1335.35 191H1424.8C1433.95 191.038 1442.95 188.517 1450.96 183.676C1458.96 178.836 1465.7 171.837 1470.54 163.345Z" fill="#FF8800"/>
</g>
<defs>
<linearGradient id="paint0_linear_32165_250378" x1="84.8842" y1="378.884" x2="334.895" y2="41.3368" gradientUnits="userSpaceOnUse">
<stop stop-color="#FF9E0F"/>
<stop offset="1" stop-color="#FF7C0F"/>
</linearGradient>
<clipPath id="clip0_32165_250378">
<rect width="1561" height="420" fill="white"/>
</clipPath>
</defs>
</svg>
